<mxfile host="app.diagrams.net" agent="Mozilla/5.0 (Windows NT 10.0; Win64; x64) AppleWebKit/537.36 (KHTML, like Gecko) Chrome/129.0.0.0 Safari/537.36 Edg/129.0.0.0" version="24.7.16">
  <diagram name="Page-1" id="ga3KCqRy300DTqBD7fB6">
    <mxGraphModel dx="725" dy="404" grid="1" gridSize="10" guides="1" tooltips="1" connect="1" arrows="1" fold="1" page="1" pageScale="1" pageWidth="850" pageHeight="1100" math="0" shadow="0">
      <root>
        <mxCell id="0" />
        <mxCell id="1" parent="0" />
        <mxCell id="oj4uOmL9cDN1MrVRwgIF-40" value="t" style="rounded=0;whiteSpace=wrap;html=1;align=left;fillColor=none;labelBackgroundColor=none;strokeColor=#D0CEE2;fontColor=#1A1A1A;" vertex="1" parent="1">
          <mxGeometry x="10" y="160" width="580" height="340" as="geometry" />
        </mxCell>
        <mxCell id="oj4uOmL9cDN1MrVRwgIF-1" value="NavFlow&#39;s&lt;br&gt;Adaptive&amp;nbsp;&lt;div&gt;Algorithm&lt;/div&gt;" style="whiteSpace=wrap;html=1;aspect=fixed;fillColor=#5D7F99;strokeColor=#D0CEE2;glass=0;opacity=60;labelBackgroundColor=none;fontColor=#1A1A1A;" vertex="1" parent="1">
          <mxGeometry x="280" y="291.7" width="80" height="80" as="geometry" />
        </mxCell>
        <mxCell id="oj4uOmL9cDN1MrVRwgIF-30" style="edgeStyle=orthogonalEdgeStyle;rounded=0;orthogonalLoop=1;jettySize=auto;html=1;entryX=0;entryY=0.5;entryDx=0;entryDy=0;strokeColor=#736CA8;labelBackgroundColor=none;fontColor=default;" edge="1" parent="1" source="oj4uOmL9cDN1MrVRwgIF-1" target="oj4uOmL9cDN1MrVRwgIF-31">
          <mxGeometry relative="1" as="geometry">
            <mxPoint x="450" y="331.7" as="targetPoint" />
          </mxGeometry>
        </mxCell>
        <mxCell id="oj4uOmL9cDN1MrVRwgIF-3" value="&lt;font style=&quot;font-size: 9px;&quot;&gt;Vessel Particulars&lt;/font&gt;" style="text;html=1;align=center;verticalAlign=middle;resizable=0;points=[];autosize=1;strokeColor=none;fillColor=none;container=0;labelBackgroundColor=none;fontColor=#1A1A1A;" vertex="1" parent="1">
          <mxGeometry x="40" y="272.2153846153846" width="100" height="30" as="geometry" />
        </mxCell>
        <mxCell id="oj4uOmL9cDN1MrVRwgIF-17" style="edgeStyle=orthogonalEdgeStyle;rounded=0;orthogonalLoop=1;jettySize=auto;html=1;strokeColor=#736CA8;labelBackgroundColor=none;fontColor=default;" edge="1" parent="1" source="oj4uOmL9cDN1MrVRwgIF-7" target="oj4uOmL9cDN1MrVRwgIF-1">
          <mxGeometry relative="1" as="geometry" />
        </mxCell>
        <mxCell id="oj4uOmL9cDN1MrVRwgIF-7" value="" style="sketch=0;outlineConnect=0;dashed=0;verticalLabelPosition=bottom;verticalAlign=top;align=center;html=1;fontSize=12;fontStyle=0;aspect=fixed;pointerEvents=1;shape=mxgraph.aws4.quicksight_paginated_reports;fillColor=#5D7F99;fontColor=#1A1A1A;strokeColor=#D0CEE2;labelBackgroundColor=none;" vertex="1" parent="1">
          <mxGeometry x="71.47999999999999" y="308.4" width="37.04" height="46.6" as="geometry" />
        </mxCell>
        <mxCell id="oj4uOmL9cDN1MrVRwgIF-9" value="" style="shape=image;verticalLabelPosition=bottom;labelBackgroundColor=none;verticalAlign=top;aspect=fixed;imageAspect=0;image=data:image/png,iVBORw0KGgoAAAANSUhEUgAAAgAAAAIACAYAAAD0eNT6AAAABHNCSVQICAgIfAhkiAAAAAlwSFlzAAAN1wAADdcBQiibeAAAABl0RVh0U29mdHdhcmUAd3d3Lmlua3NjYXBlLm9yZ5vuPBoAACAASURBVHic7d15uFxVme/x3zo5GQkQCFMkBIICggxhaPV2g4ootmJ79WqrKNIOTNq31XZqp9sqjdCIEgQZZVZAhgjIIAgtMwgZCEMgDAESCIGEM481vvePc+AJGc+ptarWrr2+n+fhUZLa734rp0j91tp7r+XMTAAAIC0tsRsAAACNRwAAACBBBAAAABJEAAAAIEEEAAAAEkQAAAAgQQQAAAASRAAAACBBBAAAABJEAAAAIEEEAAAAEkQAAAAgQQQAAAASRAAAACBBBAAAABJEAAAAIEEEAAAAEkQAAAAgQQQAAAASRAAAACBBBAAAABJEAAAAIEEEAAAAEkQAAAAgQQQAAAASRAAAACBBBAAAABJEAAAAIEEEAAAAEkQAAAAgQQQAAAASRAAAACBBBAAAABJEAAAAIEEEAAAAEkQAAAAgQQQAAAASRAAAACBBBAAAABJEAAAAIEEEAAAAEkQAAAAgQQQAAAASRAAAACBBBAAAABJEAAAAIEEEAAAAEkQAAAAgQQQAAAASRAAAACBBBAAAABJEAAAAIEEEAAAAEkQAAAAgQQQAAAASRAAAACBBBAAAABJEAAAAIEEEAAAAEkQAAAAgQQQAAAASRAAAACBBBAAAABJEAAAAIEEEAAAAEkQAAAAgQQQAAAASRAAAACBBBAAAABJEAAAAIEEEAAAAEkQAAAAgQQQAAAASRAAAACBBBAAAABJEAAAAIEEEAAAAEkQAAAAgQQQAAAASRAAAACBBBAAAABJEAAAAIEEEAAAAEkQAAAAgQQQAAAASRAAAACBBrbEbgOScc5LeKml/SRVJ88zshahNAQByzZlZ7B6S5ZwbK+nHkr4hafM1frtN0omSTjOzaqN7AwDkGwEgEufc7pIulzRrIy+9X9IRZvZ8/bsCAKSCABCBc26ipIWSdh3hIQskvcvMyvXrCgCQEm4CjOMEjfzLX5L2k/SDOvUCAEgQMwAN5pzbRtIKjT58FSVtYWb94bsCAKSGGYDGO0C1/bmP08bvFwAAYEQIAI13QKRjAQB4AwGg8WZGOhYAgDcQABrPRToWAIA3EAAAAEgQAQAAgAQRAAAASBABAACABBEAAABIEAEAAIAEEQAAAEgQAQAAgAQRAAAASBABAACABBEAAABIEAEAAIAEEQAAAEgQAQAAgAQRAAAASBABAACABBEAAABIEAEAAIAEEQAAAEgQAQAAgAQRAAAASBABAACABBEAAABIEAEAAIAEEQAAAEgQAQAAgAQRAAAASBABAACABBEAAABIEAEAAIAEEQAAAEgQAQAAgAQRAAAASBABAACABBEAAABIkDOz2D3UjXNurKRZkvaXdMDw/+4kyUVsa5KksTUeW5Q0ELCX0apKWiJpvqR5w//7qJlVIvYEAKhBbgOAc+6dki6WtHvkVvJuoaQjzeyx2I0AAEYud5cAnHPjnHM/l3S/+PJvhFmS5jnnfuicGxO7GQDAyORqBsA5N1HSvZL2i91Lou6WdIiZlWM3AgDYsLzNAJwovvxjeo+kH8VuAgCwcbmZAXDOvUfSnYp7gx+kkqR3mdnDsRsBAKxfLgKAc24TSY9K2jl2L5AkPS5pfzMrxm4EALBuebkEcIj48s+SPSW9O3YTAID1y0sA2D92A1gLPxMAyDACAOqFnwkAZBgBAPXCzwQAMqzpbwJ0zm0qqTt2H1hL1cxYGAgAMioPMwB8yWRTHj5bAJBb/CUNAECCCAAAACSoNXYDMU3edDPdOW9R3eq/1NalwVKpbvXrrVQs6gsffFfsNgAAdZB0AHDOaetttqtb/f6W8RosNm8AKBYKsVsAANRJ0gEAGI3hJadnaegRx93EDaiQTNIySfMlzTeztsj9ACNGAAA2wjm3p6RzNbS8MffNYL2cc09J+rqZ/SV2L8DG8JcZsB7OuTHOue9Lmifp78V/L9i43STd6pw7xzk3OXYzwIbwFxqwftdJOknS+NiNoOkcK2keIQBZRgAA1sE5d6ykj8buA01tN0mnxm4CWB8CALAG59xOkn4ZuQ3kw9HOuY/EbgJYFwIAsLYTJDF1i1B+HbsBYF0IAMDa/j52A8iVtznntordBLAmAgCwmuG/qGfG7gO5w/bYyBwCAPBmB8RuALm0X+wGgDURAIA32zF2A8ilGbEbANZEAADezMVuALnE5wqZQwAAACBBBAAAABJEAAAAIEHsBggE8u49ttO//OPbY7cR1H+ce7+6+4o1HfuTw/fRphPHBu4onnsWvarrH3wxdhtAMAQAIJDdZkzRcR/bM3YbQf30oodqDgCfPXCmtpkyIXBH8RRKFQIAcoVLAAAAJIgAAABAgggAAAAkiAAAAECCCAAAACSIAAAAQIIIAAAAJIgAAABAgggAAAAkiAAAAECCCAAAACSIAAAAQIIIAAAAJIgAAABAgggAAAAkiAAAAECCCAAAACSIAAAAQIIIAAAAJIgAAABAgggAAAAkiAAAAECCCAAAACSIAAAAQIIIAAAAJIgAAABAgggAAAAkiAAAAECCCAAAACSIAAAAQIIIAAAAJIgAAABAglrrfQLn3FaS9pe0j6RJdTjFhFoPLBQGNfu/jw/Zy5t09Q+qXKnUrX69VSplr+Odcz8N08laeiU9LGm+mXXW6RwAkGt1CQDOuYmSTpD0SUk71uMcIRQLBZ128n/FbiPPflLn+uacWyLpMkk/N7NSnc8HALkR/BKAc+7dkhZK+pYy/OWPXHCS3qahoDHXObdP5H4AoGkEDQDOua9JulfSriHrAiOwj4ZCwBdiNwIAzSBYAHDO7SVptqQxoWoCozRW0lnOuZ1jNwIAWRckADjnxkq6VNK4EPUAD5MlXeyc4wkXANiAUH9JflPSrEC1AF8HSfpK7CYAIMtCBYAPBqoDhMJnEgA2IFQA2D9QHSAUPpMAsAHeAcA5N1PSlgF6AULa2Tm3RewmACCrQswA7BGgBlAPfDYBYD1CBICxAWoA9cBnEwDWg0elAABIEAEAAIAEEQAAAEhQ3bcD3pDp06frIx/+cMwWcq1UrqhUrsZuw8stf75Rr732Wuw2ACB3ogaAHXaYrmOOOTpmC7nWP1jSwGA5dhte5s19iAAAAHUQNQAAeXLLg8v0vm9cG7uNoNp7Bms+9sjT7tW41vxcZXy5vd/n8I85594eqpeMKUtaKWmFpHmSbjKz7rgtYSQIAEAgr3b069UOry+JXJn7DDM3q5k2/E8Kis65qyV908z4EGRYfuI5ACALxkn6vKRFzrn/E7sZrB8BAABQD9tImuOcu9w5x3LxGUQAAADU0+GS/uicc7EbwZsRAAAA9fZeSV+P3QTeLOpNgCtXrtINN95Y8/FOTttuu6123/3tmjx5csDORqdYLOqpp57WsmXLVLXsPHdfLFVULFVit+Glq6szdgsAwjjJOXeLmT0VuxEMcWbmV8C5j0uK+uyTc04zZszQscccrUMPPbRh533kkUd06uzTtHjxYlUqzf1Fm1PvM7O7RnOAc+44SWfXqR8gdQ9K+gcz4y/MDMjFJQAz09KlS/XDH/1Y3/nud9XZWd9RY6lU0qmnztbRxxyrRYsW8eWfXVxzBLLlXZLeF7sJDMlFAFjdnXfepZ/+7Gd1Pcdvzz9fl19xharV7Ez3A0CT+FjsBjAkdwFAku699z7ddNPNdam9ePFiXXLJpXWpDQAJODh2AxgSIgBkchh85lln1aXuueedx5R/88jkZxNI3I6xG8CQEAHg6QA1glu5cqVWrloVvO7jjy8KXhN1k8nPJpC4zZxzm8ZuAuECQE+AOsE9+cQTQeutWLFCHR0dQWuibpab2SuxmwCwTpvEbgAB1gEws6pzboGGFnrIlJZJUzV1x3cEq9c2mMtbJvJqXuwGACDLQi0EdI8yGAD2OeCdahk7Lli9XXbfUxMnTtLAADu+NYG7G33C9+65rf71I/na8fWYMx9QZ1+xpmMv/3+HaotNJwTuKJ7r7n1O5/7p8ZqO/eCst+joQ3cJ3FFcX/z1feovlGO3AQ+hAsAvJH1BGbq5Y5PJm2rmW8P+BzdmzBjtsdc+mv/QA0HrIrhFks5s9EmnbTFJh+yTrx1fx7bWPut18L7Ttd2WkwJ2E9fiZbVf/tt+av4+G61jWGaj2QWZ0zazHklHh6gVyue+eJRaWsJP2X/hK8cGr4mgypL+xcwKsRsBgCwL9g1pZrdJ+k2oej523mVXfffHx9el9ic+/Xkd+hHWsciwn5nZ/NhNAEDWBR0im9m/SfqypK6QdUfjLdvvoN+cf5nGj6/ftceTZp+lvWbtV7f6qMkqSZ80sxNiNwIAzSD4HLmZXSRpL0k3q8ELsXz68/+iv9z/sN6x96y6nmerbbbVdbfdp2/94CdqHTu2rufCRpUlzZG0p5n9MXYzANAs6rIdsJm9KOkw59wmkvaVdICkT0v6X7XU23Hmztp73wPW+nUnp2nTp2vvWftr1v7v1PQZjbsHsbW1Vd/43o91xJeO0cIFc/Xow/P1/LPPNGQ74GK5osFSqe7nqacnF87XyhXLaz38Dg3tQDlP0kIzGwjWGAAkoi4B4HVm1ifpXkn3OuekGgPAge87RCeeWp+lfX1N3XobHfKhw3TIhw5r2Dk7+wb0alcm114asZ9/56s+AeBSM7s4YDsAkBxWtgEAIEEEAAAAEkQAAAAgQQQAAAASRAAAACBBBAAAABJEAAAAIEEEAAAAEkQAAAAgQQQAAAASRAAAACBBBAAAABJEAAAAIEEEAAAAEkQAAAAgQQQAAAASRAAAACBBrbEbAABgJJxzrZIOlPRhSTtJmjb8z3aSxsbrLLpOSUslvSBpsaTLzOzpjR1EAAAAZJpz7lBJR0g6TNKWkdvJom2H/3nn8L//p3PuTklnm9lV6zuISwAAgExyzu3nnPsfSbdK+oL48h+N90m60jl3o3Nu63W9gAAAAMgU59zmzrlLJc2T9P7Y/TS5wyQ96pw7eM3fIAAAADLDObebpAc1NOJ3kdvJi+0k3eic22/1XyQAAAAywTn3YQ19+e8Wu5ccmiTpeufcdq//AgEAABDd8I1+N0jaPHYvOTZd0tWv/wsBAAAQlXNuV0lXShoTu5cEHOic+0eJAAAAiMg5N0VDI/8psXtJyPclAgAAIK5TJO0au4nEvNc593cEAABAFM65t0v6Uuw+EnUIAQAAEMuJ4rp/LPsSAAAADTf8TPonYveRMAIAACCKz8VuIHHbEgAAADEw+o+rk90AAQCNtreknX0KjGtp0bd23lkf2Gor7bv55tpkzIZvJehZvlyVQsHnlJlikg567jk9WyzWWoIAAABouA/5HLzLJpvojwccoD033XREry/396u1WFSry8/WAjf19Ph8+UvSq1wCAAA02oxaD2x1Tlfst9+Iv/wlabCzs9bTZdZpbW2+JW4hAAAAGm1arQd+eYcdtP/mI98uoDI4qPLAQK2ny6R7+vs1z/89zSEAAAAa7S21HnjglluO6vW5HP2/9ppviflmtpQAAABotG1rPXDf0Yz+i0WV+vpqPVUmPTI4qL/6v6dzJPYCAAA03qRaD9xx4sQRv7aQx9G//7X/lyVdKhEAAABNYtPWVm3aOrKH16rlsoq9vXXuqLGWFIv6U3e3b5lTzawoEQAAAE1i+wkTRvzaQmenZFbHbhrvjLY2Vf1KdEg69/V/IQAAAJrCjBFO/1uloqL/SDlTXimX9YeuLt8yZ5rZG9MiBAAAQFP4wFZbjeh1ha4uWc5G/2e1t6vg9576JZ2++i+4jf0hOedmSvqMpIMl7SBpuqSRr8AAAEAATx18sHbdZJMNvsaqVXUvXSqrek6WZ0hXpaI9n31WvX7v6Qwz+/rqv7DeuymccwdIOlXSQT5nBADA19snT97ol78kFbu7c/XlL0nnd3T4fvmXJf1qzV9cKwA45yZJOlnS18QlAgBABnzmLSNYO8hMBf/r5JkyaKZz2tt9y1xhZkvX/MU3BYDhL/8bJL3f92wAAISw5dix+ubMmRt9XbG3V9VyuQEdNc7vOjv1WqXiU8I0NKhfyxsjfOfcBPHlDwDImB/usoumjB270dcNdnQ0oJvGKZvpDP+Ff24ws0Xr+o3Vp/h/Kr78AQAZMmPiRP3fnXba6OtKfX2qlkr1b6iB5nR360X/9/Tf6/uNFklyzu0r6du+ZwEAIJSxzun3++6r8S0bvx0tb6N/U5Blf+8yswfW95uv/6n+Uht4IgAAgEY7a6+9dNAIdv8rDwyoUig0oKPGubW3V4v939N6R/+S1OKc20lDz/gDAJAJX585U0fNmDGi1+Zt9C9Js/23/F1oZrds6AUtko6U5HzPBABACN9761s1e489RvTaSqGg8sBAnTtqrPv7+/WQ/3ta553/q2uV9A++ZwEAwNfEMWN0/t5763Pbbz/iY3I5+ve/9r9E0tUbe1GrpB19zwQAgI+9N9tMF+6zj/bffPMRH1MtlVTq66tjV433+OCgbvffxvgUM9vo4gGtGlrfHwCAhps+YYL+a7fddOT06Wpxo7saPdjZWaeu4gkw+n9F0sUjeWGrpIKkSb5nBABgJMY4pwO33FKfnDZNR+2wgyaOGTPqGtVyWcWenjp0F88LpZKu99/GeLaZjejxgVZJL0vawveMAACszknaatw4TZswQdPGj9f2EyboPVOn6qPbbKOp48Z51S50dUk52/L39LY2eS36K3VJOmekL26VtFzSO2o50z9Pm6ar9t9/VMeM9sc12j2dR11/lK+v6RwZew+17JOdtZ4a8nMb7esz9nOWstdTJj97o319Fj+rGfs5O0mbtrZqs9ZWjRnltP6I+qlWVfQfKWfKynJZl/tf0jjLzEb8B9Mq6UFJh9Zypr+2tck0umcIR/tRcHX48DRcHt4DAGREoasrd1v+nt3eroLfjMagpNNGc0CLpDtrPVtbsaiHc7b1IgAguyyHW/52V6u6wP9xxgvNbOVoDmiR9ICkYq1nvN1/tSIAAEak2N0t89seN3Mu7OhQj9+MRkVDS/qPSouZDWjoMkBNCAAAgIYwUyFnj/4VzHR2e7tvmSvN7PnRHvT6ZkB31XrWe9vbVcjZtRgAQPYUe3tVLZdjtxHUZZ2dWun/nja46c/6vB4A7qz1rAOViu7zTy8AAGxQ3kb/FQ09+ufpJjN7rJYDXw8A94v7AAAAGVXq61OlWPPXVCZd292tpaWSb5maRv/ScAAYvg/goVqL/GXVqloPBQBgo/I2+pek0/wHz/eZ2b21Htyy2v+/s9Yi87u6tKS/v9bDAQBYr/LAgMqDg7HbCOq23l4tKoxoxd4NOcnn4NUDwO0+ha58+WWfwwEAWKc8bvpzqv+1/8ck3exTYPUAcK+kUS0isLo/LF/u0wcAAGupFAoq52yG+cGBAf3N/z2dbLWsrb2aNwLA8N7B19Za6LGeHj2Rs52ZAABx5XH0P9v/2v8Lkq70LdKyxr/P8Sn2By4DAAACqZZKKvX2xm4jqCcKBf3F/z2dYmbeiwesGQDukFTzQ/3cBwAACCWPo//ThjfR87BS0kUhenlTABhOFNfXWuzpvj4tyNkmDQCAxqtWKirm7LLyslJJ1/pvY/zr4Uf3va05AyBJ1/gU5DIAAMBXobNT8rvHLXPOaGtT2e89dUs6K1A76wwAt0uqeRh/yUsvqcjeAACAGlm1qqL/SDlTVpXL+r3/JY1zzCzYdZG1AoCZFSXdUGvBlYWCrlqxwqspAEC6Cl1dspwNJM/p6NCg3+i/IGl2oHYkrXsGQPK8DHDmCy/4HA4ASJSZqZCze8l6q1Vd0NHhW+YSM3slRD+vW18AuFkeiwL9raND83P2AwQA1F+xu1tWqcRuI6gLOjrU5feeKpJ+EaidN6wzAJhZSdKFPoWZBQAAjIpZ7jb9KZjp7Paan65/3TVmtiREP6tb3wyAJP1Wqv1xxSuWL1e7/zaHAIBEFPv6VC17r2+TKVd0delV//dU85a/G7LeAGBmz0m6rdbCg9WqLli2rNbDAQCJKfhfJ8+UioYe/fN0i5ktDNDOWjY0AyBJ5/gUP3vpUlVz9hwnACC8Un+/KsVi7DaCur67W8/5v6e6jP6ljQeAGyTVvLLP8/39uppHAgEAG5G30b8k/dp/9P83M7srRC/rssEAMLw08AU+Jzj+mWeYBQAArFd5cFDlwcHYbQT1P319etT/PdVt9C9tfAZAks6XVPOKDE/09OgaZgEAAOuRx9F/gC1/n5D0pwCtrNdGA4CZLZP0Z5+THP/MM767HwEAcqhSLKrU3x+7jaDmDQzoPv/3dLJZfafPRzIDIEln+JxkEbMAAIB1yOXo3//a/zJJlwdoZYNGFADM7FZJ831OdPzTTzMLAAB4Q7VUUrG3N3YbQT1VKOjP/tsY/2r4Hry6GukMgCSd4HOix3t6NIdZAADAsLyt+idJp7W1+Q52X9PQvXd1N5oAcL2kx3xOxiwAAECSrFJR0X+knCkvlUq6xn8b49PNrCE3RYw4AAzfjHCiz8ke6+nR7156yacEACAHCl1dqvM9bg33m/Z2lf3eU6+k3wRqZ6NGMwMgSVdJetrnhN9/8kn15mytZwDAyFm1mrstf9sqFV3qf0njXDNr2F2RowoAZlaV5yzAikJBP3/2WZ8SAIAmVuzullVrXl4mk85tb9eA33sqSpodqJ0RGe0MgCRdJukFn5POfu45LcnZc58AgI2zHG7521et6rf+jzP+zsyWh+hnpEYdAIYfTfBanrBQrerbTzzhUwIA0ISKPT2qViqx2wjqos5Odfq9p6qkXwRqZ8RqmQGQpIslvehz4utfeUW3+y+VCABoInkb/RfNdJb/wj9/NDOv++tqUVMAMLOCpB/5nvybixb53jEJAGgSxd5eVUul2G0EdWVXl1b439he101/1qfWGQBJ+r2keT4nX9TTo7OXLvUpAQBoEnlb9rcq6XT/0f/tZua10m6tag4Aw+sCfMu3gR8vXqwXBwZ8ywAAMqzU369KsRi7jaBu6O7Ws/7v6aQQvdTCZwZAZnaPpDk+NbrLZR396KM+JQAAGZe3a//S0LK/nuaa2V9D9FILrwAw7Hsaen6xZreuWqULli0L0AoAIGvKg4Mq52ym986+Pi0cHPQtE+Xa/+u8A4CZPSfpdN86337iCb3k/4cJAMiYPI7+A2z5+5Sk6wK0UrMQMwDS0E6BXs/0dZXLOoZLAQCQK5ViUaW+vthtBLVgYEB3+7+nk4dX140mSAAwsy5JP/Wt8+eVK3XRi17LCwAAMiSPo/8A1/5f0tCTdFGFmgGQpHMleS/v9++LFmk5lwIAoOlVy2UVe3tjtxHUM8WibvLfxvhUM4u+IEKwADC8RPDRGno0smZdw08FsDwQADS3QmenlLPF3n7d1ub3JSe1SzovSDOeQs4AyMzul3SGb50/r1ypXy5ZEqAjAEAMVqmo2N0du42gXi6VdJX/NsZnmFkmbooIGgCG/VDSc95FFi/Wfe3tAdoBADRaoatLlrPR/5nt7Sr5vac+BRgkhxI8AJhZv6SjJL9Z/LKZPrtggV7L2cpRAJB3Vq2q4D9SzpSOSkUX+9/QeL6Zed9BGEo9ZgBkZndI+q1vnZcGB/WFhx/mfgAAaCLF7m5ZNeoTbsGd19Ghfr/3VJL0q0DtBFGXADDsuxp61MHLLatW6aRnnw3QDgCg7sxyN/rvr1Z1nv8l6cvMLFPPudctAJhZt6RjQ9T6z6ee0l3+z10CAOqs2NOjqv/2uJlySWen2isVnxIm6ReB2gmmnjMAMrObJf3Ot07FTIcvWKCVhUKArgAA9TKYs4V/SmY603/0f52ZPRmin5DqGgCGfVPSy75FVhQK+uf581XM2XUlAMiLUm+vqqXo69sEdXV3t5b7v6eom/6sT90DgJm1S/q8JK/5E0m6u72d/QIAIKPyNvo3Sae95rXNjSTdYWYPBWgnuEbMAMjM7pR0fIhal7z0kk7kpkAAyJTywIAqObtMe1NPj57xfxQ9k6N/qUEBYNgJkv4nRKEfL16sa1asCFEKABDAYEdH7BaCC7DpzwIz+0uIXuqhYQFgeNvDIyS96l1L0pELF2puzqabAKAZVQoFlQcGYrcR1D39/Zrv/54yO/qXGjsDIDN7RUMhwPtOvoFKRR+bO1cv5uxDBwDNJo+j/9n+1/6fkTQnQCt109AAIElmdrukn4eo9UqhoI/OnavenD1zCgDNolIqqdSXib1tgnlkcFB3+L+nU4ZnvjOr4QFg2M8k3RWi0KPd3Tpi4cIQpQAAo1TI4eg/wLX/lyVdEqCVuooSAMysIulzklaFqHf9K6/owhcztcIiAORetVxWsbc3dhtBLSkW9Sf/bYxnm1nmd7KLNQMgM3tZ0mclBZm///dFi7gfAAAaqNDZKeVsy9/T29p8b1LrkHRukGbqLFoAkCQz+6ukfw1Rq7tc1ldYJAgAGsIqFRV7emK3EdQr5bL+4L+R0Zlm1hR/MFEDgCSZ2XmSZoeodduqVTpn6dIQpQAAG1Do6srdlr9ntber6DejMSDp9EDt1F1r7AaGfUfSLpI+6lvou08+qf5KRS3O+XcFADXYcuxYzdpsM+2x6aZqjfR3UUeppPldXXqsu1uFwF/UZpbL6f8L/W9ovMDMgtzb1gjOMvIDdM5NlnSfpL1j9wIAIYxvadEXd9hBv9x9d01ubcx46/GeHn3lkUf0EAulNVpZ0tvMrGmmoTMTACTJOTdD0kOSto3dCwCEsvOkSbpiv/30zilT6nqeXz33nH60eHHwET9G5HdmdmTsJkYjUwFAkpxz75J0p6QJkVsBgGC2Gz9ej7/3vZo6blxd6s9ZsUKfmj+/LrWxUSZpLzNbFLuR0Yh+E+CazOxBSV+K3QcAhPRKoaCvPvZYXWq/WijouDrVxojc2Gxf/lIGA4AkmdkfJJ0Yuw8ACOnqFSv0RB0enTtr6VK95r9tLWp3UuwGapHJADDsp5Iejt0EAIQ01/85MvhusgAACf5JREFU87UsqENNjNjdZvZA7CZqkdkAYGYlSV+N3QcAhDS/DnfnP0wAiCnTW/5uSOZuAlyTc26JpJ1j9wEAIUz71Ke164//M2jN+w8+SKUcbsrTBB4xs1mxm6hVVhYC2pAbJH0jdhMAEMK4fWapd8LEoDUnvmMvle69O2hNjEjTjv6lDF8CWM2S2A0AQCiT9twrfM099gheExv1nKSrYzfhoxkCQCl2AwAQwmZ//w+atHv4L+utP3O4WiZNCl4XG3TK8Nb2TasZAsBOsRsAAF9jJk/Wjj8/uS61x20/XdP/44d1qY11ekXSxbGb8NUMAeCg2A0AgI/Wzado5i9na9y0aXU7x9afOVzbHHGkxEZojXCamQ3GbsJXpp8CcM69TdLTkvhEA2hKU97/Ac04/gSN3Wrrhpyv528P6IUffV/F5S815HwJ6pI0w8y6YzfiK+sB4GxJx9V6/NSPf0JjNts8YEcAsHGtU7bQpHfsqU323EutU6c2voFqVYMvPK/+xx/TwNNPqVrDKoFmpu7Ovjo0F0+1q1Olu2/3LfPfZvaDEP3EltkA4JybJul5SeNrOb5lwgTNmrtQbuzYsI0BQAI62rrVtipfCwwNXnqeCn+83KuEpJ3M7NVALUWV5XsAvqUav/wlaZN99+PLHwBqYGbq7OiN3UZQ1t+n4i3X+5a5KC9f/lJGA4Bzbkt5TP1L0pSDDwnUDQCkpburT5VyUz/htpbin6+X9Xtd0qhIOiVQO5mQyQAg6d8kTa71YNfaqi0P+6eA7QBAOjrbwu9YGFWxqMIN3mv2XGlmz4doJysyFwCcc5Mlfd2nxhb/+JE4N94AQJPr6e5XqVSO3UZQxb/eIuv03iuhPos4RJS5ACDpWElb+hTY9stHBWoFANLS0db0T7e9WbWqwrV/8K1ys5k9GqKdLMlUAHDOjZf0bZ8amx30Hk3a4x2BOgKAdPT3DqpYyNfq66X77lD11Zd9yzT1pj/rk6kAIOlLkryWypp27NcCtQIAaeloz9noX1Jhjtdjf5J0n5ndE6KXrMlMAHDOjZH0PZ8ak/c/QJMP+LtAHQFAOgYHChroL8RuI6jyggdVecF7Q9lcjv6lDAUASYdLmulTYNpx/xqoFQBIS0fe7vxXkNH/45JuCtBKJmUiADjnnKTv+9SYtMce2uyg9wTqCADSUSyU1Nc7ELuNoCpPLVJ50SO+ZU62rC6XG0AmAoCk/y3J68697bj2DwA1yd2d/woy+n9BkvfjA1mWlQDgtZH1hJk7a4sPfihULwCQjFKprN6e/thtBFVZ9oJKc+/3LfNLM8vXgghriB4AnHMfkOR15952xxwntUR/KwDQdDrbe5S3Se7itVfI802tlHRhoHYyKwvfml6j/3Fv2V5bfuzjoXoBgGRUKpX8bfm76lUV/bf8/bWZ5eumiHWIGgCcc++WdLBPje2+crTcmDGBOgKAdHS29ypv97gVrr9KqnhtZNQj6axA7WRa7BkAr9H/2KlbaeqnPh2qFwBIRrVaVVfetvzt7lLpNu+n9s4xs84Q/WRdtADgnNtL0kd9amzzxS+rZfz4QB0BQDq6OnpVrVZjtxFU4cY5ssKgVwlJswO1k3kxZwB+IMnVevCYzTbT1p87ImA7AJAGM1Nn3kb/gwMq3nydb5lLzGxFiH6aQZQA4Jx7mySvufttjjhSYzbZJFBHAJCO7q4+Vcpe18kzp3jrDbJer/UMqpJOCdROU4g1A/Afkmq+c69l4iRtc+SXArYDAOnozNuyv+WSin+6yrfKNWb2bIh2mkXDA4BzbntJR/rU2Pozn1XrlCmBOgKAdPR296tUytf6NsU7b1O17TXfMrnd9Gd9YswAfEfSuFoPdmPHatsvHxWwHQBIR+6W/bWqCtde4VvlVjN7OEQ7zaShAcA5t5WkY3xqTP3EJzV2m20DdQQA6ejvG1ShUIrdRlClv92r6vIXfcskN/qXGj8DcJykSbUe7MaM0XZHHRuwHQBIR+5G/5IKf/Te9OdBM7szQCtNp9EB4HCfg7f48GEaP2NGqF4AIBmDAwUN9BditxFU+dEFqjyz2LfMSSF6aUYNCwDOuT0k7eFRQNsd+9VwDQFAQjrydue/goz+n5D0pwCtNKVGzgB8yufgKe8/RBN32TVULwCQjGKhpL7efO1tU1nytMoL5/mW+YXlbTOEUWhkANjF5+Dtjv1aqD4AICm5vPY/5zLfEsskeU8hNLPWBp6r5gf3WyZNUtucq9U25+qQ/QBA7lWrpp7u/ththGVVlR64x7fKr8wsX49EjJJr1OyHc+4eSQc25GQAAKzfa5J2NLOcJaPRaeQlgGSvswAAMuWM1L/8pcYGgMcaeC4AANalV9JvYjeRBY0MAI828FwAAKzLeWbWHruJLGhkAFjQwHMBALCmoqRTYzeRFQ0LAGY2V1Jymy0AADLj92a2PHYTWdHopYBPbvD5AACQpIISXvZ3XRodAK6RtKTB5wQA4Gdm9mzsJrKkYesAvHFC5/6XpDskjW/oiQEAqXpY0jvNrBy7kSxp9AyAzOwBSUc3+rwAgCQNSPoyX/5ra3gAkCQz+52k42OcGwCQjBWS3mNmC2M3kkUNvwTwppM793FJ50uaGq0JAEAeLZT0T2b2UuxGsirKDMDrzOw6SftIulEsFQwA8LdK0k8kHciX/4ZFnQFYnXPurZKOlfQlSVtFbgcA0DyqkhZLOlPSRWY2ELmfppCZAPA651yLpGmSdhr+ZytJLmJLAIDsKUtaKulZSc+ZWSFyP00ncwEAAADUX9R7AAAAQBwEAAAAEkQAAAAgQQQAAAASRAAAACBBBAAAABJEAAAAIEEEAAAAEkQAAAAgQQQAAAASRAAAACBBBAAAABJEAAAAIEEEAAAAEkQAAAAgQQQAAAASRAAAACBBBAAAABJEAAAAIEEEAAAAEkQAAAAgQQQAAAASRAAAACBBBAAAABJEAAAAIEEEAAAAEkQAAAAgQQQAAAASRAAAACBBBAAAABJEAAAAIEEEAAAAEkQAAAAgQQQAAAASRAAAACBBBAAAABJEAAAAIEEEAAAAEkQAAAAgQQQAAAASRAAAACBBBAAAABJEAAAAIEEEAAAAEkQAAAAgQQQAAAASRAAAACBBBAAAABJEAAAAIEEEAAAAEkQAAAAgQQQAAAASRAAAACBBBAAAABJEAAAAIEEEAAAAEkQAAAAgQQQAAAASRAAAACBBBAAAABJEAAAAIEEEAAAAEkQAAAAgQQQAAAASRAAAACBBBAAAABJEAAAAIEEEAAAAEkQAAAAgQQQAAAASRAAAACBBBAAAABJEAAAAIEEEAAAAEkQAAAAgQQQAAAASRAAAACBBBAAAABJEAAAAIEEEAAAAEkQAAAAgQQQAAAASRAAAACBBBAAAABJEAAAAIEEEAAAAEvT/AY7cPuR5ngVsAAAADmVYSWZNTQAqAAAACAAAAAAAAADSU5MAAAAASUVORK5CYII=;fillColor=#5D7F99;strokeColor=#D0CEE2;fontColor=#1A1A1A;" vertex="1" parent="1">
          <mxGeometry x="55.25999999999999" y="222.22" width="69.48" height="69.48" as="geometry" />
        </mxCell>
        <mxCell id="oj4uOmL9cDN1MrVRwgIF-10" value="&lt;font style=&quot;font-size: 9px;&quot;&gt;Historical Noon&amp;nbsp;&lt;/font&gt;&lt;div&gt;&lt;font style=&quot;font-size: 9px;&quot;&gt;Reports&lt;/font&gt;&lt;/div&gt;" style="text;html=1;align=center;verticalAlign=middle;resizable=0;points=[];autosize=1;strokeColor=none;fillColor=none;container=0;labelBackgroundColor=none;fontColor=#1A1A1A;" vertex="1" parent="1">
          <mxGeometry x="45" y="354.9953846153846" width="90" height="40" as="geometry" />
        </mxCell>
        <mxCell id="oj4uOmL9cDN1MrVRwgIF-13" value="" style="shape=image;verticalLabelPosition=bottom;labelBackgroundColor=none;verticalAlign=top;aspect=fixed;imageAspect=0;image=data:image/png,iVBORw0KGgoAAAANSUhEUgAAAgAAAAIACAYAAAD0eNT6AAAAAXNSR0IArs4c6QAAIABJREFUeAHtvQWYFVe2t893RzLJ3Ds+9z/yjd3MHZfMNJDgtHujwV0ixEhIkIQQSAJEiMvEhSTEiAtJCAGCa3fjro003tGZiazvvxoKqg9HSvau2vLr5+mnjlbtvc55zvvuta1RI/whAogAIoAIIAKIACKACCACiAAigAggAogAIoAIIAKIACKACCACiAAigAggAogAIoAIIAKIACKACCACiAAigAggAogAIoAIIAKIACKACCACiAAigAggAogAIoAIIAKIACKACCACiAAigAggAogAIoAIIAKIACKACCACiAAigAggAogAIoAIIAKIACKACCACiAAigAggAogAIoAIIAKIACKACCACiAAigAggAogAIoAIIAKIACKACCACiAAigAggAogAIoAIIAKIACKACCACiAAigAggAogAIoAIIAKIACKACCACiAAigAggAogAIoAIIAKIACKACCACiAAigAggAogAIoAIIAKIACKACCACiAAigAggAogAIoAIIAKIACKACCACiAAigAggAogAIoAIIAKIACKACCACiAAigAggAogAIoAIIAKIACKACCACiAAigAggAogAIoAIIAKIACKACCACiAAigAggAogAIoAIIAKIACKACCACiAAigAggAogAIoAIIAKIACKACCACiAAigAggAogAIoAIIAKIACKACCACiAAigAggAogAIoAIIAKIACKACCACiAAigAggAppGoO3YsV9teclro1sPe2tt2+Hv/DN7xLtf5oyaQfhHDER+B7JHzaCsQc9Z/U839CX8IwaxfQdGdCQy8r/TIRrRcRUN73g/jWhfTGPH/oemOI622K2Gvj60zfB3PhH5Q49zQRySfwfetRr+LD+x/fBDPBB7/g4YCf+kUrOcrujQJlqaana1FpdOeyL5DzUAhrjI+A5AACAAaP3H9h2YaJUAsOx8TiM7jNAMy9EUt/Vlb74CyMmAHM6Z8ns1EgIQ248/MgDIAEzsY1MGwFXXTpdFQ1VNrtLysmkXp/yRRt8/xj5I+g5kj4AAQACQAYjtO2CtAHT8HN0Bx+SEB/y1Gf7OxxAAtNSj/g5kj5yOMQBoiaMlHtd3YIKtGYD6MQJVGBjYqFEjHu0f9Q8/rgfZ4O9A9ggIQGytv7igg+uqIzx2CwDRyA5FmiTp5RWz1eXT1gHIAHIc34G2EAB1YAAw2/dZ2NsF4IwHuE8eWTU5M8/zj+PHH9eEdLQdjgwAMgAYAxDbd2C81V0ARMM7rtQE0/KKiUV+AOK4ZKztFW9jDABa3va1vFX5zCf0dlrCth4PyiOrJmeO68cf14V4tLkcAhBb608VCKEc8QnQeOsFgDTBtLxiAsQAcVzfgdaXv4UMAAAYHwBtj/31PW1t+R+vtzyyanLmuH78cV2IR6vLpkEAbIcQ6h+fAF0HAdAE0/KKCRADxHF9ByAA2AsAXSAxDoK8tsfxlrBFewI0qLM8smpy5rh+/HFdiEfLS99EBgAt4PhawLbHfhwEQBNMyysmQAwQx/UdaDn0dQiA7RBC/eMToLHdG7SGbcwCyCOrJmeO68cf14V4NL8EAoAUeIwpcNvlAwKAWQAAMUAc13eg+cWvIgNgO4RQ//gyAGO6IQOgSUNdWjHj+vHHdSEezS58BQIAAMYHQNtjf3VXCIA0smpyYoAYII7rO3DWBS9DAGyHEOofnwCN7gIB0ITT0ooZ148/rgvxaHr+ixAAADA+ANoe+6vOhgBII6smJwaIAeK4vgNNznsBAmA7hFD/+AToys4QAE04La2Ycf3447oQj8aDp0IAAMD4AGh77Ed1ggBII6smJwaIAeK4vgNZg56DANgOIdQ/HgGa2Nd6+PO6B5pgWl4x4/rxx3XtFo/sEe9aD38WIKwDgHUAYvkOTOgDAYAANGoEENsN4rg+/zbD34EAQAAgQHFlQLAVcL0AyWtaa3LmuACA69otHtgK+Gj3Ryytv7igg+uqIzzX90IGABkAZAAgIvGISCtsBFSfAYEAoAsglu8AdgJEBoCTFABgPAC0Pe4tsA8ABAAZgfgyAtdgIyAMAoQAkO0gjqv+zS7CPgAYBIjWfyytfxava7AMMAQAAgABGBVPBgTLAGMMQGzwQ+aBCPsAoAsAXQDxwC+uVrdK1216/kuYBYBZAPGlwG2XACwDDAGAAEAA4pKCJudgFUB0AaALILYsCFYBhABAACAAcQkAVgFEF0Bs8LO99c/1H9ER/5gGiFkAcQHQ5uu2xSJAx7s/AEFkASL/DmARoOPyw41gq/9sBhHqHk8GpPWwt44D0PZMQOQ//mj9YtwBFgGCADjWAwjGA0Gb497y0jcgAMc2QoIAIAMQ+XfgWqwB4HSBOBy09mgziFD3eOSn+cWvQQAgAHq2xG/uRfRQR6IppURTi47+821+jJ/TIcMyptvxFrADQluP1oLfqTggGA8EbY77mUNegQBAAPSApQP023oQvVhINKs50fvNkv/zcy8UEPFrnfepeBzdBQJwbBCkw0FrjzaDCHWPR36anPciBAACoDYk3eB+rH168CcKwezmRI+2V7d+WAPguABZC36n4oBgNBDMHv4m5Zx7L+X0vZ5ye46inK6XUl6Xiyiv83mU2/USyuk+nHJ7X005AydRzqXPGb1CYeNznocAQADUBaQb/s+UJG/tJ0I/2f2nS9WsI6YAQgAgAPLAn33565TTfzzldehHhaXtqaS0jMrLy339l5aVUVFJOeVXdKfcbsMo+4JHjJCC7BHTAf9j8MdCQIoPAHysXXD4O0LA53ALRdy3J/Y+Dj9b+/3d9XY4aO0RGQAxIpB90ZOU2/k8KiptR2Vl/oHvRRBKS8sov6IHZfefSDmjpmspBJgCeHQBIGf6o1JwiBtOKl2f+/E5le+APOiRxwXcrtCYgOt6QQBcGRBrwe9UHAIQQgCueKO+dV5Y0s5X694L7DO9hmUgr10vyhnykFYi0GIopgA68EcGQOEMAA/4Cwr9xPe9UKhOFmAcpgAiA+DQH7sBBoJn9rCX6/vuGcKZQC37ec42FJR2qB9boIPMNcc2wA26QJABUFACeDpfutH+iYDPdJ8zCZN6qyEBmALYIAPiQqGdN3WAhipl5L79vI4DifvnZYM9yPkLS9sdHUQY0xa/Xj6nM4dgF0BkABSEvrv7gef0Z4K63+f5nO5rxHV79NkNAOhuDdt4207qu2rt5Ucbr5lBOb2uCjSYLwjIw76noKwT5Vz4WKDshuzPujF2AUQGIC74eb0uL+zjF/CZXs/n9Hp9ma8b2RkCgDEAJwxA9g++9ue/6AkqLOugZIs/nShwliLn7AuVGiyYPeLdBvBzt4Rtva0EFGQCR8dzTxXY/++IwfNF8QvAxD6Avwv+nPE4QUJLb2kPaJnp7l6jpY3oTwdvkc/xrARVsgGtL38bAuCaAohBgIp2BbxYID4DwOeMW4YwA+AkAbIU+yeqDQE4eRYAL9qT366ndq3+VOLAAwVz+l7nqUsg+/JXKefSqZQz7CVPr/fz/WmJGQAnCVDsUIgbSipe31QBGNfjJADa2O/vrvMJElp6y88PuBWvvXQq8WC6VDDV+fHcTuce7RIY+gzl9LyKcjv0Jx4vUFxaTqlmNHBXQmlpKRWWVFB+RTfK7Xx+/SJHucPf8C0IzS7EHgCJXR0QAAWzAKYKwNVdIQDoAmhoOlZA3Ws3wUVPUHGJmiP8RYlHKtD7PT9nFXhsBAtB9kWTPclAU+wBgAyAii3+xDKZKgDYA+AkAWpIQwvvQQCOdQGc/0DKVrBfONr4+kJei6D3NSkHHWaPnEGNE/q/E1vDNt5HBgAZgMi+AyM7nQRAdzrcxtsWIr9hlSEAM+pbsEHW67cR9Jnq3Ca3mFr2Hk/ZI95ukBVoc8U7J7V+bQR+Yp0j+/FPbOXifupBeSZmAMZjD4BkgtOQhhbes10Asoc+Q8UKrOiXCay6PH/WWWdRVlYWNWmRQy37TaKcUe/Wi0DLS9+EACTJgEAAkAGI5DuAAYBJsx8WIr9hlW0WAF7Zj3fc0wWuqpeTxwUw/N3/TXM7UttLniUsAdxwEyAnExDJj78Orf0b+6RukUddfhMzAFgCGALQEP1H79ksAPnlXQF/n9sUp5OQgoKCBvA/LgJNzqImHUYiA4AMwAnI392VaEoJ0bS2RDNbHp13z+vvv92GiBfNub8zUVxSYJoA8G6E9xUTTckheqEt0cttiJ7JIXqogGh8eVIwJkuXm/hYMiZa9ZitApDb5WLAXyD8WQzatm2bXACcrEBuD8rq/zhEwCUC1mUAGEYv53tbaGdaNtE/zj4hDVFlAlhAnBX8RB2fi2ElwDu7Eb2cl7kur7cmuqXUShGwCvbJKmulAJxzJ+AvGP4sAM2bN08vACwCLfIpq8+DkIBjEmCVANx3NtHMFpmBlAjdp8qilQC+XmIZwt6Pug6Ptfe/o+HTOUSjOlglAsmYaNVj9gnAdCourYAASBCAJk2aZBYAloCz2lBWz3sgAYOeixZsUbWgk12HU/phIPpccXSxur9TuLImqyfXP1lcZDzGsUpWBi+PvdTGKgmwCvbJKmubAPDCNen6sfFcsEGRRUVF3uDvdAec2YKyut9mvQREBgUZoPF6Tk77B2n5JwIrqjT6TX2IZgXIVCSW17nP5+Jzeo1XmNeFgb9T3im51mQBkjHRqsdsEgBesY6XtgXkg0E+XdxycnL8CQCLQJNmlNXrXqslIBIohAGKiPd66Yd24JPpGNWueiJA6tTl2RJ94O+UeZIdYwKsgn2yytokAPnlXQB/Cal/FoMWLVr4FwCWgOY5lNX3UWslwHgB4NH+DlREHaPIBNzSi+g9AVkAnuHA5xIhUunOwTERFV8+Dw8MHNnR+ExAMiZa9Zg1AjDkIcBfEvxZAJo2bRpMAFgCWldQ1oApVkqAdDCkg0YUzz1dKhZMDuSiyAQ80IlodvPg5ef3PhBB37/IbIUTXz5OqIAAmG4DtggAWv/i0/5Ol0BxcXFw+DtjAgoHQACiAHLU1+B5/m6oiLwdRSbg8XbBJeCxdvq1/N2fz4MFEAAIwLHNcrzuqKfi6y54BK1/ia3/7Ozs8ALAItD1RuskwPgMgLPIjxssIm8/G8HsAB7B/96xxYq8lH1Gy6MLGcmWLa67l/IEfQ0vFpSwfa5p903ne8b62ZAByGvfFwIgUQA8zf93Wvrpjs1yKKv/k1ZJgNECwCPfg8LHz/u4lS4btjf3IppSSjSjVeo68XNTyogm9ZZfnskVqcvhJ3bpXvtSWwhARoJq/gLjBWDE21RSWgoBkCQAvP5/48aNxWQAWA6Kz4cAyIZZlOcXOZ0uFay4r/2O7vKhy3Hj5Ynv6Ur0aHsiXtyH//k2PxbV0sVcV142OVU8RD3OywYjA6A54TMU33QByO09GvCXBH8eA5By/f90Lf20zzW2amqg9JZrlLBPdi1e218UkNKdh9fvT3Z9Ex97yeNSyuni5eU5C9YDyIBH8582XQAKyjpBACQKQOvWrcW1/h0xyO9jTRbAeGjJWFc/Gbw4CxDFdLu4heLWXtEIFcf4niJkAExXAKMFYMTbVIr0v1QBCjX9zwH+ScfGlNX7fiskwHgBCLsEcDLYp3rs4Y7mZwEe7hCNAMxuRjS2HQQAAqDvLIDs/jdKhZ8zDc7Wo5DpfyfBP+toRqFwEAQg7tamiOtzv/ib2dFA65mIVtwTEZeg55A98t+Rq+eyjYc/j28wne8Z62dyBiCvQz8IgMT0f6Dlf1MBP/Hxxk2t2DrY+AwAg4639A2zoI4DpUzHlywYBxBF/z8PMLze/EWAIACNGjUyWQAKS7Drn8zsRODlfxNhn+p+h9HGZwGsEACWgCcjmLZmw0DAKATg3kIrWv8QAKMFYDo2/pHY+ufpf563/00F+EyPZ58NAQiaKlbxfbKWrHUyA7IXBZrUl+jefkQP9CN6rD/RkwOO/vNtfoyf49fIjL3sGE7Oswb+EACDBSD7gseQ/pcoAOKn/x3r+3dLQeMmlNVvstESIBUWMkEU9NyiN61x4M/HRzqIg+9t/YieGkA0fSDR4kFEawcT7TjH2z+/lt/z7kCiKf2J+FxB45X4Pl5zwF1nkbcn51qxARCD3/nP2Edu+guM7QLofQ0EQKIAtGrVSvz0Pzf8ndsdr4EAJEJA9/u8Pa5IcPG5eIwBT5ELExtuwb85gKh6MNF2j7D3IgV8Lj7nmwOJ7gkpA7f0FB87jt+TOdbBHxkAgzMAuZ3PhwBIEoBI0v+OAOT3gwCEgZqq7xWdCXg5Pxj8b+5LNHUA0XIfLXwv0E/3mmWDjl6Trx3k83k5T6wEWNjyRwbgWGrD1AxAXrs+EABJAlBYWBhN658loEUhBCAIJHR4jygJ4Nb/nd38wfSWfkQvDSBaL7Clnw76yZ7bMJjojQFEt/gUgbu6EfE8fRFZFIvhjwyAwRmA/PJuEABJAiBl9T+nxZ945H0GBkwxVgICtQB1gLvXMoqQgCfKvcP/xr5ELwwg2hQj+BNlYOPgoxkBLpvXuD1ZHl4ALIc/BMBgASgs6wgBkCQAclb/SzII0JGBnvdAALyCQcfXhVnchkfFe63z/f2jTfUngj7TfR4n8FB/7/UJs8zy43lW9vk7qX/naPoYv4z1M7ILYNhLVFxaDgGQIACRpv8dASi5kLIGPmukBHiGl1fI6fo6Ht3uZ4c7ToF7bflzy5pT7SIH9mWCedDnuYyvDyDymg3gGPjpDuAYW7DGvwP4TMeMgDT9BWYJwHTK63YZ1v+XAH5nQaE2bdpE1//vCAAfW5VRVo87jZMACIAr7X17D6IXCzMDjQf83elx+1+egrdokLfpe0GhLeN9SwYR3eFxxgDHggcGphMBfu7pHKJx5q/vnwn67udN53vG+pkiANkXP0WFpe3R6pcIf5aAyNP/bgnIakxZhYONGhMAAXAJgJO9mNSL6KEORLy2PwsBr/DHUwd5I5zbenpPkXPKnwfayQB0FOfkAYr3e5QAjt24DkR3FRHxYj7P5hwF/mP5RHcUE13d/vjcdzcAbb+dEZCmv8AEAeBNf0pLywB/yfAvKiqKp/XfQAKyKKtlMWX1edCIbAAEIIkAOCIQ5vhof6LNCg30CyoMmwcfXXUwUywm9AbgXQv8eBUb0/mesX66C0But0sBfsngd9L/bdu2VUMAWAjObE1Z3W/TXgIgABIEgJfo3WYA/B1p2HoO0RMZBgeO7Q4BgABk5P1JL9BZALDYT7QDHeNN/yeZJdDkTMrqcoPWEgABECwA3PJnYDrwNOXIQsN7DqTKBFx5NgQAAnAS3zM+oKsA5Ha5GC3/iFr+nAGIZfR/Yuo/2X2WgG63aCsBKX/QU/3Q4/HUELyvnxlp/1TSwt0BPK4h8TswsTem9AWAP3cTZASk6S/QUgB6jCRejtZJTeMoPxMQ2dr/ySCf6bGmLSir591aSsBJP+aJP+64fzLwksWER8zrPOAvFfQTH183+OTNhZD+D5z9MJ3vGeunmwBkn3sv4B9hy5/limWrMa/IlwnEcT7frC1l9X9cOwmAAAjoAuA587z7XiIsTb3PUwTd6wQg/Q8ByEj6FC/QSQCyL3+VSrDAT+SZj9zcXLXh74hHbncIQLLWsemP8SI/psI+Vb1eG3A0MzIe6X+vI/6TvS4FFu15WCcByKvoHjn80L1QTs2bN9dDAFgEOl6tlQQgAxAyA/BAfz1W+EsF8qCPbzs2HuAajP5PBnavj9lD+hQ11UUAsgfdBvhHnPpn+SkpKdEH/iwATZtRVt9HtJEACEAIAeA0+HKLUv+JslA5mOjKzoHT314hafLrUmDRnof1EIDpVFRaAQGIQQCUmvvvpPozHYsGQwBMT/tz/XhXv0Qo2nR/Ux+i5ztAAALOAGCxsYf0KWqqgwDk9rkG8I8B/pwBOPPMM/XKALAcNG5CWX0e0EICkAEImAG4pS8Rb6NrE/AT61pVTjS/LdHVHSEBASUgBRbteVgHASgqbQcBiEEAlJ37nykDwM/n94UAmJwFeNXy1v/2wURzWxG934zolQoIAAQgmLQoLwCDbwf8Y4A/t/6VnvufSQIaN9ViWiAyAAEyADf3JVpveet/fbej8GcBmNeGaHQnSEAACQhGTYPepboA5LfrBQGIQQC0mPufSQLaj1I+CwABCCAAUy1v/XNXwNKiEwLAEvACtvkNMljRIJQHq4rSAjDibezyFwP8ufWfnZ2tX99/ohC0roAAmNgNYPPIf4b/toFEc5o3FIB5+cgAIAPgXwKUFoCBN6P1H5MAaDn4L1EAshorv20wMgA+MwD39LN74B8LwOrODeHPGYD3mxPdhhkBfrMA/olp2DtUFoDcjoMhADEIQEFBgf6tf0cGOo5ROgsAAfApAG8i/U+LcpIIQDOiN0uRBfCZBTAM5/6ro7IAFJZ1gADEIAAtWrQwRwAUXxNAOwG4uRfRQx2JppQSTS0ierEg8//zRURPlRE90Jnopj7eNvdJ1XVRbfngP577X9/i51Z/wv/cnHACcGUHoltLiR4uIHoql+jZ7Mz/U3KJHsknur2Y6Kr24a7vE95+W/vJXu+fmIa9Q2UBKCkthQBELADarfzntPRTHVuVIgOQCqZ+Hr+tB9GLhUSzEvqeEyGU6f7MFkTPFRPd0su/CNzWz85lf93z/5eXngx+d8yvD9ANcHV7osm5RDNDfrb83Xg6h2isPgMSDcO5/+qoKgDZw14B/COGPw/+a9OmjTmtf5YCXhRo4DPKSoAWGYDH2ocHvxtSfPu9FkQPdvInAU9Znv7fNohobov0AjDF55oAt5UQvRcS/Imf7axmRPcUaZEN8E9Mw96hqgDknHs3BCAGAWjSpIlZAsAS0O9RCICf1r77tc+UpAdO4o+/3/uPt/MuAdMH2j0AcHWnzJ/F9BLv4P1HIdHshG4Ev59futc/qv7MBMNw7r86qgpAdv+JEICIBUCbbX9TpftTPd7rXgiAG+pebz/WLjNw0gHAy3OzmxPd7zETsMTijX+4G2BhisF/7jjPyfMmALeUyoW/UybFMwH+iWnYO1QVgJw+YyEAEQvAWWedZV7rn6Wg2y0QAK/Qd17Hff4MZ+eHXOaRuwMm9c6cCVhn8QDAjb29fRa8PHCmwXSjOxDNyNCVIOrz5nEB49QdE2AYzv1XR1kB6HkVBCBCAdB63f9ULX/n8bPHQwAcsHs98oA/URDwch6eVZCubJP62p3+X+6jK2ZMhs2BeNS+l89E1GumhJydkEloQjzvn5iGvUNVAcAOgOWRClDz5s3NbP2zBHS9EQKQDq6Jz/FUv7Cj/f3C491WRDemmSJ4r8ULAG0dcPLKf+nie3uamQAjOxBNbxmtAPCgQEWnCBqGc//VUVUAcvrfECkAeQS8rf9FRUXmwp8FoMcdEIBEyKe7z/P80wFG1nP3dE2dBXiwv70ZgBU+x2LcnyblfkNZPJ/t7T4GJ4Zo0Wfs/kg4t39iGvYOVQUg+5y7rAVy1CKi9a5/Tpo/3bH3/RCAdMBPfI7T8bIgn+68j7ZPLQCPWpoB4G1/57X293k8mkYAeFBeus9A1nPc7ZAAXxXuG4Zz/9VRVQByL8c6AFGIgHEL/ySKAK8DMGAKBCAR8unuT424/9+BDq8WmKpcT1q6BsCas/0D+6k0awE8VOD/fM7nE+bIKwtCAPwDWvY7VBUALhdWApTfLdG6dWuz0//N85WFf9ag51IDLxUIo3icl+4N82Mf9L0QgJO7ORZm+/8sIACeZUM2X5U/v8oCUFjSDt0AEscmcOu/cePGZgtAbg8IgF9pmBJTPzG6ABoKwIYe/uHP8vVImjX54+oC4P0FkAFQzwdUFoDcjgMhABIFwLhlfxPT/3y/3QgIgF8BwCDAhiB2r8Uf5e0lAbti/pFGACaWB5OKoFkd530YBKge/LlEKgtAzgDMBJA1DqCsrIyMXPY3UQIUXgVQ2S4AXpQH0wDjlYDNfYOD+vY0AhDbNMA0UxNjzAyoSeUIS6WyAGQPf4sYVLIgaPN5s7OzzU79swg0y6GsQc8iA+A3A8CvfyHiwWLc7ZCunLYtBLS8OKAANCe6GgsBee1uiBC1al5KZQHgsuVXdIcACO4GYKlq2rSp+QJQcqHS8Fc2A8AgjnIp4BktsRSwu2thSz9/C/84aXY+zm2dua+dF+V5N8KlgBXeHlhNKkdYKtUFILv/jRAAwQJgReufMwC974MApGtVZ3rukQ4BW6E+dpir3wyoc/rWv1NOWzYDqgwxCHOOx+l2k7AZEGcJIkStmpdSXQByRr1LxaXyp8PZ0h1QWlpqR99/287Kw1/pDIAD3aclLgrE8OcdB51rZTq+a8F2wPXL/oZonfveDljihk/YDlhN6LtLpb4AzKCcHiORBRCUBWjbtq35qX9u/Su8AyCD3/n3DL9McJT5PE/PE70z4MyW3rcBdur2lAWLAVVXhMu6TEmzCFCywXa3lRC9J1gCeADp3UWZuyKSlSfix9wstPK2FgIwajqVIAsQWoK49W/8vH+Gf9tOxwHrgFbVoxYCwADmMQEvFIYXgVktiJ4tJrqll/eWvyMAt/Uj2n5OvKPz3X31om9vG0g0J+RGPdcHGG0/pj3R5DyimSEyDzz+gDf94Z3/FO7zTxwcaCX03ZXWQwBmUE7f60MD0JY0f6p6WjHvn5f+7Xk3BMCBpugjTxF8sCMRj9rnJYNfLMj8zysL8ip/D3QiuinNjn9eylo92FwB8Lvpj3vwX/0AwJDb7l7ZgejWEiJeLpiX7n02O/P/UzlEvMgPz/O/KoB8RNzihwC46a/6OgCjZpBbUArKOkECAnYFWLHqH7f+i4doA3/OSmiTAfAC5yhe86ah4wDq+/5Dtv6nlWmRdk+EcJz3E3Bo3103YJW/PfRZ7A8QUACMX/Of4d+yiLIGPAUBiALEcV3jHkN3BQzb988ZgNv0a4HHCX++tn3ET6ix8tBPyAJk95+ILICejNv9AAAgAElEQVRPCbCi9d/kLMrq9Q+t4I8MQN9gGZDlhnUDcOt/bsj+97kh0/8xp+LjEoEEHNp3VzcB4PLmdjoHEuBDAlq1amX2yH/e0Kjz9drBHwIQUACmGjYboErA+vwvtEP6P4DE2Ef8hBrrKABc5rx2vSABHiSguLjYbPhz6r9iuJbwhwAEFICb+hKtN2Q2QNh5//WD/1oTjUb6P0gWIQGH9t3VVQCyR75L+eVdIAEZJKB58+ZmC0DZpdrCHwIQUAB4/MErhmQBKgUstPQqBv8FgT/GAGg2C+BkWZlOee37QgJSSEB+fr7B8G9MWe2v1Br+EIAQAnBLP6KNmo8F4DX/3w+5CM+81kTXoPUPAQiYvDgZqg2n3unwfO7ZF2DXwAQJMHrDn6YtKKvLRO3hDwEIIQCcBdB9LMCywnCr/nH6f6rPlf8C9JMHhasO7wuITXPepgPgvZQxe/DtVFyKrYOdRYCM3fCnVSll9XnQCPhDAEIKwI19iXSdEbChV3j488j/UWj9hxENc0gesCZe4KrLa7KHvYzBgeXlZOSGP02aHR3sN/AZY+APAQgpAJwFuF/T5YEX5YUTgDnNie4B/MPAn98bEJvmvE0XuPsq53n3UmFpe2vHBhg17a9xU8oqGEBZfR8xCvwMfwiAAAFgCXhdswGBa7uGgz+n/l8vxbQ/Ad0Z5pA8YE18gTVhUR7l3zv4DuLlg7k/3EmNm34sKioyY+Aft/iLBlNWn4eMBD8EQBD8WQC4K2DxIE32CBhMtKBtOAGYk4fUvwD4IwOg/SwAjwMWhz5DeV0uoqLSdsaLgNbT/po2o6ycrpTVaRxlDZhiNPghAAIFgCXgdk3WBljVKRz857UlCrLjnyBghk25q/b+gO1mc96mfCtedNZh2CuU0+dayuvQvz47UFxabkyGQJtpf5zWP6s1ZbUup6z8vpRVfhlldbuVsgzr33cgn+6IzYAEisB9/Yk2KTw1kBf9mdcquADMbUl0N/r9RUqEOSQPWBPrBCCNUOQOf4NyLp2q7X/2sFco+/LXUv43v/B5yuo3Od7/gU9b0bJPB333cxAAgQLAmYBH+hNtVXSVwMqyEPBvQfQwlvsVCX8+V0BsmvM2CIDHboQ04qBDDNuOfJcaD34e8D02+M4N4ThvQwAECwBLwBMKSsCmPkRzmgUTgDktiCa3x6A/Cd0Y5pA8YE10gBfKGF5Sml30CuCvGPxZPCAAEgSAJeAhxVYKDDrtb24roofQ8hfd8nfOFxCb5rwNcA0PV9Vj2OaKtwF/BeEPAUgB/xv7EN3bheixdkRPlR39f6QD0Z3d/AnTff2I1ikwJmBNl2At/7ltiO7s6K/lP76C6O5ioofyiR4qIPpHIdGNZUQjfZ5HQmvbga5KR3NIHrAmqsML5QsnKNmjZtCZ578IAYAA+IMnt6Kj/r+1F9GzxUTvtUgNzOmtiR6vIGJJ8FI+nh2wMMYpgtsGEfF6/Tx338//nHyi8R6hzasB3ldI9FbL1NfgmD6eRzQG2QS3gATEpjlvA2DDAVb1+LW89A3AX1H4IwPgkgxu4c9MA/5EeLII3N3VmwTwOgGvDyTaHsPgwOqK1FBOrBPf5/7+18uIRnmE/4Ty9OBPvAbH+M5if1kFg7MB5pA8YE1UBxjKF1xQskfwwL+pEAAIgDdQemlRy3jNMyX+IOlAbVZzogc6ea8bLxsc5d4B9QP/fOz2Ny+X6F4f0/xuKyGa6eP8Ttz4+Fg+ugUwC6BRIwA2OGBVj12zCzHwL84R/l6u7SmNLQO6qpzzueJg8HdgxhLgNRPAdeZswNT+EWwlPJhoUa63unEXwfMV/oDMLf+g8Hdi92SOv2samAkI2G42522qQwzlCyYoPPCvscItXy9wtOE1VgvAc0XeAOkAK9WRuwO8jglwxGdSX6KXBsgbJOhlxb95bYheKyca4zHd7wCY+/zfTtPfnypOyR5/ItdqCTCH5AFrAsAGA6zqcWt63gtI/WsgQNYKQNiWfyLMeGCgA3c/x5uOZQREdg1s7U80JwWgeS2AuXlEU9sRXdUpWF88D/hLrH+Y+xZnAgJi05y3qQ4ylM+/oLS45HXAXwP4c4YjELT8AE7F14pq+buh907r8LG8px/RGwOIqgeHGzC4LAHQvHUv9++/WUZ0s8/WvtPqdx9Ftf7d8bM0E2AOyQPWBID1D1iVY9Z2xDtY8U8T+FspAKJb/m6I+V0nIJ0c3dqX6Kn+RNMHHt1pcJ3HGQTrexDNzyaaU0j0TinRk+2JrhUAfUcAeJ6/u84ib1uYCQiITXPepjLM4ihb7vh5VPjIKiqeuomKX9lGJS9upqIn11L+pIWUc9V7FEeZkl7zyvco/7YlVPjEWip5aUt9WYunbqa2dy2mppe+plQGoPGQF6nlTXMo+6Eqyn12HeU+s5ayH6mmFuNnURPL1yiwKgMgE/4Mwoc7hM8CpJMCHjdwbz+iB/oRPdqf6MkBR//5Nj/GGYSxXYOl9R3AZzreLWjcRCpxmJwnt/yZ6hfx8+aQPGBNksJF83Xvg9Qp/85lVDa7ltqt+ZTarU3+X7H0CBU9voZyr54ZnwhcNZOKnlxHXJZU5eTHi97eSS2ufS9WEWARyZ+6gSpWfpS6rCs/qheCMy9TS1qiGoBojQA8WS6v5erAjK+RDuCynxvXQz48eXU/p76yjg8UyK9HxKB3L/7jvh0Qm+a8LQgsTXpP7tWzqHTaztSASiIDZQsOUt4N8yOXgLybF1L5wkO+ypr/3HpqHMOAwDZ3LaaKFR96Lmv5ig+p1a3zYxWWqKDvvk6swJINROf8PE1PFqzc532yLD4BmNCHaGTAQX1+YBiFAMxuTnRDuRUSYA7JA9bEJJj7rUvuNbOpbM5+z5Byt7grVnxE+bcsikwC8m9fQhXV3oHqLmvxzD3UOMJUe86jKwLFlMvM3QRuQJp+2woBeCM7GgHgvQMc6Yj6eLXk1L8jCby2v1t6ZN1+pQ0EICBTtXqbX2ga8/orZ1DpjD2BQcWwKq/8kPImzJMuATwuISj8HREofGNbJIMDW9+1KFRMubytb19gjQTEBqyoAHlPRK1/BuE9XeIRgGsjSP07AsAb+8iCfuJ5J5qfBdAK1jIKawzQfY5bKJy8NjSoGFYsEVJjeOUMKnt/n5CytrpjoVSwnjn8zfT9/Um6UxxBcR9ZdppeYscqhsYLwNOl0QCL17jnVf6iEhvnOhM59d85utYy7+qXbrOkRIiHuf9IfnT1cgQn4qMMpmp1Tqnw8gnlyMoyeiZVLP9ACFQZXAV3L5cmAXxuNxzD3C5fdkTqeAAe8BemfO735j2/XqqsqNK1EDmwHHBFdXw9JxoB4P0EoqqT+zqju0QPSR6pHwbsXt/7kvndAFrBWkZhI4OuQjLA0/zcsAl7u/StGmkCUPZeuG6KxLq1vHmOFLA2ueQVqlj1sbC48qDAOAYvRi0GsUDLDTDZt3mZXq/ACfo6XhP/lp7RCAAvOczdGo+1J5pcQsSD8u4pIuJ0+UgfG/mEaenylr5h9wHwEuu3WkUvN2HiEuC9Mpiq1TltFABRKfXjcF31EeWMFj81MPf6udRuzSfCoMrlLXh5sxQBaPOPpULLyWVtecP7UsoaNeTTXc94AXi3lXwBkD3/nyXp5t5E3J2Rrj7TWxBx2vyq9vLBeUfITZQgAPWfkVawllFY2wSAB+2lm+t/HOoe+6ud1+fduEB4FqBoyjrhUC2ZUysFqsWz9wova9uHKqWUNR2Qo37OeAF4q61cAYgi9X9/J6L3Uqztnwyk77YguqVUvgQ8Lrkr4PXW8usQoNXunscf9rYMpmp1TtsEoPgZcf3UDvz5WHDXMuECUL7woHColld9IByqZ418S3g5OaZ5z60TXtaoAZ/pesYLwIsSF67hlQVld2E83o6I58UnA326x/g9PGVPJuB4QOBkj1sOpytrqueezpFbfpmx8XhurWAto7C2CUD5In8L6bghn+52/p1LhQoALz2c7npBnytfXiccqjmTxY6pcOqW+/Qa4WXNBOSon5cOMNmAzHT+R9r7h2cqILkf5w2FMl077PMPdgoGf6ecs5sR3V4sF6L1EiApE3Cn5LJ7hLRMiZLBVK3OaZMA5N+2WApUGVj5N4ntAuA9CBwQijyWztsvFqrnPE9lSw5LKSsvKBQ1kKO+nnSIhYVg2Pdz37noaWtRtPx5UCFPLXRgHvT4XnOiMZLHBMjIBPBnFsVYhpglQCtYyyisTQJQ8spWKaBqt1LwIMAr36OKSnHTFN0Ckf/iJqFQbX7dTDkxXfsptZiIQYBGCMIUgYvXRAF/lh6RWxZHscGOaAl42Pw1ADizIIOpWp3TGgHguf/VaTal8Tnozw3V0nd3C03/i5z77y4n3xa93n7+CxulCABPKeRdBKNukUd9PSMAnylLwFPnRAwGjCLtz3XhrIWI1r+TNeApe1dGMEVQVHfAG62IRkVQ3phb/xCARo0a2SIAhfdVSgEVQ7XgoZVCBcDv5kSJkE91n6Ha5MKXhEGV9xfg+fqprhfm8YLXtworZ9RQ93M9KwSAoXp7D6LpIaYEPhvhQj8PdA6f+nfg7xxvLZE7FsCBaVgJeKcl0biKaMrqlDnGo1atdRmFtUUASt/eJQVU7VZ9RLljZokTgDGzic8ZBp6p3lvwyhahUOVsQqprhX1c1oJFfuAcxWutEQBHAvxmAngg3eMV8gf8ubMYIrssHAHgBYOiBN19hUQcO+f6Xo6vt7IK/sgAWJIB4F3/2glcpc4Nt5I3d4qD/6gZVPiwnBH1XGbRfepFb+2QIgAVVR9YsQogC4ZVAsCQvakP0VNl3layey2XiLcSdsM5ittTi/yB0wtcn4xhSt3EMqKXPKzDwAMVWVCi6KaIUoI8XEtGo1qrc9qQASh8bI0UUDFU8wXvA1A6q1ZKWcsrP6DG504VlgFoOvRVarda7CqFjljlPWfHPgBWCoADcO5nf7Q90QsFRNPaHu0eeLsNEUOfBSEO8Dtlk7F2wbPZ0WYA3PDjZYp5hUJe2//NVkSc5ufWPs/zv7vYSvA72RitYC2jsDYIQNmc/VKgyiP1c658T1gGQMbSv8ehOkXsnPq29y+TElMub/OxM4SJShRp/DDXiLx160AOx9SZBdMEwC0DuN1AxGQwVatzmi4AeePnSgNVyQubhcGfP4eiJ8VsUexA331sNvodoVAtnil+6V8ub+mig5Q1+DmhZQ0DaNnvhQDEsIVvJvmBADSApNNaNvGoFaxlFNZ0ASh6VF6fuujFf0Tv/OcIQOl8sYv/NLnoZSn7KXB5bVj8xy0VEAAFBeB5CcvrxtkFgFZ/SqGRwVStzmm6ABS/tEVKBqBswUGhrX/+HGQt/iN6Ux1O0TtyIfp45vA3rWn9swhAABQTgLE9iBjWXgb2+XkNBCAlhOPMLGgFaxmFNV0AeJS+aEjx+YqeXCdcAERv/Vtf7zWfUtNhrwuFassb35cS0+L39ggtp7ulreptCIBCAnB9L6KRnSAAFmUMZDBVq3MaLwCvbxcPqzWfUN71c4QKQPaI6VSxUvz8/6LpNcKh2nLCbPExXfsptb5nifCyqgp+p1wQAEUEYEIfolGdjrZSkQFQsrUuI1OgFaxlFNZ0ASh+VvxStdxXLzJu2SNn0Jnnv0S8UY/obEXrOxYJh2qzK98WXs6K1R9T04tfFl5WB7SqHiEAigjAVWefgB4E4EQsDM8GyGCqVucUCTIVz1Vwj/glgAsfXCFUAJpd+Eo9+ISvq7/yI2pygfj19Hk9AdFLABdasvRvoohAABQQgKu7NgQeBKBhPAyWAK1gLaOwKkJbaJlGz6KKFeJS6xXVH1Lu1eKW/m1xyYn++ZY3iO1bL3h5s7QWNZ9bZLaC654IRxvuQwBiFoBx3U+G3VMSZgHwOQ0Gqa51k8FUrc4pFLajZghtGYsqG8/XFwWr4qni5v63HjatIfQGP09lCw8KK+tZguf+u4HcfMx0YeUsXXCAss55vmEsBtmxFgAEIEYBuI4H/XU8GcwPF4ifBcDnhAAoFwOtYC2jsKIgq/J5eC+A8srwu9ZVLP+A+Fwi6tp2+DvUOAn0RI2wz3tho3Sg5gvKArScaGfrn4UKAhCTAEzofWLQXyKYby8WLwC3R7QbYGJdcD+tdMhgqlbnFAEzHc7Ba/aHWbu+YvUnVHDXMiHwzx45nZqc+0JKQOc9ty5U65oX/hG57a+75e++3eSil0JnLHKfXpsyDu5rmXobAhCDALhH/CcD5FXtiWY1FycBs5oRXdUhLYiQHUiSiUn22Qh+TCtYyyisDvAWVUYevBdorv3qj6nwgWoh8M8Z+S41Pf+ltNBrfM5UCtq65nS66Hn/6eB75uVvUOmiQ4GEJf/FTdam/p2YQgBiEIArXSP+UwGFN8rxs9BPutdOiWEnwFT1wuMNREwGU7U6pyi46nKe/NuXUPmSI56BVb74MOXftkQI/LNHzaAzhxwd8e8AIOVx8HPU9sHl1M7H2gA8kp5b5SnPKalfnafvFbyxzXNMeb0D3kzIpjX/U30mEICIBWB0lwYASNnyHtuOiFvu6cDu5TnOJPC5AF4lY6AVrGUUVhdwCy3n6FlU+MRaqlicuuVavugQFU5eSzmjZwqBP5e/+UWv+oYzt7DznllH5VUfJAVsxZpPqPDN7dTi+pm+z50KSkEfbzF+FhW9vSNlVwvXIW/KGjrzshMzH4Jey5T3QQAiFIAxCdP9MkGZt8r1Avl0r7mnSEnwQUiOdjnIYKpW5xQKVkVnAaSrY97E+VRwf3U97IseX0MF91dR7vh5wqDvXLvF0DdCAZrn3vPI+9a3L6hvPfMCPy2un0VNLoi+xZ8JvpyFYBloc/diavOPpdTq1vlUPyNhsJ0j/dPFCwIQkQDwGv+ZgJ/s+Ufzg0sAvzfZOfGYMnHRCtYyCusACkd5UxhbXTaNGktKv6eDC55TfyohBCACAbguIPwdUHMr3k93AKf970bLXwf5kcFUrc4J8MsDP8e29eVvUxZavqGyHyaLDARAsgDwXH8H5GGO49oR8WC+dCLAz/Fr0OcvJuZhPi+P79UK1jIKCwGQJwBteK7/4KmAH7IfKb8DEACJAjD+2O5+HmHgSRR4iiCvE/BwPtFTOUf/eZEfnuePqX7agN/5rGUwVatzQgDkCMDRhX4Af5Nb7yLqBgGQJACZ5vqLlAKcSzvwQwCOaQoEQLwAtB0xnZqck3qhHxHgwDnU79/38hlBACQIwETe2reztlBy4ISj/MWBtGqtyygsBECsAPAqf03PA/y9wA+vwVLAwgWovuUP+EMevMmDDKZqdU4IgEABqF/lT/z2uwClGa39ZJ+jcADeIKFFrcs5ueV/FeAP+HuDP8dJK1jLKCwEQJQAvEtnng/4J4McHkstMBAAQcIysS/RVR6W+EV/PbpGXN8BGUzV6pwQgPACUL/E7wUvpxzpDQCmBqDtsYEACBAAbvl7XeLX9eOPlrL3lrKpsdIK1jIKCwEIJwDZI2fQWUPUW43PdrDqUn8IgAABuNrj+v6AP1r/Cd8BGUzV6pwQgOACUA9/tPyR+QixzgEEIKQAoOUPqCdA3U+2QitYyygsBCCYADD8zxyCtL8uLW1VywkBCCEAaPkD/iHgj0GAjRo1ggAEEYB3Af8QrV5VYRxHuSAAAQSAB/yh5Q/4h4Q/BAAC4HvXP6T9MaBPpChAAAIIAFr+gL8A+EMAIAC+BAAD/gB/kfDnc0EA/AgAz/PHgD8/fdx4bfqZDjK61bU6J7oAvHUBZI/ktD9G+4sGoO3ngwB4FID6tD/m+QPo6YHuNz5awVpGYSEAmQUgewQW+bEd1LLqDwHwIAC8vO+VgL9fuOH1mWVBBlO1OicEIL0AtB35LjU5Dyv8yQKg7eeFAGQQAIY/VvhDn7+gPv9EKdIK1jIKCwFILQDZvKsf4I95/hJnPEAA0ggANvYB+CWB3xEBGUzV6pwQgOQC0Hb4O9Tk3KmAn0T42d765/pDAFIIwITeRFd2AgAlA9ABoa1HrWAto7AQgJMFoM0Vb1OTwc8D/oC/9O8ABCCJAIzvRTQK8LcVylHWWwZTtTonBKChALQe9hZlAf7SwYfW/9EplRCABAG4rifRSMA/SgjafC2tYC2jsBCAEwLQ6tI3KWsQWv6Ac3TrHUAAXAJwbQ+ikZlHbtsMLNRd7PdDBlO1OicE4KgAtBz6Olq9SPlH/h2AABwTgLHdAX/090c+5kMrWMsoLARgBjW78NXIf/jRyo6ula1yrK0XAF7g55qukf/woyUttiWtazxlMFWrc9osALy631nYzhfyE2Pmw3oBwKY+kJ8YMx9awVpGYW0VgLYjplPT814A/GKEn8ot86jKZq0ATOTV/ToDfjHCT9dWu8hyy2CqVue0UQB4ml/jczDHPyrI4TqpuzusFIDxvTHND+BXQv60grWMwtomAK0um0aNB6f+QQasEJsovwPWCcC1PYlGYJqfyFYszhV8PIMMpmp1TpsEoMUlryHlj5S/Ut8BawSgfrBfN4z0R8tfiZa/I01awVpGYW0QAAz2Q6s+yla9n2tZIwCjMdLfgQ6OwVvsomMng6landN0Aahf0x8b+ijV6vUDSNNfa7wAYEMfpVq8ogGq+/m0grWMwposALysb+PBGOxnOkR1rp/RAoBlfQF/xbs8ZDBVq3OaKgAthr5OjdHfjZa/4t8BIwWA+/vHdQf8FIef7q13EeXXCtYyCmuaAHB//5lDXgH4FAefzq12kWU3UgCwuA/kRxP5kcFUrc5pkgC0ueIdanIuFvcRCSicS+4ASqMEYEJvLO6jCfhEtJ5NOIdWsJZRWFMEgHfyw/x+ubCCDIiPrzECMK4H5vcD/tplPmQwVatz6i4AnPJvhvX80eWhaZeHEQIwBlP8TGgN21gHrWAto7A6C0Cb4Uj5o1UuvlUeZUy1FgBe0hfr+WvX6rUR9KnqLIOpWp1TVwFAyl9v8EUJWZWvpa0AIOUP8BvQ5aEVrGUU9pZ9RPhHDOL6DrRb+ynZ/N+4OpfwjxjE9R34+txuZPO/DKZqdc64fvhxXUjHpFqyGv4sPnH98OO6kI6s6lyr4c/ioxWsZRQWIAaI4/oO3LwPAgAQA8RxfQf+Xp0HAZABVZ3OGdePP64L8bgJGQBkANAFEtt34G9VEACdWC2lrAAxQBzXd+DGvV+iCwAAjA2AcbW8Vbnu36rykQGQQlWNThrXjz+uC/G4oRYCoAoMUA77uiLOgABgDABADBDH9R2YiAwAWr/IgMT2HTijEhkAjdrqcooa148/rgvxmAABiO3HHy1++1r8iZ/5X5EBQAYAIAaI4/oOjIcAQACQAYjtO/AXZAAgAHH9+OO6EI/r9mAMQGKrDPfRMo/qO/CnygIMApSTWNfnrAAxQBzXd2Ds7i8wCwAt4NhawFGBVtXr/GF5EQRAH1TLKWlcP/64LsTj6l0QAFXhgHKZn4n4/fJiCIAcrOpzVoAYII7rO3BlDQQAoDUftKp+xr9ZVgIB0AfVckoa148/rgvxGLHzc3QBoAsAXQAxfQd+DQHAIECAGCCO6ztwxQ4IgKqtQ5TL/MzE/ywtRQZATrtan7PG9eOP60I8LoMAoPUbU+sXgpNLv1paBgHQB9VySgoQA8RxfQeGbv8MXQAAICQopu/Az5eUQwDkYFWfs8b144/rQjwu2AYBQEvU/FS7qp/xTxZXQAD0QbWckgLEAHFc34FztvwbGYCYWn+qQgnlik6IfrSoPQRADlb1OWtcP/64LsRjwOZ/QQAgAOgCiOk78IOFHSAA+qBaTkkBYoA4ru9A740QALR4o2vxItYNY/3dBZ0gAHKwqs9Z4/rxx3UhHt03/BMZgJhaf4BhQxjaGI//mn82BEAfVMspKUAMEMf1Hei8DgJgI3hQZzXk47R5XSAAcrCqz1nj+vHHde0Wj0n7iNqv+xQZAGQAMAYgpu/AKXO7QQD0QbWckgLEdoM4rs//xr3YCrjd2k8Bv5jgZ3sW4m9V+dbD/+tzu2Ep4LgAgOvaLR7X7YEAQADUSIXbKAN/riyAAEAAGjUCiO0GcVyf/2hsBVzf/WEjfFDn+MXnd8uKIAAQAAhAXAC0/brDsRMgBADp/9i6gE5fiq2A0QXQCAJgO4jjqv8l2AcAAgABiE0AsA/A0QGQckbWaXTWuACA69rd9TBkK5YBxhiA+FPhtnZH/HhxO3QBoAsAGQCISDwiMnAzBAACAAGIS0B+uLAjBAACAAGAAMQjAFgG+OgaCHEBANe1Wz6+s6AzBAACAAGAAMQjAF2xDDDGAGAMQGxjAL45H6sAYhAgBgESBCB6AZhUi1UAOf2PLgC7W+FxZWGyqnMJqwBiEGD9UEUAMHoA2h7z8VgFsB7+EAAIQBwS8BcsAnS8+0Oj8fpyimo7jFD/6AUIiwCd2AMhDgDgmnaLx++WFx8HIKfBbf6XQ1WNzgoARg9A22M+DIsAIQOA/v/Y+v9/tbTMaui7hUcjVMspqu0w0q3+4/d8Qb03fkwFq45Q08qD9f98u8/Gj4mf06E+F2797DgAnb5wW49ojavfGm+2opA6re1Hl266im7dfi89sPNxmrJrKr205w16dc80z//P736ZJtc8Q/fvfIxu3X4Pjd96C12+eQx1WzeIWqwsiUwIfoo1AI4LkByqanRWHYCBMhJdteszyqo8QF+bvZP+Y+aOpP/8XOPlB+pfq3LMsAYAugBUFp8m1XnUZ90QumvHgzRn3wI6UHeQPvjgA6n/dR/U0cZDm+m92vfpkZqn6OKNo6jNynIpUvDDhR2OA9DdGrbxtkaollNUlUGBsh3tnui07sO04E8Ugq/P2klnr/tQ2WxAz43/QgYAswCkwC2MWFSs7kl3b3+QNhzaJBX2XmXiSN0RWrJ/eX3G4NwNl1HTFflCYvbt+VgDwJEdOVTV6KyArNpjALJXHk7a2k+EfrL7OSsPKykBndadaPLhMZoAACAASURBVAHbmvp36h0GWHivmO6Ds9f2pxd2v0qH6w4rAf5UgrD10HZ6rOZp6r/+wlAicOrcrsgAHBv8qBGq5RQVAqCuAHDLPxnY/TzWeb1amYCJmALYIPsBiIuBeJA4Fq3uQq/sfpM4/Z4Kuqo+XnlgBU3Yeiu1XOFv7MAZVfmAv2vmgxyqanRWCICaAsB9/pzK9wP7ZK/lcQFX1nymTCbg6l1fNACg0xK29RgEXHhPOGngVPqN2+6g2rpa7cCfKCQ7DtfQ7dvv8zxe4PfLiyAAEIAThgIBUFMAeMBfMqAHeazx8oPKCMCwHZ9DAI71/7P0AObhYO43foWrO9Ps2nnagz9RBPYc2Uv37niYsle2S/ud+tUSTAF0+v/5eIKElt6CAKgnADydL91of78SwJkEVaYIno9tgBsIkF+A4fXBhWHwhqG0/fAO4+DvlgHOCFy1eTzxTIZk3xVsA9xw4SNLsX+i2hAA9QSA5/T7hXym1/fd9LESWYC+mzADwN3dkexHGo8Fh3yq2A3deCUdqDtgNPzdIjBv3yLqunbgSRLw3QWd0AWALgAIgMrik7fqiHAB4MWCVKjz2ev/2aAF7IahjbdTAQuPi5OAa7feTEc0HOjnBnqQ2zyrgRctOmtF4XEROG0edgFEF8AJ/jdSAQooQ8MsxJmVB4ULwJlV8Y8DuKH2S8Df1f+PMQDiIJ9KmEZsGmsl/N3CsPRAJZWv7kGYAdAw/Y8xANgOWGqrePSuz6j7ho+oeHUdZa84TKWr6+qX8R2XYcneM5aJGwDodA3wOVOJ1qR9RJdu/xcVraojHjD4uyX76M9L91Pz6kPU8//vjrg2Q3lTnTfx8TGYAXCSAKUCFx4PLwe8eM7BukPWpP3d0E+8vfdILV24YRzS/670PwQAApASionw8nqfYdp/8yf084V7U7bivzJzB/3vkn10wbZ/Jr1+VAJQX9ZNn9CP5u9JWVYWiK/O2kHNqg/RmF2fJy2v19hcjk2AIAARbQLUbk0vI6b5JYI8zH1e7+CGzS/QN+Z2hwgcEwFXMtzOm15/vPG6hmn6ZPHgljKD3Wl1ezlyi5tT4+7zRSEAE/Z+SX9att9XWU+dvZMGbvqkQVnd5c50+1zMAIAARCAAzVcU0bIDVWj5p9i/4Omds+lb83tDAjANsBHGAOzLDPZMYOPnebGdH8zd7QuojiBwtmDc7hOta9kCwNf62YL0rX6nbIlHzl50CbjPQC/sAQABiEAAHquZAvingL+TQXht10L63vx+1kuAnc1+V629wA2vSS8J3Jr+SYY0eiJIE+9zGv6aYxIgUwAY/mHLyl0CQ7Z86isTMKmWqEPCADgbR/0n1hl9/eH7+t0x7L52MPEmOg7ocEy9i+H7tSvpJwsHWy0BLhTaeRNwTw93L/FpKmjUPoOZAS1LAETA3xGX78/bRTcmdF2ki9W43VgCOBH+mAUgFv5Nq/No4f6lgH+G1r9bihbtW0v/vWCAtRJgJ/VdtU73o43nMsvBFTv/TZwWd8AY9siZgD8u9dc37+Waf1qyP3TLP/E67dd+4DkLcAWWAD4p/Q8BECsAwzeNBfx9wN8RgWm7l1o7JsCFQjtvAvKZIZ8uRi2qDgmDvwPY096vof+YuV3gebfTabP5nOJEhc/10/l7PAsAlgBOvgWyO32N28GFgJe+rTqwEgIQQABYBJ6rmUOnzetpXSbATuq7ap0ObnguvRzwNLrvzt0lHKxiQS1SJE4WiNE1JwYvpvu+9MYAQGQAJA4AvHjjKMA/IPydTMCdW1+HALjYaMXNdD/aeC69AIzd/bnV8GdROcfDYEAeANhxXfIWcLJ+cZseQ6s/eKvfHbsZtbMhACEFgEVgwJq7rZIAKyCfrpKAfHrIp4vPZTv+pbAAyG35O1mKbus/ytgNMBYDAJO2/jEGQAz8eYvfKEf+76vbX9/d8G7tLHp1zzTP//z6OfsW1K9RwLv2OS1vlY61dQfor0uHWSMB6dhoxXPpAIfn0ssBL5/rgFCtYzTw5zr32JBZAC7DAEAIgMT0/03b7owEptP2vksXbRxJLVaWHN9cx52F8Hs7e2U76rPufLp+6y302p63aKciUrB0/3r6zvw+VkiAFZBPV0lAPj3k08Xn6l0qdgFEB38WAC/rAQze8u+UALQp3Z+srn6hgdefnDWYVTtXqgCsPbie+q2/QAj0031+PI2xz7oh9ETNs7TryG6pdcqUdXhw+9sQgHTgNOW5dIDDc+nl4OZaov+qH7F/8uA4eRmBdIBP95z4MvKCQF42Cuq6AVsAJ4M/ugBOhnk6QCZ7rvmKYjpQd0AaLFkuuKWe7NoyH2u2opBGbb6OVh5YLa1umSSguPp64yXAFI4Hrgcgnx7ymeKTVSl+575g8hAt/LmMv15cm7H/f+JebAGcCv4QgPACMHjDUGmArDxQTa1WlEYOf7dYcFbgsk2jac3BddLqmUoEqg9sMn59gMDgNOWNmQCH59MLwoXb/qnAOIDo4c8C0GfjxxkFYFTN50j/p1kC2f1jj9v+heDGbXdIAeP+I/upbHX3WOHv/j7wBkd3bL+PuFypgC3j8dEbnzI6C2AKxwPXA4BPD3gv8fntYn87AAZr4SdL4TP444H/LxftJV4HIVN8Ltj2GQQAAiANpFN2TZUCxPt3PiatzG6w+73dbnWvSHc63HfkIP1m8UXGSkBgcJryxkw/4Hg+M+R4MZxvRT4WgIUgHvj/55waGrnzs4zw5+8OdgBMv/6BXwDg9Q2zBDytTnTLl6cU5q3qoKQA8OfP2YDJNc8Ir3eqOD61cxYEwBTgJ9YDgM8MeC8xGrL1n/T1WTsj7A6IB/5cR66rl5jcVEvUPk3rN13fuC3PAegNge43HusObRAOwrn7FigLf3d8rt16cyTrHxz5oI7+svQyIyUgkYfW3ffyQ47XeJOEc7d8GpEExAP/r83eSYM2f+IJ/vydubIGOwBmEhn3Dzpu+5eB7Yd3CBeAe3c8rIUA8PeFBwgeqDsoPAaJ2YBHdkyHAJhoB4C7N7h7jZN8CdAD/hyvIej/zzj+AdD3D313zPZLmAJ43dZJ2ggAx4IXJzpcd1iqBByuO0K/XXyxcRJgItN91ckr2PA676IgTwL0gT9/X3pg/j8EQOIKgAw/GUsAj9x8rVYCwHEYvXkC1X1QJ1UC7t32JgTAF101eDHA7h3sfmIlXgL0gv8NtZj/nyn9z8+7W7O47T8bsOfIXuHQ46WFdfws7t7+kPBYuLsCao8coB/M72+UBGiAaLlF9AM1vNafLIiTAL3gz9+TkZj/n7H1DwHwD/xEMG85tFU49CbvekZLAWi6Ip9m184THg+3BJi2W6BcumpwdkDdH9T9xiu8BMQH/4E+BvwlxuV8rP8PAZCc/mcZkLFULs8sSBQNXe7zzojbD++UJgHTdi9FBkADrnsuYuIPN+6LF4JzIpsdkGyxIP+P8VQ/LnOY70LX9Vj/H10A4Vv4mcD79t73pMCux9pztJUAHsPgbrWLvM3jDE5fdIExEuAZlKa+MMyPPN7rXRZ0kQAR8L9uD/r/vcAfXQDhBeGhnU9Igd2M2ve1FYC/VBYSt9RFgt99rpEbnoAAmCIEgLh3iIeNleoSIAL+HKPLtmP5XwhAeLhnav3z89dsuUEa6C7fNEZLCfjlkjI6Y+kw4gV83OAWdXvG3ioIAAQgOnCGBa9K7w8/JsB/St/L3gO8yE+YPn93jPtt+pen/m+vkDT5dV4gh9eklolOa/tJgRzDcl/dfuq2dpB2EvC9hR3rAc1L+IqCvvs8B+sO0/fm9zNCAkzheOB6uH+4cTsaqVEtEyCq5c/fH17+twOW//UsQIB7arh7iU2T6jzadni7FNAx9GrraunCjSO0kYC/V+XRKfO61cM5a9kV0tYGKK6+HgIQmLoKvRHQjwb6iXFWRQJEwp/riOV/02/+k5jN8AI5vCa9JLy85w1pAsASwIsNPV7zjNIbBDnfkd8sK2kA5mm7l0iJzcTNUxtc5+tzj0qHbkeFUBxPURLBZNr9q3Z9RoM3f0LdNnxE3Td8ROdt/ZTG7f481Ah3UTGKuztAZNrfiUnQ6X9Fqz6m5lV1lLX8MP19+WFqVnWE8ld95LklnQhWXe47P9w4pod8uvjwevjuFLWs25wNeHH3azRs09XUaU1farWiVLnMwI8XtWsA5n6r75ISm7m1qxpcRzfwO+WNh7oKXdX54TbpeGPtl9R+7Qf00/l7ku7O99VZO+j0RbXUe+PHnva0lxmbuDIBolv+Toy6+Jz+13j5EfrhvD30lZnJxzZ8Z85u+vOyQ1S+5hMjZSAd2PCcNyng7XF3HdktBXQiZYI3Llq+v7o+m3DOhkuJuy9Ef8bfnHd2AzB/f34/qpWwXwKPA/jmvJ4NruVAVaejQiiOpyjOD7cpxyFbPqXvzd2VFPzJBsP9YuFeGuFxb3tZMYpaAmTBf+xu77v/5a78iL43d7fnz+mb79dQy+oPjJMA0QCw9XxP1DynvAAkysTi/ctowPqLhUnAH5cXJgXyszXvS4nNH5YMTXo9CEA8LA90VVlQi+O8XdZ9SNy6Twb6dI8xXFgc4iizc82ougNkpP2dOlzscfe/llV1dMqsnb4/p6/O3El/W37YKAmwFdii691hTR9p094SwS3yPi+sc9f2B4RIwP9dUpEUyBeue1CKAFSsmJj0ehCAQCiO503Oj7fuR25FB4G/IwYyweg1trIzAbJa/k79um/MvPof9/N/NQD8nc+JuwrOqjxijASIBqHN53t19zQpoBMJ/FTnunfHw6El4FvzG6b/HRD/dekwKXG5bP2jEIB4sC3uqs6Pt87HMbs+p1Nn+29ROlBxjrIB6SXG9SJT3x8udg8ABief20sZgrzmeg+r/4WF//HPaXYNFa762AgJsBnYouvede1AKdsDp4K2yMc5E3D55uALD/25siAljE+Z251qjtQKl4B/bJuW8pqOfKh+FEdSTc8U5MdetfecVXXQdzrZgUniUYVMwK8X1Qqrj1M/HvQo83MbmmH1P1Hwd+rzq0X7IQARbLYjGtKyz/dEzbPCQScS9OnOtfXQdmq5oiRQJuDnS8rTwnh27QrhcXlt18K011Qd/lw+TbEtrtgyoRDFua/d80Wo1L8DFPcx7kzAGcsOCBcAPqfMz6PnxtSr/4mGP39WPB6geLX+MwNkA9G287ddWUE82j4daFV+7uZtdwUSgG8v6JQWxg9tf0d4TGbVrkh7TQiAOE5LO5NMKERx7p4bPxIOSwZMnJkA3QRgwh6edpl8ARwZ8HdkjacQ6jLfP1U5bQN0FPWNal0AGSKx9EClbwH4a2V+RhCP3viUcAFYun99xuuqLgHSwKrLiaOAtMxrNK8+JEUAGDJxZQJ0E4BUm//IhD9/Pv9jQDdAFEC08RqTa54RDjwZwE88J48FyF/V0ZcE/DJD+p8hfPG6h4THY93B7RAAXUCfqpwy4RzFuf+0bL80AYgrE6CbAPRKkv6XDX/+bH4yfy8yABgHkBSWvDgQt6YTAavD/V7rzktap1Qi9535nTOCeOCau4XHggcWqt7Cz1S+VFy05vEoIC3zGr9dvE+qAMSRCdBJAMbvPTn9HwX8+XP573kQgFRQwOO5lL+qE607tEE4+GRLxEUbR3oWgL+kGf3vhl+3VbcKj8OhusMQAN1NQSacozh34+XiZgAwVFL9RzkmQCcBSFz8Jyr48+f0i4X7kAFABiAtLCtW95S6W6AMGRjoY3XAn6VY/McNf77dd/WdwgVg75EDEAAIQDy76TlyUbSqLiW0U8E86ONRjQnQSQDci/9ECX/+DP+w5CAEAAKQVgA4E8KrBG48tFk4AGXAn8/J0uI1g5Nq8Z9EARiy9n7h9d90cCcEAAIQrwBcuv1fkQkAQyeKTIAuAjDOtfZ/1PDnz6LtSv13C/T6Q4/XedsYKFWcilafTVUHVgqHoGgJ2HJoq+dNgv64vMgzgEdsmCy87lX7N3m+fqKQqHJfd36HLr/Tktb1OGkf0Y9S7PoXtKWf6X2yMwG6CMAFx9b+jwP+356zW/vWP08NTAUsPB4O+Mni13plGb2y+03hIBQpAbyQUbKyJ3vsJwlb/6aD6u1bXxVebxO2BA4NUN1PoCv43eXuv+mTSLMAsjMBuggAb/0bB/w5/qbsB5Dshx2PiYe/O6bXbr2Z9h/ZLxyIYUXgUN0hare6l2cB+Oa8Lp5b4G/sXiy8vtN2L/V8/XRyEudzuvM7dPndINX59p+Xyp0OmCwrICsToIMAjN71RWzw/8kC/Uf/OwsDucGE23LB745v+eoe9M7emcKhGEYCHql5yjP8f7es2Bd81x/cLryuk3e856sMcYI+1bVDA1T3E+gMfXfZJ+z9kn62YE/kmQAZEqCDABSv5q2Xw2/AlEys0j323Tm7qGyN/ksAQwCig70b/Im3L9k4SomxAfP2LaJmKwo9C8B/L+zgGb4/XXgO8QJDYeQk2XvHbJziuQypABz347rzO3T53RDV/fa4PV/QTyMeD8CwEj0wUHUBGLTpE/paDPD/1pzdVLjajF0AIQBqCAALQZPqPGIRWLh/qXBIJgNn4mMM/9xVHTzD/4yqPPrGvK6e4dtt1S1S6tVj1W2eyxA36FNdPzRAdT+B7tBPLL8JEqCyAJy75dP6JZLTtdJlPGci/DEIUB0JcDIDndb0pft2PEobD22SAk03/LnPn9P+flr+XM5fLS3zBd57tskZ+Nh02Qhf5UgF4Tgf153focufCFAT7usuAaoKAOCffMMjpzUf5OiAB0f1ZKDdml40butN9PKeN6jywAo6UHdAiBTwVD8e7e9nwJ/7+/FtD0v/OlD9xtzuxGv2u8VDxG3uUvje/H4QgNAEjvkEugF//J4vqPfGj6lg1RFqWnmQGJbJ/v+09ACdNrsm8jEBX5m1k05fVJu0TMnKmeyx787ZLbzcfM5k1/L62K8X1dJX06yUKKPVz+f8+qwa+tH8vfTTBbVJ/3k1wN8uOUBNKo9QiYbdA+4fdtxWTwLcn0nT6jwqW92deqw9h87ZcGl9t8Hlm8aQ1/8B6y+qhz53ObjP6+f2H5YX+oJuXtU44fBngVhzcJuvcjhCotoxZvzGf3ldBOCqXZ9RVuWB+v52WbDBeVMvhaxDbHhQ4s8W1lL+Kn0WCPLz44/Xqi0IUXw+P/Yx959h+8D2t6UIAJ9XNZgHKU/8BI65BDoIQKd1HwL8MbS+dYB+sjKyCJyx7JAWCwVFAQ1cwwxx+Ht1Lp3qY+7/jxcOIl6vX0TKP/EcfVbfAQGImd1CLq+6AGSvPCwgHb49xDnCvFfvFnUyuPp7LEzswrz3aNx/s3i/8hIAOJsB5yg+x18tLfUF3bGbnpYCf5aB/1k0xFdZgrTOo3iPEIjqfBKVBYBb/v6Akw64QYAS5D3pyoDnvH2e4uKueiYgCnDgGmZIxrcXdPYM3R8u6E81R2qlCIAJewA4cqEzu4WUXVUB4D5/XmTHGzBkgFUchOrr8J6MMko6p/CyCo6lj+4Q7g7IU3jTIMDZDDjL/hx/73Pw301bXpQCf27937blVc8i4oBW1aMQiOp8ElUFgAf8GQN/H8CKr86SZEKBuv98wT5luwJkgwPnN0Mw/ntRe8/Q/evSYXSw7rA0AWhVOdpzWVQFv1MundktpOwqCgBP9ePV9eTBMF2LNN1z5kJSXqzdMUsX23TPuc/h/zZnAUoVnSIIQJsBaJmf4xmV+XTK3G6eoHvqvB707t5KafBfeWALnTK3u6eyOJBV+SgEojqfREUB6LPxY4nwdwCSDDjJHnNej6M8SZAf96aVR5TMAsgEB85thlz8bEm5Z+Bes1HewD9O/4/e+JTnsqgMfqdsOrNbSNlVFIC8VUciEIBEoMuHkDyAJtYF9xNjzYsFBVmpT/Z7AGkzIC3rc8yqzqVvzjvbE3RzqsbS4boj0lr/LAC/X3KJp7I4gFX9KASiOp9ERQE4s/JghALA4Af8E4EZzf3o4v6LRWqOA5AFDpzXDLH49bIST8D905JLadvhPVLh/9aepZ7Kojr03eXTmd1Cyq6kAFRFLQBoMUcD/MQ4RycAv1wIAYAU6CcF35nfKSN0f77ovPqlebmFLvO/qPq6jGVxw1WH20IgqvNJVBSA/Mi6AKIDUDyATQSuvfd/hy6AwOvPQxziEYffLy/KCNxfLDqfluxbJxX8LBXv167MWBYdgJ9YRp3ZLaTsKgpAfIMA7QVkvIIiX8QwCDAeiEEegsf9+ws7poUup/3XHtwmHf4sAO1X3pC2LIlg1eW+EIjqfBIVBSDeaYCQgHhlQHz866cBrvkEgwCrg8MIII82dn+uLEgL3PyqcdL7/J3uhEX71ho19c8tJzqzW0jZVRQALlPj5bIWApLf2jQNoLrX5+eK9v/zDAOANVqw6hLvH6VY+Ifn+fNUvyMf1EXS8mcJKFsxIa2MuIGq220hENX5JKoKgJylgAF/9WEu9jPi1n/Bqo+VbP1DAAD/ZEJyRlXyhX/+tuxyqYv8OC1+9/HZmveNhT/Lis7sFlJ2VQWAy9Vtw0cCpwOKBYt3kMZ1XRGpdJ3LfrT+2AwIkE0GWZUf++niigbQ5Y19eG3/QxKX93VD37ldW3eATl90QYOy6NbCz1ReIRDV+SQqCwCXLSf27YDDgfT/KLAWvndZaVjXeMseXj5+s1jNxX/ciwupDCKULXp5OqMqj06d17Ueuj9eOKh+5b0dh/dGlu534M/H4RseNxr+yAA0atRIdQHg8p297sMQOwOGB0lQgOJ9DYUiqnhw2v9vyw8rm/aHAEQPVl1k5udL2lFe1Th6YPvbtPfIgVjAz/DngX//Oa8XBEDn1r2XsusgAFzG0bs+o8bLD/oUAcA/KuiqcB0GPw/4U7nP3w1/jAGACLCY5K/qRMM3jaUpu16kdRFN63O39BNvs3j8eellxsMfGQBNMgBuSeEpgrxOQMGqI8RLBp+x7EDS/z8t2U+nza4ROIbAW2v2K7N20umLapOWKVVZEx//7pzdwsvN50y8TuL93yzeTz9dUJv0/4dz99BXYujO+PqsGvrR/L1Jy8Rl/cXCfcSL/PA8/1JFp/olQt99X5eWadBy5q/qSH3WnU+XbBxFl28aY/X/VZvH0/VbbqFbt99DT9Q8R7Nq59KWQ1tja+Ungt+532f1HVbAHwKgoQC4ZSDV7XG7P6efzN8jHKKZWrm8hfGgzZ9QqnJ5fZzBnOlafp/nc6a7/k21RJ3X/TNt2rx5VR1xK9vvtcO+/ltzdlOhotv5umEe5HZQsKr8vpYrSmjStrtp2YEqqotwupoDMByDLwl8//a3rIE/BMBAAdAd/gzpOARg6PbP0sLfgRsk4FNPcXLilemoMsiDlO2KzdfQtsPblWvVQgoyS8GC2jX07Xl9IABe+s5NeU26VqFuz5kA/zgEwEvr3w0ySIA4CQgCWVXf848dj6DFL3lDHlkis+bgNuJNhbhVbNO/KRwPXA/dIJ+qvDw24P8uiD7t//VZO+mcLZ+mTa+nKnOqx6POAFzisfWvggR8d+5uLfv63bFz31YV5n7Lxf3asuCE82ZuvYeJ0dZDu+mPS4ZaBX5HcgKD05Q3poKQbo//een+yPumZcCf4x6lANy490vqtD59378bWO7bcWUCfrpgr9A0vLtOUd/2C1oVXz9w/cWRLk0bBnZ4b0OZ4BH/Zy0baSX8MQbAkDEA/Td/Ygz8oxaAC7Z56/tPBca4JOCsyiNGSICKQPdTpibVebRk/3K0/jVM/TP886uvtRb+EABDBOAXC/dGKgCiRvunyrJElQGYuPdL6rgufH92HBLwvbm7IQAK7O53zoZLAX8N4c9pf5tb/ugCONaHkQpCujx+xc5/Rwp/WWl/d7yjEoDztv5bGETjkIDclR8JK3+qDIfsx/20tlV87eRdz0AANBMAHvD3B0v7/B3wO0dTuvID18MNHh1vd1j7QWQCEAX8+TOIQgDG7/2S2gto/bsBGbUE/HXZIQhAzFmA5furIQAaCQBP9bNxtL8D/MRjYHCa8kYdoe8uc8vqQ5EIgOy0v7tOUQjA4C3iWv9xScDpGmz2445Nstsqtur9lGnn4RoIgCYC8ND2d+g78+2a558I/MT7pnA8cD3c4NHx9t+Xi181L3Hluqha/k78ZQvA2N1fSG05R5UJ+NnCWqn1SAZs0Y/5ga2Krz1QdxACoLgA8GA/m5b3TYR8uvuBwWnKGx3o6Hrk/QASgS3yftTw589BtgD02fQv6eCMQgJ+uXCf9HqIBn7i+VSEup8ybTq8BQKgsADwrn62bOyTDvSpnjOF44HroSv4nXIXr66TJgBRpv2d+iQKwP8JsQGP+70sFXzukTWfRwZN2RLwx6UHI6tLIrhF3fcDWxVfO2ffAgiAggJQW3eARmyYbMWWvqng7uXxwOA05Y1u8Oh4+/ytn0oRgDha/k78ZWUAJtUSddsQbNGfoMCTKQEtqz+AAMQ8CPCWbVgBULXFhabWzKXTF11g9fx+L/Dn15jC8cD1cKCj6/HmWqJvvS9229844c+fgywB8LrhT1DYp3qfDAk4dfZOqlgbfg2DVGWO6nEVW/V+ytRudS86UncEWQAFsgCc7i9bMQHg97GfQWBwmvJGXcHvLneJwG6AuNL+7vr8elGt8KzGrxbVCln0JygYRUuACel/jqUf2Kr62md2vQgBiFEA5teupt6r76BT5/UA/H3AHxkAQ1YCnLD3S/rvebtDQzPulj9LAG8s9NUQ/f6pBkB+ZeYOYggHBbiI94mSgG/N2UVlaz6JtS4i4mGKABSu7kxbD2EL4Ki7At7as5SKqq8D9H1C3909YEpDPnA93C1PnW8P3f4v+sbsnYElQAX4n7vlU+JypIJ42Me/OmsnnVUV7xr6YSWA49N2xYdGwN8UAeDMRO9159P+I/uRCZCcCVh5YAtdvfEp+u3iiwH+EOB3JCAweR2oxQAAEqtJREFUOE15o87QTyz7kK3/pNMCjAf4r/driN+beL4o73PLXyb8HXlgCYg7E8CD94LI2imzdlILAwb+ubMHqqb1g5SLJQCZgIa77YnIClTt30S3bXmVWleOplPmdgf4BYAfAnDMYKKEXBTXGlXzGZ3uow/914tr6cqaz2KFv+yWvwN/56hCJiBv5Uf0w3l7PGc7+LV5q/Rf+98Nf5MyAI4wFKzqTE/vegEDA0NkAnit/ge3v13fr/+rxUMAfIHAd8DvHE1pyAeuRxRQjvoak/YRDdj8Cf1+yb6krWpuff5p2X4avPmTWMHPcYmq5e/A3zmqkAlgAHKXxI/n19LXknR9cBl/NH8vmbL1byL8TRQARwTKV/egSdvuptm184gXCzpYd8j67gFekW/zoRpacWAzzaldRdN2L6HJO96jazY+Td1X3UpNl42g783vB+BLBL4DfucYGJymvDFqOEd9vRtrvyQeH8CwZ9hevvPfdEPtl7GDn+MQdcvfgb9zVCET4ECRB/Vlr/yQmlXVUbOqI9RmxYdUbshAP6eOyY4OMHHMNWJGhPtz/NGidoB5hDB3oO7naArHA9cjaiDjelQvH3G1/B34O0dVMgHJ4GjDY25g4LY5EvCHykLAX3H4sygEBqcpbwSQjwI5yjjE3fJ34O8cVcoE2AB9dx0BfXOg73yWWdW59O35nSEAEAD1NSFK8OFa8fX5O7BPdUQmIJ5VBR1o4GiOCPxiSTngrwH8kQEwZCEgXcRCtZZ/ogwgExC9BAD85oCfP8u/VBXQN+Z1hQBAANRv/XMJdYGn7uVUpc8/EfqJ95EJiFYCIABmCcD3FnYE/DWBPzIAEIBIZgPoAn9HBiAB0UkABMAcAfifpaWAv0bwhwBAAKQLgOppfwf6iUd0B0QjARAAMwTgjMp8OnVeFwgABECP1L9TSt1T6yqXX1f4OzIACZAvARAAMwTgh0j9ayk/DgetPaoMUJ3Lpjv8IQHy4c/TASEA+gvA/y4r1hJ+nAK3/d9a8DsV1xmyqpbdFPhDAuRLAARAbwE4oyqPTkPqX1uRcDho7VFViOpaLtPgDwmQKwEQAL0F4IcLO2gLP9tb/xgEiEGAQgcBmgp/SIA8CYAA6CsAGPWvfxeCtS1/p+K6trRVK/f5Wz9NuvOgA0/xx+2et9IVeW0eGNiyqo7cy9nidnBBgADoKQC84M+pc7Hgj+5ZBIeD1h5VA6mO5Rm+89902vs1MQA5Hgk4ZdZOyl35ESRgbXDwO9IEAdBTAL67oBNS/wYMIrQW/E7FdQSuSmWeVEt0+qLaGOC/I9Zrfn/ubqpYEx6ADghtPUIA9BOAX2Ktf2Pkx+GgtUeVYKpjWfpv/iRWEItM7/s911mVR5AFCJkFgADoJQB/qizEWv8GtPydrgtrwe9UXEfoqlTm3y7eF4MAJEv9J3tMbpbgR/P3QgAgANasZfD3qjz61gJs8+vA04Sjw0FrjyrBVLeyTNz7ZcQD/xjo6UCf7jnxMsADAsvWfAIJCCEByADokwH40aL2xqS+TYC3iDpYC36n4rpBV6XyDt3+rxha/+JB7jf1735925UfQgAgAMZnAf53WQngb1Dq35EHh4PWHlUCqm5lGbgpyv5/P617P68NJxRnVWEcQJgBjMgAqJ8B+Cs2+jFWfqwFv1Nx3aCrUnkHWjwA0MkCNMOaAKEyICYLQMXqnnT91lvokZqn6KU9b9Cre6Zp+f/0zhn0xI73tP+/bcsrNHLDE9Sm8mo6dV4PY6HutO69HB0OWntUCai6lQVdADsIXQDhpkKaKABDNlxBSw9U0gcffIB/RWOw5dAuGrb+Ufr2/D5Wi4C14Hcqrht0VSovDwL82uydEscBiEjlizhH8m4CDAIMB3/uOjBJAFqtKKXX97wN6CsK/WRCtvLAFjpj6TBrJcDhoLVHlYCqY1l+v0T8NMDTZotfVZBX73PS9qKOP55fGyr9Habv3JT3miIA2Svb0fL91YC/RvB3hGDPkf2UUzXWSgmwFvxOxXWErkplHiB4HMBP5u+hPy7ZLwHWe+nbc3YLPS8WAkIGgAWm6Yp8erd2FuCvIfwdCdh+eA/9bsnF1kmAw0FrjyrBVMeyTNpH9D8L9woBK8N/3O7P6fRF4rMKP11QS0WrPhYmAT+Ytwet/xDT/5wMhgkZgBu23g74awx/RwLe21tFp8ztbpUEWAt+p+I6Qle1Mo+q+YxODTkWwIH/sB2fE8NaVJreOQ+fk6EjQgK+PruG8lZhMyAH4mGOugtA65VltPNwDQTAAAFgEShfMQEC4MDRhqNqMNW1PEO2/pO+EVACfrZgb33Lf+zuL6jD2k+lCoAjAd8N2B3wNd4OuPoDtP4FtP75s9BdAK7afD3gbwj8WQCeq5kDAbAB/E4ddQWuiuW+bMe/6Ifz/PWz/235AeLZBPx/9vp/1oNVZgbAaa3yEr5+r/Nfc3ZRW2wDLFR+dBcAjPo3a6pj7ZEDVk0NdDho7VFFkOpcphtqv6SS1XX07Tm70qbxf7loL5275VPiuvKWwn02/es4WPyC2Unzpzs6XQCOADjH5lV19L256aWFZyX8YclBrPsvqNXvxJ6PugvA2oPrkQEwKAPAWQCbpgVaC36n4jrDVuWy31xLNGTLp1S6uo6aVR2krMoD1GbFYeq07kO6suazevA75T9367+Pw5+hEKUAODDKW/kR/XXZIfr1ov30s4W19MuF++qh37KqjiokgM+5ru1H3QWgtm4fBMAwASiqvs6abgCHg9YeHQjhSA2gHFU8hu74rAH8GYi/kDALgIFuO2xVrL/+AlALATBMAAqqroUA2GIEUYEO1zlZMEbv+oLaJ2ld/3bJgbTdB+lS/ame+92SAxCAJLGOWwp0F4A1B9dBAAwTgL9atDKgLZxPWU+A+WQwRxGT6/Z8SZ3WJ19IpknlEeEC0LQSu/bFDftk19ddADAI0LBBgHUYBJgSliY+EQXscI2GksEDBbttODriPxkUSld/TLzOfqrWvN/H+Vylaz5BBgAZAOGDDkdtvg4ZAIMyAM/WvG9N+p93CzSR6b7qBDg3hLPseNy8j6jPxhMj/pMJAD/GA/H8gj7V63+O/n9l5Uf3DECrFWW0AwsBGSNBZVgIyBc/tX+xbODh/A0FY+DmhiP+UwlA/qqPhGQBuPVfsOpjZQGYqv62PK67AHD5J2y91RgAOsvi2nh8a89Sq1r/yAA0atQIgG4IaJnxGJIw3S8T5P6+/HDoLMAZyw4B/gqm/p3P3gQB4M2A3tk7ExKgcVcAbwb028XYDEj7Fr3fCsgEHs59Qi4u3X7ydD8HAumOv1kcfGfA3yzGyP90sVXhORMEgOvQdmUFLdtfBQnQUAJ2H9lH2VVjrGv9IwOADEAkc/9H1nweqhXOrXg/gwL5tX9bfjjUNVWAow1lMEUAuB4tV5TQq3umQQI0koDqA5vIpml/DH33v98Gs3GvRyv9RCtdRizG7Dq6wU9YmPGYgJ8v2JdWBBj8POAPff7Jp1eG/QxkvN8kAXDqct6GYbR4/zKIgMIisPlQDQ1d/zB9a37vBkB0w9GG28YB3W+FZEAP5zwqFdfWz/VPPd0vCFB4imCT5Ufod4sP0C8W7qv/50V+eJ4/pvrpA37ns3egaeKxbHV3um7rJHp455P00p7X67MDnCGI6v/l3W/Tkzvfoyd24J9jcNvWV2j4hsepVeVo+sbc7laD35Ebv7w07vWAtZwMwPV7Tuzu5/zY46gfoGV/ZiaCX4U6/aWygE6b3wWQS0h5O+DD8WhXgHFA91shCIB4AZiw90vqemxrX9kAwfn1lgoVYGlaGf5alU//Oe9swB/wz/gd8MtL414PARArALzKX/eNYtP+gLzekE/3+ZkG37jrc0ZVPn1rPuCPFn7DwX6p4mEc0P1WCAIgTgBuqiXq5WGVv3RAwHPmwj7ZZxs3ME26/t+q8ug7CzpnbPWlggEe9wZNk+Lkl5fGvR4CIEYA6pf43ZR5id9kEMBjdkHf/XmbBOA46/L36jz67oJOgD/S/r6+A8YB3W+FIADhBYDh338z4O8GG257k5o4oWnKtbOqcun7Czr6+uE3qRWLugTPXPjlpXGvhwCEE4BJtYA/YO8N9sniZAqE46pHVnUufX8h4A8JCCYBxgHdb4UgAMEFgOE/AC1/rDgYYq+BuMBpwnUZ/j9Y2AEtf6T9A38H/PLSuNdDAIIJAOAfvNWbrCVs62MmgDiOOgD+wVq8yBQ0jJtxQPdbIQiAfwFg+A/EgD+0/EO0/B3hiQOeul8zqzqPfoC0f+BWLyTghAT45aVxr4cA+BOAoy3/fwN+AuDnQNDmo+4wjrr89S3/RUj7A+InIB4mFsYB3W+FIADeBYDn+fdHyx/yI1B+ogaoztf7Owb8odUveLyDX14a93oIgDcBYPj3BfwBf4Hw58yHzkCOsux/r8qj72GePwQAAiDWQSAAmQXgxr1fUm+s8Af4C4Y/BCDXkwD9rSofi/wIBl+YtLlJ7xVLUw3PBgFILwC8tn9PwB/wlwB/CEBmAWD4f3s+lvc1Cboq1UVDZIstMgQgtQBM3Psldd+AjX1sHqQnu+5RptF1u9YZldjYRyVYmlgWsTTV8GwQgOQCcP0ebOkrG344P8YApJKSP1cW0H/O74I+b6T+pX4HNES22CJDAE4WgLG7v6DO69DyB6DlL3aUCoA2P/6HykI6dR7gb2KLW7U6iaWphmeDADQUgNG7vqCO6+T/8AOuiDF/B2wGfbK6/25ZMZ06r6vUVp9qEEJ5xMzpDxJHDZEttsgQgBMCMHzn59Qe8MeAP0kD/pJJXzII2vrY6UtL6JS5gH8QkOE9wSRCLE01PBsE4KgAXLbjc2of4Q9/MhjgMfuyArbCPrHev1pahlY/+vsj/w5oiGyxRbZdACbtIzp/K5b2hXzEIx+JILTtPi/t+5PF7SL/4UeLOViL2bS4iaWphmezWQB4dT9s5xsP+CAcR+NuG/Dd9eXV/bCdL0Acp1RoiGyxRbZVACbsxQI/gHD88uMGok23/4oFfpD1UKDLQyxNNTybjQLA0/zOXo9pfhAACEAc0vGH5UV0Gub4QwAgAPEbg20CMKrmc0zzw2BHZWY6xAHgOK/5v8tK6BsK/PDHmXbGtdXp9oifwDGXwBYB4MF+l2z7DCP9AX9l4M8ZmDhhHPW1f76kHK1eyI9S34GY8Rv/5W0QAB7sN2gzRvoj5R9/yj/xM4gawnFcjwf7/XBRB6V++NEKV6cVHuNncSB+AsdcAtMFgNf0x4Y+6oEvEYS23o8DyFFe8y+VBfSt+WcD/mj5K/gd6LoiZvzGf3mTBYCX9e2EwX5KpbxtBX2qekcJ46iv9dv6ZX2xpn+MLVwFoatO5uGUud3ujZ/AMZfARAHg/v6h2z8D+NDfr/x3IGooR3W9XyxGfz/Arw7sk30Wp8zvUhgzfuO/vGkCwP39A9Hfrzz4UrWIbXs8KiBHdZ36/v6F6O9PBhw8ppIQdK1sRGP/I34Cx1wCkwTgut1fUo8NmN9vG0R1rm9UYI7iOn+q7+/vjLQz+vtV/w58/tW53VrFjF41Lm+KAIzYifn9OoPQ1rJHAeYornH60lLM7wf4VQd/fflOmdt9qBr0VaAUugsAp/wHb8EUP1sBqnu9o4CzzGtwyv//wxQ/LcCHLohun399TrcRCmBXnSLoLADX7UHKX3cA2l5+mXCWfe4/I+UP8GuT9ei6FGn/JN6hqwAg5Y+5/SbIg2xIyzo/Uv4qDWhDWZJkNw5+fW7XFafM7faP+tH+1Oj/JMEfHkIEEAFEABFABBABRAARQAQQAUQAEUAEEAFEABFABBABRAARQAQQAUQAEUAEEAFEABFABBABRAARQAQQAUQAEUAEEAFEABFABBABRAARQAQQAUQAEUAEEAFEABFABBABRAARQAQQAUQAEUAEEAFEABFABBABRAARQAQQAUQAEUAEEAFEABFABBABRAARQAQQAUQAEUAEEAFEABFABBABRAARQAQQAUQAEUAEEAFEABFABBABRAARQAQQAUQAEUAEEAFEABFABBABRAARQAQQAUQAEUAEEAFEABFABBABRAARQAQQAUQAEUAEEAFEABFABBABRAARQAQQAUQAEUAEEAFEABFABBABRAARQAQQAUQAEUAEEAFEABFABBABRAARQAQQAUQAEUAEEAFEABFABBABRAARQAQQAUQAEUAEEAFEABFABBABRAARQAQQAUQAEUAEEAFEABFABBABRAARQAQQAUQAEUAEEAFEABFABBABRAARQAQQAUQAEUAEEAFEABFABBABRAARQAQQAUQAEUAEEAFEABFABBABRAARQAQQAUQAEUAEEAFEABFABBABRAARQAQQAUQAEUAEtIjA/wNH15RrRXgYjgAAAA5lWElmTU0AKgAAAAgAAAAAAAAA0lOTAAAAAElFTkSuQmCC;fillColor=#5D7F99;strokeColor=#D0CEE2;fontColor=#1A1A1A;" vertex="1" parent="1">
          <mxGeometry x="65" y="395" width="50" height="50" as="geometry" />
        </mxCell>
        <mxCell id="oj4uOmL9cDN1MrVRwgIF-15" value="&lt;font style=&quot;font-size: 9px;&quot;&gt;Historical Weather&lt;/font&gt;&lt;div&gt;&lt;font style=&quot;font-size: 9px;&quot;&gt;&amp;nbsp;Reports&lt;/font&gt;&lt;/div&gt;" style="text;html=1;align=center;verticalAlign=middle;resizable=0;points=[];autosize=1;strokeColor=none;fillColor=none;container=0;labelBackgroundColor=none;fontColor=#1A1A1A;" vertex="1" parent="1">
          <mxGeometry x="40" y="444.99538461538464" width="100" height="40" as="geometry" />
        </mxCell>
        <mxCell id="oj4uOmL9cDN1MrVRwgIF-19" style="edgeStyle=orthogonalEdgeStyle;rounded=0;orthogonalLoop=1;jettySize=auto;html=1;entryX=0.001;entryY=0.729;entryDx=0;entryDy=0;entryPerimeter=0;strokeColor=#736CA8;labelBackgroundColor=none;fontColor=default;" edge="1" parent="1" source="oj4uOmL9cDN1MrVRwgIF-13" target="oj4uOmL9cDN1MrVRwgIF-1">
          <mxGeometry relative="1" as="geometry">
            <Array as="points">
              <mxPoint x="170" y="420" />
              <mxPoint x="170" y="350" />
            </Array>
          </mxGeometry>
        </mxCell>
        <mxCell id="oj4uOmL9cDN1MrVRwgIF-24" value="" style="group;labelBackgroundColor=none;fontColor=#1A1A1A;" vertex="1" connectable="0" parent="1">
          <mxGeometry x="320" y="190" width="90" height="71.69538461538463" as="geometry" />
        </mxCell>
        <mxCell id="oj4uOmL9cDN1MrVRwgIF-21" value="" style="shape=image;verticalLabelPosition=bottom;labelBackgroundColor=none;verticalAlign=top;aspect=fixed;imageAspect=0;image=data:image/png,iVBORw0KGgoAAAANSUhEUgAAAgAAAAIACAYAAAD0eNT6AAAAAXNSR0IArs4c6QAAIABJREFUeAHtvQWYFVe2t893RzLJ3Ds+9z/yjd3MHZfMNJDgtHujwV0ixEhIkIQQSAJEiMvEhSTEiAtJCAGCa3fjro003tGZiazvvxoKqg9HSvau2vLr5+mnjlbtvc55zvvuta1RI/whAogAIoAIIAKIACKACCACiAAigAggAogAIoAIIAKIACKACCACiAAigAggAogAIoAIIAKIACKACCACiAAigAggAogAIoAIIAKIACKACCACiAAigAggAogAIoAIIAKIACKACCACiAAigAggAogAIoAIIAKIACKACCACiAAigAggAogAIoAIIAKIACKACCACiAAigAggAogAIoAIIAKIACKACCACiAAigAggAogAIoAIIAKIACKACCACiAAigAggAogAIoAIIAKIACKACCACiAAigAggAogAIoAIIAKIACKACCACiAAigAggAogAIoAIIAKIACKACCACiAAigAggAogAIoAIIAKIACKACCACiAAigAggAogAIoAIIAKIACKACCACiAAigAggAogAIoAIIAKIACKACCACiAAigAggAogAIoAIIAKIACKACCACiAAigAggAogAIoAIIAKIACKACCACiAAigAggAogAIoAIIAKIACKACCACiAAigAggAogAIoAIIAKIACKACCACiAAigAggAogAIoAIIAKIACKACCACiAAigAggAogAIoAIIAKIACKACCACiAAigAggAppGoO3YsV9teclro1sPe2tt2+Hv/DN7xLtf5oyaQfhHDER+B7JHzaCsQc9Z/U839CX8IwaxfQdGdCQy8r/TIRrRcRUN73g/jWhfTGPH/oemOI622K2Gvj60zfB3PhH5Q49zQRySfwfetRr+LD+x/fBDPBB7/g4YCf+kUrOcrujQJlqaana1FpdOeyL5DzUAhrjI+A5AACAAaP3H9h2YaJUAsOx8TiM7jNAMy9EUt/Vlb74CyMmAHM6Z8ns1EgIQ248/MgDIAEzsY1MGwFXXTpdFQ1VNrtLysmkXp/yRRt8/xj5I+g5kj4AAQACQAYjtO2CtAHT8HN0Bx+SEB/y1Gf7OxxAAtNSj/g5kj5yOMQBoiaMlHtd3YIKtGYD6MQJVGBjYqFEjHu0f9Q8/rgfZ4O9A9ggIQGytv7igg+uqIzx2CwDRyA5FmiTp5RWz1eXT1gHIAHIc34G2EAB1YAAw2/dZ2NsF4IwHuE8eWTU5M8/zj+PHH9eEdLQdjgwAMgAYAxDbd2C81V0ARMM7rtQE0/KKiUV+AOK4ZKztFW9jDABa3va1vFX5zCf0dlrCth4PyiOrJmeO68cf14V4tLkcAhBb608VCKEc8QnQeOsFgDTBtLxiAsQAcVzfgdaXv4UMAAAYHwBtj/31PW1t+R+vtzyyanLmuH78cV2IR6vLpkEAbIcQ6h+fAF0HAdAE0/KKCRADxHF9ByAA2AsAXSAxDoK8tsfxlrBFewI0qLM8smpy5rh+/HFdiEfLS99EBgAt4PhawLbHfhwEQBNMyysmQAwQx/UdaDn0dQiA7RBC/eMToLHdG7SGbcwCyCOrJmeO68cf14V4NL8EAoAUeIwpcNvlAwKAWQAAMUAc13eg+cWvIgNgO4RQ//gyAGO6IQOgSUNdWjHj+vHHdSEezS58BQIAAMYHQNtjf3VXCIA0smpyYoAYII7rO3DWBS9DAGyHEOofnwCN7gIB0ITT0ooZ148/rgvxaHr+ixAAADA+ANoe+6vOhgBII6smJwaIAeK4vgNNznsBAmA7hFD/+AToys4QAE04La2Ycf3447oQj8aDp0IAAMD4AGh77Ed1ggBII6smJwaIAeK4vgNZg56DANgOIdQ/HgGa2Nd6+PO6B5pgWl4x4/rxx3XtFo/sEe9aD38WIKwDgHUAYvkOTOgDAYAANGoEENsN4rg+/zbD34EAQAAgQHFlQLAVcL0AyWtaa3LmuACA69otHtgK+Gj3Ryytv7igg+uqIzzX90IGABkAZAAgIvGISCtsBFSfAYEAoAsglu8AdgJEBoCTFABgPAC0Pe4tsA8ABAAZgfgyAtdgIyAMAoQAkO0gjqv+zS7CPgAYBIjWfyytfxava7AMMAQAAgABGBVPBgTLAGMMQGzwQ+aBCPsAoAsAXQDxwC+uVrdK1216/kuYBYBZAPGlwG2XACwDDAGAAEAA4pKCJudgFUB0AaALILYsCFYBhABAACAAcQkAVgFEF0Bs8LO99c/1H9ER/5gGiFkAcQHQ5uu2xSJAx7s/AEFkASL/DmARoOPyw41gq/9sBhHqHk8GpPWwt44D0PZMQOQ//mj9YtwBFgGCADjWAwjGA0Gb497y0jcgAMc2QoIAIAMQ+XfgWqwB4HSBOBy09mgziFD3eOSn+cWvQQAgAHq2xG/uRfRQR6IppURTi47+821+jJ/TIcMyptvxFrADQluP1oLfqTggGA8EbY77mUNegQBAAPSApQP023oQvVhINKs50fvNkv/zcy8UEPFrnfepeBzdBQJwbBCkw0FrjzaDCHWPR36anPciBAACoDYk3eB+rH168CcKwezmRI+2V7d+WAPguABZC36n4oBgNBDMHv4m5Zx7L+X0vZ5ye46inK6XUl6Xiyiv83mU2/USyuk+nHJ7X005AydRzqXPGb1CYeNznocAQADUBaQb/s+UJG/tJ0I/2f2nS9WsI6YAQgAgAPLAn33565TTfzzldehHhaXtqaS0jMrLy339l5aVUVFJOeVXdKfcbsMo+4JHjJCC7BHTAf9j8MdCQIoPAHysXXD4O0LA53ALRdy3J/Y+Dj9b+/3d9XY4aO0RGQAxIpB90ZOU2/k8KiptR2Vl/oHvRRBKS8sov6IHZfefSDmjpmspBJgCeHQBIGf6o1JwiBtOKl2f+/E5le+APOiRxwXcrtCYgOt6QQBcGRBrwe9UHAIQQgCueKO+dV5Y0s5X694L7DO9hmUgr10vyhnykFYi0GIopgA68EcGQOEMAA/4Cwr9xPe9UKhOFmAcpgAiA+DQH7sBBoJn9rCX6/vuGcKZQC37ec42FJR2qB9boIPMNcc2wA26QJABUFACeDpfutH+iYDPdJ8zCZN6qyEBmALYIAPiQqGdN3WAhipl5L79vI4DifvnZYM9yPkLS9sdHUQY0xa/Xj6nM4dgF0BkABSEvrv7gef0Z4K63+f5nO5rxHV79NkNAOhuDdt4207qu2rt5Ucbr5lBOb2uCjSYLwjIw76noKwT5Vz4WKDshuzPujF2AUQGIC74eb0uL+zjF/CZXs/n9Hp9ma8b2RkCgDEAJwxA9g++9ue/6AkqLOugZIs/nShwliLn7AuVGiyYPeLdBvBzt4Rtva0EFGQCR8dzTxXY/++IwfNF8QvAxD6Avwv+nPE4QUJLb2kPaJnp7l6jpY3oTwdvkc/xrARVsgGtL38bAuCaAohBgIp2BbxYID4DwOeMW4YwA+AkAbIU+yeqDQE4eRYAL9qT366ndq3+VOLAAwVz+l7nqUsg+/JXKefSqZQz7CVPr/fz/WmJGQAnCVDsUIgbSipe31QBGNfjJADa2O/vrvMJElp6y88PuBWvvXQq8WC6VDDV+fHcTuce7RIY+gzl9LyKcjv0Jx4vUFxaTqlmNHBXQmlpKRWWVFB+RTfK7Xx+/SJHucPf8C0IzS7EHgCJXR0QAAWzAKYKwNVdIQDoAmhoOlZA3Ws3wUVPUHGJmiP8RYlHKtD7PT9nFXhsBAtB9kWTPclAU+wBgAyAii3+xDKZKgDYA+AkAWpIQwvvQQCOdQGc/0DKVrBfONr4+kJei6D3NSkHHWaPnEGNE/q/E1vDNt5HBgAZgMi+AyM7nQRAdzrcxtsWIr9hlSEAM+pbsEHW67cR9Jnq3Ca3mFr2Hk/ZI95ukBVoc8U7J7V+bQR+Yp0j+/FPbOXifupBeSZmAMZjD4BkgtOQhhbes10Asoc+Q8UKrOiXCay6PH/WWWdRVlYWNWmRQy37TaKcUe/Wi0DLS9+EACTJgEAAkAGI5DuAAYBJsx8WIr9hlW0WAF7Zj3fc0wWuqpeTxwUw/N3/TXM7UttLniUsAdxwEyAnExDJj78Orf0b+6RukUddfhMzAFgCGALQEP1H79ksAPnlXQF/n9sUp5OQgoKCBvA/LgJNzqImHUYiA4AMwAnI392VaEoJ0bS2RDNbHp13z+vvv92GiBfNub8zUVxSYJoA8G6E9xUTTckheqEt0cttiJ7JIXqogGh8eVIwJkuXm/hYMiZa9ZitApDb5WLAXyD8WQzatm2bXACcrEBuD8rq/zhEwCUC1mUAGEYv53tbaGdaNtE/zj4hDVFlAlhAnBX8RB2fi2ElwDu7Eb2cl7kur7cmuqXUShGwCvbJKmulAJxzJ+AvGP4sAM2bN08vACwCLfIpq8+DkIBjEmCVANx3NtHMFpmBlAjdp8qilQC+XmIZwt6Pug6Ptfe/o+HTOUSjOlglAsmYaNVj9gnAdCourYAASBCAJk2aZBYAloCz2lBWz3sgAYOeixZsUbWgk12HU/phIPpccXSxur9TuLImqyfXP1lcZDzGsUpWBi+PvdTGKgmwCvbJKmubAPDCNen6sfFcsEGRRUVF3uDvdAec2YKyut9mvQREBgUZoPF6Tk77B2n5JwIrqjT6TX2IZgXIVCSW17nP5+Jzeo1XmNeFgb9T3im51mQBkjHRqsdsEgBesY6XtgXkg0E+XdxycnL8CQCLQJNmlNXrXqslIBIohAGKiPd66Yd24JPpGNWueiJA6tTl2RJ94O+UeZIdYwKsgn2yytokAPnlXQB/Cal/FoMWLVr4FwCWgOY5lNX3UWslwHgB4NH+DlREHaPIBNzSi+g9AVkAnuHA5xIhUunOwTERFV8+Dw8MHNnR+ExAMiZa9Zg1AjDkIcBfEvxZAJo2bRpMAFgCWldQ1oApVkqAdDCkg0YUzz1dKhZMDuSiyAQ80IlodvPg5ef3PhBB37/IbIUTXz5OqIAAmG4DtggAWv/i0/5Ol0BxcXFw+DtjAgoHQACiAHLU1+B5/m6oiLwdRSbg8XbBJeCxdvq1/N2fz4MFEAAIwLHNcrzuqKfi6y54BK1/ia3/7Ozs8ALAItD1RuskwPgMgLPIjxssIm8/G8HsAB7B/96xxYq8lH1Gy6MLGcmWLa67l/IEfQ0vFpSwfa5p903ne8b62ZAByGvfFwIgUQA8zf93Wvrpjs1yKKv/k1ZJgNECwCPfg8LHz/u4lS4btjf3IppSSjSjVeo68XNTyogm9ZZfnskVqcvhJ3bpXvtSWwhARoJq/gLjBWDE21RSWgoBkCQAvP5/48aNxWQAWA6Kz4cAyIZZlOcXOZ0uFay4r/2O7vKhy3Hj5Ynv6Ur0aHsiXtyH//k2PxbV0sVcV142OVU8RD3OywYjA6A54TMU33QByO09GvCXBH8eA5By/f90Lf20zzW2amqg9JZrlLBPdi1e218UkNKdh9fvT3Z9Ex97yeNSyuni5eU5C9YDyIBH8582XQAKyjpBACQKQOvWrcW1/h0xyO9jTRbAeGjJWFc/Gbw4CxDFdLu4heLWXtEIFcf4niJkAExXAKMFYMTbVIr0v1QBCjX9zwH+ScfGlNX7fiskwHgBCLsEcDLYp3rs4Y7mZwEe7hCNAMxuRjS2HQQAAqDvLIDs/jdKhZ8zDc7Wo5DpfyfBP+toRqFwEAQg7tamiOtzv/ib2dFA65mIVtwTEZeg55A98t+Rq+eyjYc/j28wne8Z62dyBiCvQz8IgMT0f6Dlf1MBP/Hxxk2t2DrY+AwAg4639A2zoI4DpUzHlywYBxBF/z8PMLze/EWAIACNGjUyWQAKS7Drn8zsRODlfxNhn+p+h9HGZwGsEACWgCcjmLZmw0DAKATg3kIrWv8QAKMFYDo2/pHY+ufpf563/00F+EyPZ58NAQiaKlbxfbKWrHUyA7IXBZrUl+jefkQP9CN6rD/RkwOO/vNtfoyf49fIjL3sGE7Oswb+EACDBSD7gseQ/pcoAOKn/x3r+3dLQeMmlNVvstESIBUWMkEU9NyiN61x4M/HRzqIg+9t/YieGkA0fSDR4kFEawcT7TjH2z+/lt/z7kCiKf2J+FxB45X4Pl5zwF1nkbcn51qxARCD3/nP2Edu+guM7QLofQ0EQKIAtGrVSvz0Pzf8ndsdr4EAJEJA9/u8Pa5IcPG5eIwBT5ELExtuwb85gKh6MNF2j7D3IgV8Lj7nmwOJ7gkpA7f0FB87jt+TOdbBHxkAgzMAuZ3PhwBIEoBI0v+OAOT3gwCEgZqq7xWdCXg5Pxj8b+5LNHUA0XIfLXwv0E/3mmWDjl6Trx3k83k5T6wEWNjyRwbgWGrD1AxAXrs+EABJAlBYWBhN658loEUhBCAIJHR4jygJ4Nb/nd38wfSWfkQvDSBaL7Clnw76yZ7bMJjojQFEt/gUgbu6EfE8fRFZFIvhjwyAwRmA/PJuEABJAiBl9T+nxZ945H0GBkwxVgICtQB1gLvXMoqQgCfKvcP/xr5ELwwg2hQj+BNlYOPgoxkBLpvXuD1ZHl4ALIc/BMBgASgs6wgBkCQAclb/SzII0JGBnvdAALyCQcfXhVnchkfFe63z/f2jTfUngj7TfR4n8FB/7/UJs8zy43lW9vk7qX/naPoYv4z1M7ILYNhLVFxaDgGQIACRpv8dASi5kLIGPmukBHiGl1fI6fo6Ht3uZ4c7ToF7bflzy5pT7SIH9mWCedDnuYyvDyDymg3gGPjpDuAYW7DGvwP4TMeMgDT9BWYJwHTK63YZ1v+XAH5nQaE2bdpE1//vCAAfW5VRVo87jZMACIAr7X17D6IXCzMDjQf83elx+1+egrdokLfpe0GhLeN9SwYR3eFxxgDHggcGphMBfu7pHKJx5q/vnwn67udN53vG+pkiANkXP0WFpe3R6pcIf5aAyNP/bgnIakxZhYONGhMAAXAJgJO9mNSL6KEORLy2PwsBr/DHUwd5I5zbenpPkXPKnwfayQB0FOfkAYr3e5QAjt24DkR3FRHxYj7P5hwF/mP5RHcUE13d/vjcdzcAbb+dEZCmv8AEAeBNf0pLywB/yfAvKiqKp/XfQAKyKKtlMWX1edCIbAAEIIkAOCIQ5vhof6LNCg30CyoMmwcfXXUwUywm9AbgXQv8eBUb0/mesX66C0But0sBfsngd9L/bdu2VUMAWAjObE1Z3W/TXgIgABIEgJfo3WYA/B1p2HoO0RMZBgeO7Q4BgABk5P1JL9BZALDYT7QDHeNN/yeZJdDkTMrqcoPWEgABECwA3PJnYDrwNOXIQsN7DqTKBFx5NgQAAnAS3zM+oKsA5Ha5GC3/iFr+nAGIZfR/Yuo/2X2WgG63aCsBKX/QU/3Q4/HUELyvnxlp/1TSwt0BPK4h8TswsTem9AWAP3cTZASk6S/QUgB6jCRejtZJTeMoPxMQ2dr/ySCf6bGmLSir591aSsBJP+aJP+64fzLwksWER8zrPOAvFfQTH183+OTNhZD+D5z9MJ3vGeunmwBkn3sv4B9hy5/limWrMa/IlwnEcT7frC1l9X9cOwmAAAjoAuA587z7XiIsTb3PUwTd6wQg/Q8ByEj6FC/QSQCyL3+VSrDAT+SZj9zcXLXh74hHbncIQLLWsemP8SI/psI+Vb1eG3A0MzIe6X+vI/6TvS4FFu15WCcByKvoHjn80L1QTs2bN9dDAFgEOl6tlQQgAxAyA/BAfz1W+EsF8qCPbzs2HuAajP5PBnavj9lD+hQ11UUAsgfdBvhHnPpn+SkpKdEH/iwATZtRVt9HtJEACEAIAeA0+HKLUv+JslA5mOjKzoHT314hafLrUmDRnof1EIDpVFRaAQGIQQCUmvvvpPozHYsGQwBMT/tz/XhXv0Qo2nR/Ux+i5ztAAALOAGCxsYf0KWqqgwDk9rkG8I8B/pwBOPPMM/XKALAcNG5CWX0e0EICkAEImAG4pS8Rb6NrE/AT61pVTjS/LdHVHSEBASUgBRbteVgHASgqbQcBiEEAlJ37nykDwM/n94UAmJwFeNXy1v/2wURzWxG934zolQoIAAQgmLQoLwCDbwf8Y4A/t/6VnvufSQIaN9ViWiAyAAEyADf3JVpveet/fbej8GcBmNeGaHQnSEAACQhGTYPepboA5LfrBQGIQQC0mPufSQLaj1I+CwABCCAAUy1v/XNXwNKiEwLAEvACtvkNMljRIJQHq4rSAjDibezyFwP8ufWfnZ2tX99/ohC0roAAmNgNYPPIf4b/toFEc5o3FIB5+cgAIAPgXwKUFoCBN6P1H5MAaDn4L1EAshorv20wMgA+MwD39LN74B8LwOrODeHPGYD3mxPdhhkBfrMA/olp2DtUFoDcjoMhADEIQEFBgf6tf0cGOo5ROgsAAfApAG8i/U+LcpIIQDOiN0uRBfCZBTAM5/6ro7IAFJZ1gADEIAAtWrQwRwAUXxNAOwG4uRfRQx2JppQSTS0ierEg8//zRURPlRE90Jnopj7eNvdJ1XVRbfngP577X9/i51Z/wv/cnHACcGUHoltLiR4uIHoql+jZ7Mz/U3KJHsknur2Y6Kr24a7vE95+W/vJXu+fmIa9Q2UBKCkthQBELADarfzntPRTHVuVIgOQCqZ+Hr+tB9GLhUSzEvqeEyGU6f7MFkTPFRPd0su/CNzWz85lf93z/5eXngx+d8yvD9ANcHV7osm5RDNDfrb83Xg6h2isPgMSDcO5/+qoKgDZw14B/COGPw/+a9OmjTmtf5YCXhRo4DPKSoAWGYDH2ocHvxtSfPu9FkQPdvInAU9Znv7fNohobov0AjDF55oAt5UQvRcS/Imf7axmRPcUaZEN8E9Mw96hqgDknHs3BCAGAWjSpIlZAsAS0O9RCICf1r77tc+UpAdO4o+/3/uPt/MuAdMH2j0AcHWnzJ/F9BLv4P1HIdHshG4Ev59futc/qv7MBMNw7r86qgpAdv+JEICIBUCbbX9TpftTPd7rXgiAG+pebz/WLjNw0gHAy3OzmxPd7zETsMTijX+4G2BhisF/7jjPyfMmALeUyoW/UybFMwH+iWnYO1QVgJw+YyEAEQvAWWedZV7rn6Wg2y0QAK/Qd17Hff4MZ+eHXOaRuwMm9c6cCVhn8QDAjb29fRa8PHCmwXSjOxDNyNCVIOrz5nEB49QdE2AYzv1XR1kB6HkVBCBCAdB63f9ULX/n8bPHQwAcsHs98oA/URDwch6eVZCubJP62p3+X+6jK2ZMhs2BeNS+l89E1GumhJydkEloQjzvn5iGvUNVAcAOgOWRClDz5s3NbP2zBHS9EQKQDq6Jz/FUv7Cj/f3C491WRDemmSJ4r8ULAG0dcPLKf+nie3uamQAjOxBNbxmtAPCgQEWnCBqGc//VUVUAcvrfECkAeQS8rf9FRUXmwp8FoMcdEIBEyKe7z/P80wFG1nP3dE2dBXiwv70ZgBU+x2LcnyblfkNZPJ/t7T4GJ4Zo0Wfs/kg4t39iGvYOVQUg+5y7rAVy1CKi9a5/Tpo/3bH3/RCAdMBPfI7T8bIgn+68j7ZPLQCPWpoB4G1/57X293k8mkYAeFBeus9A1nPc7ZAAXxXuG4Zz/9VRVQByL8c6AFGIgHEL/ySKAK8DMGAKBCAR8unuT424/9+BDq8WmKpcT1q6BsCas/0D+6k0awE8VOD/fM7nE+bIKwtCAPwDWvY7VBUALhdWApTfLdG6dWuz0//N85WFf9ag51IDLxUIo3icl+4N82Mf9L0QgJO7ORZm+/8sIACeZUM2X5U/v8oCUFjSDt0AEscmcOu/cePGZgtAbg8IgF9pmBJTPzG6ABoKwIYe/uHP8vVImjX54+oC4P0FkAFQzwdUFoDcjgMhABIFwLhlfxPT/3y/3QgIgF8BwCDAhiB2r8Uf5e0lAbti/pFGACaWB5OKoFkd530YBKge/LlEKgtAzgDMBJA1DqCsrIyMXPY3UQIUXgVQ2S4AXpQH0wDjlYDNfYOD+vY0AhDbNMA0UxNjzAyoSeUIS6WyAGQPf4sYVLIgaPN5s7OzzU79swg0y6GsQc8iA+A3A8CvfyHiwWLc7ZCunLYtBLS8OKAANCe6GgsBee1uiBC1al5KZQHgsuVXdIcACO4GYKlq2rSp+QJQcqHS8Fc2A8AgjnIp4BktsRSwu2thSz9/C/84aXY+zm2dua+dF+V5N8KlgBXeHlhNKkdYKtUFILv/jRAAwQJgReufMwC974MApGtVZ3rukQ4BW6E+dpir3wyoc/rWv1NOWzYDqgwxCHOOx+l2k7AZEGcJIkStmpdSXQByRr1LxaXyp8PZ0h1QWlpqR99/287Kw1/pDIAD3aclLgrE8OcdB51rZTq+a8F2wPXL/oZonfveDljihk/YDlhN6LtLpb4AzKCcHiORBRCUBWjbtq35qX9u/Su8AyCD3/n3DL9McJT5PE/PE70z4MyW3rcBdur2lAWLAVVXhMu6TEmzCFCywXa3lRC9J1gCeADp3UWZuyKSlSfix9wstPK2FgIwajqVIAsQWoK49W/8vH+Gf9tOxwHrgFbVoxYCwADmMQEvFIYXgVktiJ4tJrqll/eWvyMAt/Uj2n5OvKPz3X31om9vG0g0J+RGPdcHGG0/pj3R5DyimSEyDzz+gDf94Z3/FO7zTxwcaCX03ZXWQwBmUE7f60MD0JY0f6p6WjHvn5f+7Xk3BMCBpugjTxF8sCMRj9rnJYNfLMj8zysL8ip/D3QiuinNjn9eylo92FwB8Lvpj3vwX/0AwJDb7l7ZgejWEiJeLpiX7n02O/P/UzlEvMgPz/O/KoB8RNzihwC46a/6OgCjZpBbUArKOkECAnYFWLHqH7f+i4doA3/OSmiTAfAC5yhe86ah4wDq+/5Dtv6nlWmRdk+EcJz3E3Bo3103YJW/PfRZ7A8QUACMX/Of4d+yiLIGPAUBiALEcV3jHkN3BQzb988ZgNv0a4HHCX++tn3ET6ix8tBPyAJk95+ILICejNv9AAAgAElEQVRPCbCi9d/kLMrq9Q+t4I8MQN9gGZDlhnUDcOt/bsj+97kh0/8xp+LjEoEEHNp3VzcB4PLmdjoHEuBDAlq1amX2yH/e0Kjz9drBHwIQUACmGjYboErA+vwvtEP6P4DE2Ef8hBrrKABc5rx2vSABHiSguLjYbPhz6r9iuJbwhwAEFICb+hKtN2Q2QNh5//WD/1oTjUb6P0gWIQGH9t3VVQCyR75L+eVdIAEZJKB58+ZmC0DZpdrCHwIQUAB4/MErhmQBKgUstPQqBv8FgT/GAGg2C+BkWZlOee37QgJSSEB+fr7B8G9MWe2v1Br+EIAQAnBLP6KNmo8F4DX/3w+5CM+81kTXoPUPAQiYvDgZqg2n3unwfO7ZF2DXwAQJMHrDn6YtKKvLRO3hDwEIIQCcBdB9LMCywnCr/nH6f6rPlf8C9JMHhasO7wuITXPepgPgvZQxe/DtVFyKrYOdRYCM3fCnVSll9XnQCPhDAEIKwI19iXSdEbChV3j488j/UWj9hxENc0gesCZe4KrLa7KHvYzBgeXlZOSGP02aHR3sN/AZY+APAQgpAJwFuF/T5YEX5YUTgDnNie4B/MPAn98bEJvmvE0XuPsq53n3UmFpe2vHBhg17a9xU8oqGEBZfR8xCvwMfwiAAAFgCXhdswGBa7uGgz+n/l8vxbQ/Ad0Z5pA8YE18gTVhUR7l3zv4DuLlg7k/3EmNm34sKioyY+Aft/iLBlNWn4eMBD8EQBD8WQC4K2DxIE32CBhMtKBtOAGYk4fUvwD4IwOg/SwAjwMWhz5DeV0uoqLSdsaLgNbT/po2o6ycrpTVaRxlDZhiNPghAAIFgCXgdk3WBljVKRz857UlCrLjnyBghk25q/b+gO1mc96mfCtedNZh2CuU0+dayuvQvz47UFxabkyGQJtpf5zWP6s1ZbUup6z8vpRVfhlldbuVsgzr33cgn+6IzYAEisB9/Yk2KTw1kBf9mdcquADMbUl0N/r9RUqEOSQPWBPrBCCNUOQOf4NyLp2q7X/2sFco+/LXUv43v/B5yuo3Od7/gU9b0bJPB333cxAAgQLAmYBH+hNtVXSVwMqyEPBvQfQwlvsVCX8+V0BsmvM2CIDHboQ04qBDDNuOfJcaD34e8D02+M4N4ThvQwAECwBLwBMKSsCmPkRzmgUTgDktiCa3x6A/Cd0Y5pA8YE10gBfKGF5Sml30CuCvGPxZPCAAEgSAJeAhxVYKDDrtb24roofQ8hfd8nfOFxCb5rwNcA0PV9Vj2OaKtwF/BeEPAUgB/xv7EN3bheixdkRPlR39f6QD0Z3d/AnTff2I1ikwJmBNl2At/7ltiO7s6K/lP76C6O5ioofyiR4qIPpHIdGNZUQjfZ5HQmvbga5KR3NIHrAmqsML5QsnKNmjZtCZ578IAYAA+IMnt6Kj/r+1F9GzxUTvtUgNzOmtiR6vIGJJ8FI+nh2wMMYpgtsGEfF6/Tx338//nHyi8R6hzasB3ldI9FbL1NfgmD6eRzQG2QS3gATEpjlvA2DDAVb1+LW89A3AX1H4IwPgkgxu4c9MA/5EeLII3N3VmwTwOgGvDyTaHsPgwOqK1FBOrBPf5/7+18uIRnmE/4Ty9OBPvAbH+M5if1kFg7MB5pA8YE1UBxjKF1xQskfwwL+pEAAIgDdQemlRy3jNMyX+IOlAbVZzogc6ea8bLxsc5d4B9QP/fOz2Ny+X6F4f0/xuKyGa6eP8Ttz4+Fg+ugUwC6BRIwA2OGBVj12zCzHwL84R/l6u7SmNLQO6qpzzueJg8HdgxhLgNRPAdeZswNT+EWwlPJhoUa63unEXwfMV/oDMLf+g8Hdi92SOv2samAkI2G42522qQwzlCyYoPPCvscItXy9wtOE1VgvAc0XeAOkAK9WRuwO8jglwxGdSX6KXBsgbJOhlxb95bYheKyca4zHd7wCY+/zfTtPfnypOyR5/ItdqCTCH5AFrAsAGA6zqcWt63gtI/WsgQNYKQNiWfyLMeGCgA3c/x5uOZQREdg1s7U80JwWgeS2AuXlEU9sRXdUpWF88D/hLrH+Y+xZnAgJi05y3qQ4ylM+/oLS45HXAXwP4c4YjELT8AE7F14pq+buh907r8LG8px/RGwOIqgeHGzC4LAHQvHUv9++/WUZ0s8/WvtPqdx9Ftf7d8bM0E2AOyQPWBID1D1iVY9Z2xDtY8U8T+FspAKJb/m6I+V0nIJ0c3dqX6Kn+RNMHHt1pcJ3HGQTrexDNzyaaU0j0TinRk+2JrhUAfUcAeJ6/u84ib1uYCQiITXPepjLM4ihb7vh5VPjIKiqeuomKX9lGJS9upqIn11L+pIWUc9V7FEeZkl7zyvco/7YlVPjEWip5aUt9WYunbqa2dy2mppe+plQGoPGQF6nlTXMo+6Eqyn12HeU+s5ayH6mmFuNnURPL1yiwKgMgE/4Mwoc7hM8CpJMCHjdwbz+iB/oRPdqf6MkBR//5Nj/GGYSxXYOl9R3AZzreLWjcRCpxmJwnt/yZ6hfx8+aQPGBNksJF83Xvg9Qp/85lVDa7ltqt+ZTarU3+X7H0CBU9voZyr54ZnwhcNZOKnlxHXJZU5eTHi97eSS2ufS9WEWARyZ+6gSpWfpS6rCs/qheCMy9TS1qiGoBojQA8WS6v5erAjK+RDuCynxvXQz48eXU/p76yjg8UyK9HxKB3L/7jvh0Qm+a8LQgsTXpP7tWzqHTaztSASiIDZQsOUt4N8yOXgLybF1L5wkO+ypr/3HpqHMOAwDZ3LaaKFR96Lmv5ig+p1a3zYxWWqKDvvk6swJINROf8PE1PFqzc532yLD4BmNCHaGTAQX1+YBiFAMxuTnRDuRUSYA7JA9bEJJj7rUvuNbOpbM5+z5Byt7grVnxE+bcsikwC8m9fQhXV3oHqLmvxzD3UOMJUe86jKwLFlMvM3QRuQJp+2woBeCM7GgHgvQMc6Yj6eLXk1L8jCby2v1t6ZN1+pQ0EICBTtXqbX2ga8/orZ1DpjD2BQcWwKq/8kPImzJMuATwuISj8HREofGNbJIMDW9+1KFRMubytb19gjQTEBqyoAHlPRK1/BuE9XeIRgGsjSP07AsAb+8iCfuJ5J5qfBdAK1jIKawzQfY5bKJy8NjSoGFYsEVJjeOUMKnt/n5CytrpjoVSwnjn8zfT9/Um6UxxBcR9ZdppeYscqhsYLwNOl0QCL17jnVf6iEhvnOhM59d85utYy7+qXbrOkRIiHuf9IfnT1cgQn4qMMpmp1Tqnw8gnlyMoyeiZVLP9ACFQZXAV3L5cmAXxuNxzD3C5fdkTqeAAe8BemfO735j2/XqqsqNK1EDmwHHBFdXw9JxoB4P0EoqqT+zqju0QPSR6pHwbsXt/7kvndAFrBWkZhI4OuQjLA0/zcsAl7u/StGmkCUPZeuG6KxLq1vHmOFLA2ueQVqlj1sbC48qDAOAYvRi0GsUDLDTDZt3mZXq/ACfo6XhP/lp7RCAAvOczdGo+1J5pcQsSD8u4pIuJ0+UgfG/mEaenylr5h9wHwEuu3WkUvN2HiEuC9Mpiq1TltFABRKfXjcF31EeWMFj81MPf6udRuzSfCoMrlLXh5sxQBaPOPpULLyWVtecP7UsoaNeTTXc94AXi3lXwBkD3/nyXp5t5E3J2Rrj7TWxBx2vyq9vLBeUfITZQgAPWfkVawllFY2wSAB+2lm+t/HOoe+6ud1+fduEB4FqBoyjrhUC2ZUysFqsWz9wova9uHKqWUNR2Qo37OeAF4q61cAYgi9X9/J6L3Uqztnwyk77YguqVUvgQ8Lrkr4PXW8usQoNXunscf9rYMpmp1TtsEoPgZcf3UDvz5WHDXMuECUL7woHColld9IByqZ418S3g5OaZ5z60TXtaoAZ/pesYLwIsSF67hlQVld2E83o6I58UnA326x/g9PGVPJuB4QOBkj1sOpytrqueezpFbfpmx8XhurWAto7C2CUD5In8L6bghn+52/p1LhQoALz2c7npBnytfXiccqjmTxY6pcOqW+/Qa4WXNBOSon5cOMNmAzHT+R9r7h2cqILkf5w2FMl077PMPdgoGf6ecs5sR3V4sF6L1EiApE3Cn5LJ7hLRMiZLBVK3OaZMA5N+2WApUGVj5N4ntAuA9CBwQijyWztsvFqrnPE9lSw5LKSsvKBQ1kKO+nnSIhYVg2Pdz37noaWtRtPx5UCFPLXRgHvT4XnOiMZLHBMjIBPBnFsVYhpglQCtYyyisTQJQ8spWKaBqt1LwIMAr36OKSnHTFN0Ckf/iJqFQbX7dTDkxXfsptZiIQYBGCMIUgYvXRAF/lh6RWxZHscGOaAl42Pw1ADizIIOpWp3TGgHguf/VaTal8Tnozw3V0nd3C03/i5z77y4n3xa93n7+CxulCABPKeRdBKNukUd9PSMAnylLwFPnRAwGjCLtz3XhrIWI1r+TNeApe1dGMEVQVHfAG62IRkVQ3phb/xCARo0a2SIAhfdVSgEVQ7XgoZVCBcDv5kSJkE91n6Ha5MKXhEGV9xfg+fqprhfm8YLXtworZ9RQ93M9KwSAoXp7D6LpIaYEPhvhQj8PdA6f+nfg7xxvLZE7FsCBaVgJeKcl0biKaMrqlDnGo1atdRmFtUUASt/eJQVU7VZ9RLljZokTgDGzic8ZBp6p3lvwyhahUOVsQqprhX1c1oJFfuAcxWutEQBHAvxmAngg3eMV8gf8ubMYIrssHAHgBYOiBN19hUQcO+f6Xo6vt7IK/sgAWJIB4F3/2glcpc4Nt5I3d4qD/6gZVPiwnBH1XGbRfepFb+2QIgAVVR9YsQogC4ZVAsCQvakP0VNl3layey2XiLcSdsM5ittTi/yB0wtcn4xhSt3EMqKXPKzDwAMVWVCi6KaIUoI8XEtGo1qrc9qQASh8bI0UUDFU8wXvA1A6q1ZKWcsrP6DG504VlgFoOvRVarda7CqFjljlPWfHPgBWCoADcO5nf7Q90QsFRNPaHu0eeLsNEUOfBSEO8Dtlk7F2wbPZ0WYA3PDjZYp5hUJe2//NVkSc5ufWPs/zv7vYSvA72RitYC2jsDYIQNmc/VKgyiP1c658T1gGQMbSv8ehOkXsnPq29y+TElMub/OxM4SJShRp/DDXiLx160AOx9SZBdMEwC0DuN1AxGQwVatzmi4AeePnSgNVyQubhcGfP4eiJ8VsUexA331sNvodoVAtnil+6V8ub+mig5Q1+DmhZQ0DaNnvhQDEsIVvJvmBADSApNNaNvGoFaxlFNZ0ASh6VF6fuujFf0Tv/OcIQOl8sYv/NLnoZSn7KXB5bVj8xy0VEAAFBeB5CcvrxtkFgFZ/SqGRwVStzmm6ABS/tEVKBqBswUGhrX/+HGQt/iN6Ux1O0TtyIfp45vA3rWn9swhAABQTgLE9iBjWXgb2+XkNBCAlhOPMLGgFaxmFNV0AeJS+aEjx+YqeXCdcAERv/Vtf7zWfUtNhrwuFassb35cS0+L39ggtp7ulreptCIBCAnB9L6KRnSAAFmUMZDBVq3MaLwCvbxcPqzWfUN71c4QKQPaI6VSxUvz8/6LpNcKh2nLCbPExXfsptb5nifCyqgp+p1wQAEUEYEIfolGdjrZSkQFQsrUuI1OgFaxlFNZ0ASh+VvxStdxXLzJu2SNn0Jnnv0S8UY/obEXrOxYJh2qzK98WXs6K1R9T04tfFl5WB7SqHiEAigjAVWefgB4E4EQsDM8GyGCqVucUCTIVz1Vwj/glgAsfXCFUAJpd+Eo9+ISvq7/yI2pygfj19Hk9AdFLABdasvRvoohAABQQgKu7NgQeBKBhPAyWAK1gLaOwKkJbaJlGz6KKFeJS6xXVH1Lu1eKW/m1xyYn++ZY3iO1bL3h5s7QWNZ9bZLaC654IRxvuQwBiFoBx3U+G3VMSZgHwOQ0Gqa51k8FUrc4pFLajZghtGYsqG8/XFwWr4qni5v63HjatIfQGP09lCw8KK+tZguf+u4HcfMx0YeUsXXCAss55vmEsBtmxFgAEIEYBuI4H/XU8GcwPF4ifBcDnhAAoFwOtYC2jsKIgq/J5eC+A8srwu9ZVLP+A+Fwi6tp2+DvUOAn0RI2wz3tho3Sg5gvKArScaGfrn4UKAhCTAEzofWLQXyKYby8WLwC3R7QbYGJdcD+tdMhgqlbnFAEzHc7Ba/aHWbu+YvUnVHDXMiHwzx45nZqc+0JKQOc9ty5U65oX/hG57a+75e++3eSil0JnLHKfXpsyDu5rmXobAhCDALhH/CcD5FXtiWY1FycBs5oRXdUhLYiQHUiSiUn22Qh+TCtYyyisDvAWVUYevBdorv3qj6nwgWoh8M8Z+S41Pf+ltNBrfM5UCtq65nS66Hn/6eB75uVvUOmiQ4GEJf/FTdam/p2YQgBiEIArXSP+UwGFN8rxs9BPutdOiWEnwFT1wuMNREwGU7U6pyi46nKe/NuXUPmSI56BVb74MOXftkQI/LNHzaAzhxwd8e8AIOVx8HPU9sHl1M7H2gA8kp5b5SnPKalfnafvFbyxzXNMeb0D3kzIpjX/U30mEICIBWB0lwYASNnyHtuOiFvu6cDu5TnOJPC5AF4lY6AVrGUUVhdwCy3n6FlU+MRaqlicuuVavugQFU5eSzmjZwqBP5e/+UWv+oYzt7DznllH5VUfJAVsxZpPqPDN7dTi+pm+z50KSkEfbzF+FhW9vSNlVwvXIW/KGjrzshMzH4Jey5T3QQAiFIAxCdP9MkGZt8r1Avl0r7mnSEnwQUiOdjnIYKpW5xQKVkVnAaSrY97E+VRwf3U97IseX0MF91dR7vh5wqDvXLvF0DdCAZrn3vPI+9a3L6hvPfMCPy2un0VNLoi+xZ8JvpyFYBloc/diavOPpdTq1vlUPyNhsJ0j/dPFCwIQkQDwGv+ZgJ/s+Ufzg0sAvzfZOfGYMnHRCtYyCusACkd5UxhbXTaNGktKv6eDC55TfyohBCACAbguIPwdUHMr3k93AKf970bLXwf5kcFUrc4J8MsDP8e29eVvUxZavqGyHyaLDARAsgDwXH8H5GGO49oR8WC+dCLAz/Fr0OcvJuZhPi+P79UK1jIKCwGQJwBteK7/4KmAH7IfKb8DEACJAjD+2O5+HmHgSRR4iiCvE/BwPtFTOUf/eZEfnuePqX7agN/5rGUwVatzQgDkCMDRhX4Af5Nb7yLqBgGQJACZ5vqLlAKcSzvwQwCOaQoEQLwAtB0xnZqck3qhHxHgwDnU79/38hlBACQIwETe2reztlBy4ISj/MWBtGqtyygsBECsAPAqf03PA/y9wA+vwVLAwgWovuUP+EMevMmDDKZqdU4IgEABqF/lT/z2uwClGa39ZJ+jcADeIKFFrcs5ueV/FeAP+HuDP8dJK1jLKCwEQJQAvEtnng/4J4McHkstMBAAQcIysS/RVR6W+EV/PbpGXN8BGUzV6pwQgPACUL/E7wUvpxzpDQCmBqDtsYEACBAAbvl7XeLX9eOPlrL3lrKpsdIK1jIKCwEIJwDZI2fQWUPUW43PdrDqUn8IgAABuNrj+v6AP1r/Cd8BGUzV6pwQgOACUA9/tPyR+QixzgEEIKQAoOUPqCdA3U+2QitYyygsBCCYADD8zxyCtL8uLW1VywkBCCEAaPkD/iHgj0GAjRo1ggAEEYB3Af8QrV5VYRxHuSAAAQSAB/yh5Q/4h4Q/BAAC4HvXP6T9MaBPpChAAAIIAFr+gL8A+EMAIAC+BAAD/gB/kfDnc0EA/AgAz/PHgD8/fdx4bfqZDjK61bU6J7oAvHUBZI/ktD9G+4sGoO3ngwB4FID6tD/m+QPo6YHuNz5awVpGYSEAmQUgewQW+bEd1LLqDwHwIAC8vO+VgL9fuOH1mWVBBlO1OicEIL0AtB35LjU5Dyv8yQKg7eeFAGQQAIY/VvhDn7+gPv9EKdIK1jIKCwFILQDZvKsf4I95/hJnPEAA0ggANvYB+CWB3xEBGUzV6pwQgOQC0Hb4O9Tk3KmAn0T42d765/pDAFIIwITeRFd2AgAlA9ABoa1HrWAto7AQgJMFoM0Vb1OTwc8D/oC/9O8ABCCJAIzvRTQK8LcVylHWWwZTtTonBKChALQe9hZlAf7SwYfW/9EplRCABAG4rifRSMA/SgjafC2tYC2jsBCAEwLQ6tI3KWsQWv6Ac3TrHUAAXAJwbQ+ikZlHbtsMLNRd7PdDBlO1OicE4KgAtBz6Olq9SPlH/h2AABwTgLHdAX/090c+5kMrWMsoLARgBjW78NXIf/jRyo6ula1yrK0XAF7g55qukf/woyUttiWtazxlMFWrc9osALy631nYzhfyE2Pmw3oBwKY+kJ8YMx9awVpGYW0VgLYjplPT814A/GKEn8ot86jKZq0ATOTV/ToDfjHCT9dWu8hyy2CqVue0UQB4ml/jczDHPyrI4TqpuzusFIDxvTHND+BXQv60grWMwtomAK0um0aNB6f+QQasEJsovwPWCcC1PYlGYJqfyFYszhV8PIMMpmp1TpsEoMUlryHlj5S/Ut8BawSgfrBfN4z0R8tfiZa/I01awVpGYW0QAAz2Q6s+yla9n2tZIwCjMdLfgQ6OwVvsomMng6landN0Aahf0x8b+ijV6vUDSNNfa7wAYEMfpVq8ogGq+/m0grWMwposALysb+PBGOxnOkR1rp/RAoBlfQF/xbs8ZDBVq3OaKgAthr5OjdHfjZa/4t8BIwWA+/vHdQf8FIef7q13EeXXCtYyCmuaAHB//5lDXgH4FAefzq12kWU3UgCwuA/kRxP5kcFUrc5pkgC0ueIdanIuFvcRCSicS+4ASqMEYEJvLO6jCfhEtJ5NOIdWsJZRWFMEgHfyw/x+ubCCDIiPrzECMK4H5vcD/tplPmQwVatz6i4AnPJvhvX80eWhaZeHEQIwBlP8TGgN21gHrWAto7A6C0Cb4Uj5o1UuvlUeZUy1FgBe0hfr+WvX6rUR9KnqLIOpWp1TVwFAyl9v8EUJWZWvpa0AIOUP8BvQ5aEVrGUU9pZ9RPhHDOL6DrRb+ynZ/N+4OpfwjxjE9R34+txuZPO/DKZqdc64fvhxXUjHpFqyGv4sPnH98OO6kI6s6lyr4c/ioxWsZRQWIAaI4/oO3LwPAgAQA8RxfQf+Xp0HAZABVZ3OGdePP64L8bgJGQBkANAFEtt34G9VEACdWC2lrAAxQBzXd+DGvV+iCwAAjA2AcbW8Vbnu36rykQGQQlWNThrXjz+uC/G4oRYCoAoMUA77uiLOgABgDABADBDH9R2YiAwAWr/IgMT2HTijEhkAjdrqcooa148/rgvxmAABiO3HHy1++1r8iZ/5X5EBQAYAIAaI4/oOjIcAQACQAYjtO/AXZAAgAHH9+OO6EI/r9mAMQGKrDPfRMo/qO/CnygIMApSTWNfnrAAxQBzXd2Ds7i8wCwAt4NhawFGBVtXr/GF5EQRAH1TLKWlcP/64LsTj6l0QAFXhgHKZn4n4/fJiCIAcrOpzVoAYII7rO3BlDQQAoDUftKp+xr9ZVgIB0AfVckoa148/rgvxGLHzc3QBoAsAXQAxfQd+DQHAIECAGCCO6ztwxQ4IgKqtQ5TL/MzE/ywtRQZATrtan7PG9eOP60I8LoMAoPUbU+sXgpNLv1paBgHQB9VySgoQA8RxfQeGbv8MXQAAICQopu/Az5eUQwDkYFWfs8b144/rQjwu2AYBQEvU/FS7qp/xTxZXQAD0QbWckgLEAHFc34FztvwbGYCYWn+qQgnlik6IfrSoPQRADlb1OWtcP/64LsRjwOZ/QQAgAOgCiOk78IOFHSAA+qBaTkkBYoA4ru9A740QALR4o2vxItYNY/3dBZ0gAHKwqs9Z4/rxx3UhHt03/BMZgJhaf4BhQxjaGI//mn82BEAfVMspKUAMEMf1Hei8DgJgI3hQZzXk47R5XSAAcrCqz1nj+vHHde0Wj0n7iNqv+xQZAGQAMAYgpu/AKXO7QQD0QbWckgLEdoM4rs//xr3YCrjd2k8Bv5jgZ3sW4m9V+dbD/+tzu2Ep4LgAgOvaLR7X7YEAQADUSIXbKAN/riyAAEAAGjUCiO0GcVyf/2hsBVzf/WEjfFDn+MXnd8uKIAAQAAhAXAC0/brDsRMgBADp/9i6gE5fiq2A0QXQCAJgO4jjqv8l2AcAAgABiE0AsA/A0QGQckbWaXTWuACA69rd9TBkK5YBxhiA+FPhtnZH/HhxO3QBoAsAGQCISDwiMnAzBAACAAGIS0B+uLAjBAACAAGAAMQjAFgG+OgaCHEBANe1Wz6+s6AzBAACAAGAAMQjAF2xDDDGAGAMQGxjAL45H6sAYhAgBgESBCB6AZhUi1UAOf2PLgC7W+FxZWGyqnMJqwBiEGD9UEUAMHoA2h7z8VgFsB7+EAAIQBwS8BcsAnS8+0Oj8fpyimo7jFD/6AUIiwCd2AMhDgDgmnaLx++WFx8HIKfBbf6XQ1WNzgoARg9A22M+DIsAIQOA/v/Y+v9/tbTMaui7hUcjVMspqu0w0q3+4/d8Qb03fkwFq45Q08qD9f98u8/Gj4mf06E+F2797DgAnb5wW49ojavfGm+2opA6re1Hl266im7dfi89sPNxmrJrKr205w16dc80z//P736ZJtc8Q/fvfIxu3X4Pjd96C12+eQx1WzeIWqwsiUwIfoo1AI4LkByqanRWHYCBMhJdteszyqo8QF+bvZP+Y+aOpP/8XOPlB+pfq3LMsAYAugBUFp8m1XnUZ90QumvHgzRn3wI6UHeQPvjgA6n/dR/U0cZDm+m92vfpkZqn6OKNo6jNynIpUvDDhR2OA9DdGrbxtkaollNUlUGBsh3tnui07sO04E8Ugq/P2klnr/tQ2WxAz43/QgYAswCkwC2MWFSs7kl3b3+QNhzaJBX2XmXiSN0RWrJ/eX3G4NwNl1HTFflCYvbt+VgDwJEdOVTV6KyArNpjALJXHk7a2k+EfrL7OSsPKykBndadaPLhMZoAACAASURBVAHbmvp36h0GWHivmO6Ds9f2pxd2v0qH6w4rAf5UgrD10HZ6rOZp6r/+wlAicOrcrsgAHBv8qBGq5RQVAqCuAHDLPxnY/TzWeb1amYCJmALYIPsBiIuBeJA4Fq3uQq/sfpM4/Z4Kuqo+XnlgBU3Yeiu1XOFv7MAZVfmAv2vmgxyqanRWCICaAsB9/pzK9wP7ZK/lcQFX1nymTCbg6l1fNACg0xK29RgEXHhPOGngVPqN2+6g2rpa7cCfKCQ7DtfQ7dvv8zxe4PfLiyAAEIAThgIBUFMAeMBfMqAHeazx8oPKCMCwHZ9DAI71/7P0AObhYO43foWrO9Ps2nnagz9RBPYc2Uv37niYsle2S/ud+tUSTAF0+v/5eIKElt6CAKgnADydL91of78SwJkEVaYIno9tgBsIkF+A4fXBhWHwhqG0/fAO4+DvlgHOCFy1eTzxTIZk3xVsA9xw4SNLsX+i2hAA9QSA5/T7hXym1/fd9LESWYC+mzADwN3dkexHGo8Fh3yq2A3deCUdqDtgNPzdIjBv3yLqunbgSRLw3QWd0AWALgAIgMrik7fqiHAB4MWCVKjz2ev/2aAF7IahjbdTAQuPi5OAa7feTEc0HOjnBnqQ2zyrgRctOmtF4XEROG0edgFEF8AJ/jdSAQooQ8MsxJmVB4ULwJlV8Y8DuKH2S8Df1f+PMQDiIJ9KmEZsGmsl/N3CsPRAJZWv7kGYAdAw/Y8xANgOWGqrePSuz6j7ho+oeHUdZa84TKWr6+qX8R2XYcneM5aJGwDodA3wOVOJ1qR9RJdu/xcVraojHjD4uyX76M9L91Pz6kPU8//vjrg2Q3lTnTfx8TGYAXCSAKUCFx4PLwe8eM7BukPWpP3d0E+8vfdILV24YRzS/670PwQAApASionw8nqfYdp/8yf084V7U7bivzJzB/3vkn10wbZ/Jr1+VAJQX9ZNn9CP5u9JWVYWiK/O2kHNqg/RmF2fJy2v19hcjk2AIAARbQLUbk0vI6b5JYI8zH1e7+CGzS/QN+Z2hwgcEwFXMtzOm15/vPG6hmn6ZPHgljKD3Wl1ezlyi5tT4+7zRSEAE/Z+SX9att9XWU+dvZMGbvqkQVnd5c50+1zMAIAARCAAzVcU0bIDVWj5p9i/4Omds+lb83tDAjANsBHGAOzLDPZMYOPnebGdH8zd7QuojiBwtmDc7hOta9kCwNf62YL0rX6nbIlHzl50CbjPQC/sAQABiEAAHquZAvingL+TQXht10L63vx+1kuAnc1+V629wA2vSS8J3Jr+SYY0eiJIE+9zGv6aYxIgUwAY/mHLyl0CQ7Z86isTMKmWqEPCADgbR/0n1hl9/eH7+t0x7L52MPEmOg7ocEy9i+H7tSvpJwsHWy0BLhTaeRNwTw93L/FpKmjUPoOZAS1LAETA3xGX78/bRTcmdF2ki9W43VgCOBH+mAUgFv5Nq/No4f6lgH+G1r9bihbtW0v/vWCAtRJgJ/VdtU73o43nMsvBFTv/TZwWd8AY9siZgD8u9dc37+Waf1qyP3TLP/E67dd+4DkLcAWWAD4p/Q8BECsAwzeNBfx9wN8RgWm7l1o7JsCFQjtvAvKZIZ8uRi2qDgmDvwPY096vof+YuV3gebfTabP5nOJEhc/10/l7PAsAlgBOvgWyO32N28GFgJe+rTqwEgIQQABYBJ6rmUOnzetpXSbATuq7ap0ObnguvRzwNLrvzt0lHKxiQS1SJE4WiNE1JwYvpvu+9MYAQGQAJA4AvHjjKMA/IPydTMCdW1+HALjYaMXNdD/aeC69AIzd/bnV8GdROcfDYEAeANhxXfIWcLJ+cZseQ6s/eKvfHbsZtbMhACEFgEVgwJq7rZIAKyCfrpKAfHrIp4vPZTv+pbAAyG35O1mKbus/ytgNMBYDAJO2/jEGQAz8eYvfKEf+76vbX9/d8G7tLHp1zzTP//z6OfsW1K9RwLv2OS1vlY61dQfor0uHWSMB6dhoxXPpAIfn0ssBL5/rgFCtYzTw5zr32JBZAC7DAEAIgMT0/03b7owEptP2vksXbRxJLVaWHN9cx52F8Hs7e2U76rPufLp+6y302p63aKciUrB0/3r6zvw+VkiAFZBPV0lAPj3k08Xn6l0qdgFEB38WAC/rAQze8u+UALQp3Z+srn6hgdefnDWYVTtXqgCsPbie+q2/QAj0031+PI2xz7oh9ETNs7TryG6pdcqUdXhw+9sQgHTgNOW5dIDDc+nl4OZaov+qH7F/8uA4eRmBdIBP95z4MvKCQF42Cuq6AVsAJ4M/ugBOhnk6QCZ7rvmKYjpQd0AaLFkuuKWe7NoyH2u2opBGbb6OVh5YLa1umSSguPp64yXAFI4Hrgcgnx7ymeKTVSl+575g8hAt/LmMv15cm7H/f+JebAGcCv4QgPACMHjDUGmArDxQTa1WlEYOf7dYcFbgsk2jac3BddLqmUoEqg9sMn59gMDgNOWNmQCH59MLwoXb/qnAOIDo4c8C0GfjxxkFYFTN50j/p1kC2f1jj9v+heDGbXdIAeP+I/upbHX3WOHv/j7wBkd3bL+PuFypgC3j8dEbnzI6C2AKxwPXA4BPD3gv8fntYn87AAZr4SdL4TP444H/LxftJV4HIVN8Ltj2GQQAAiANpFN2TZUCxPt3PiatzG6w+73dbnWvSHc63HfkIP1m8UXGSkBgcJryxkw/4Hg+M+R4MZxvRT4WgIUgHvj/55waGrnzs4zw5+8OdgBMv/6BXwDg9Q2zBDytTnTLl6cU5q3qoKQA8OfP2YDJNc8Ir3eqOD61cxYEwBTgJ9YDgM8MeC8xGrL1n/T1WTsj7A6IB/5cR66rl5jcVEvUPk3rN13fuC3PAegNge43HusObRAOwrn7FigLf3d8rt16cyTrHxz5oI7+svQyIyUgkYfW3ffyQ47XeJOEc7d8GpEExAP/r83eSYM2f+IJ/vydubIGOwBmEhn3Dzpu+5eB7Yd3CBeAe3c8rIUA8PeFBwgeqDsoPAaJ2YBHdkyHAJhoB4C7N7h7jZN8CdAD/hyvIej/zzj+AdD3D313zPZLmAJ43dZJ2ggAx4IXJzpcd1iqBByuO0K/XXyxcRJgItN91ckr2PA676IgTwL0gT9/X3pg/j8EQOIKgAw/GUsAj9x8rVYCwHEYvXkC1X1QJ1UC7t32JgTAF101eDHA7h3sfmIlXgL0gv8NtZj/nyn9z8+7W7O47T8bsOfIXuHQ46WFdfws7t7+kPBYuLsCao8coB/M72+UBGiAaLlF9AM1vNafLIiTAL3gz9+TkZj/n7H1DwHwD/xEMG85tFU49CbvekZLAWi6Ip9m184THg+3BJi2W6BcumpwdkDdH9T9xiu8BMQH/4E+BvwlxuV8rP8PAZCc/mcZkLFULs8sSBQNXe7zzojbD++UJgHTdi9FBkADrnsuYuIPN+6LF4JzIpsdkGyxIP+P8VQ/LnOY70LX9Vj/H10A4Vv4mcD79t73pMCux9pztJUAHsPgbrWLvM3jDE5fdIExEuAZlKa+MMyPPN7rXRZ0kQAR8L9uD/r/vcAfXQDhBeGhnU9Igd2M2ve1FYC/VBYSt9RFgt99rpEbnoAAmCIEgLh3iIeNleoSIAL+HKPLtmP5XwhAeLhnav3z89dsuUEa6C7fNEZLCfjlkjI6Y+kw4gV83OAWdXvG3ioIAAQgOnCGBa9K7w8/JsB/St/L3gO8yE+YPn93jPtt+pen/m+vkDT5dV4gh9eklolOa/tJgRzDcl/dfuq2dpB2EvC9hR3rAc1L+IqCvvs8B+sO0/fm9zNCAkzheOB6uH+4cTsaqVEtEyCq5c/fH17+twOW//UsQIB7arh7iU2T6jzadni7FNAx9GrraunCjSO0kYC/V+XRKfO61cM5a9kV0tYGKK6+HgIQmLoKvRHQjwb6iXFWRQJEwp/riOV/02/+k5jN8AI5vCa9JLy85w1pAsASwIsNPV7zjNIbBDnfkd8sK2kA5mm7l0iJzcTNUxtc5+tzj0qHbkeFUBxPURLBZNr9q3Z9RoM3f0LdNnxE3Td8ROdt/ZTG7f481Ah3UTGKuztAZNrfiUnQ6X9Fqz6m5lV1lLX8MP19+WFqVnWE8ld95LklnQhWXe47P9w4pod8uvjwevjuFLWs25wNeHH3azRs09XUaU1farWiVLnMwI8XtWsA5n6r75ISm7m1qxpcRzfwO+WNh7oKXdX54TbpeGPtl9R+7Qf00/l7ku7O99VZO+j0RbXUe+PHnva0lxmbuDIBolv+Toy6+Jz+13j5EfrhvD30lZnJxzZ8Z85u+vOyQ1S+5hMjZSAd2PCcNyng7XF3HdktBXQiZYI3Llq+v7o+m3DOhkuJuy9Ef8bfnHd2AzB/f34/qpWwXwKPA/jmvJ4NruVAVaejQiiOpyjOD7cpxyFbPqXvzd2VFPzJBsP9YuFeGuFxb3tZMYpaAmTBf+xu77v/5a78iL43d7fnz+mb79dQy+oPjJMA0QCw9XxP1DynvAAkysTi/ctowPqLhUnAH5cXJgXyszXvS4nNH5YMTXo9CEA8LA90VVlQi+O8XdZ9SNy6Twb6dI8xXFgc4iizc82ougNkpP2dOlzscfe/llV1dMqsnb4/p6/O3El/W37YKAmwFdii691hTR9p094SwS3yPi+sc9f2B4RIwP9dUpEUyBeue1CKAFSsmJj0ehCAQCiO503Oj7fuR25FB4G/IwYyweg1trIzAbJa/k79um/MvPof9/N/NQD8nc+JuwrOqjxijASIBqHN53t19zQpoBMJ/FTnunfHw6El4FvzG6b/HRD/dekwKXG5bP2jEIB4sC3uqs6Pt87HMbs+p1Nn+29ROlBxjrIB6SXG9SJT3x8udg8ABief20sZgrzmeg+r/4WF//HPaXYNFa762AgJsBnYouvede1AKdsDp4K2yMc5E3D55uALD/25siAljE+Z251qjtQKl4B/bJuW8pqOfKh+FEdSTc8U5MdetfecVXXQdzrZgUniUYVMwK8X1Qqrj1M/HvQo83MbmmH1P1Hwd+rzq0X7IQARbLYjGtKyz/dEzbPCQScS9OnOtfXQdmq5oiRQJuDnS8rTwnh27QrhcXlt18K011Qd/lw+TbEtrtgyoRDFua/d80Wo1L8DFPcx7kzAGcsOCBcAPqfMz6PnxtSr/4mGP39WPB6geLX+MwNkA9G287ddWUE82j4daFV+7uZtdwUSgG8v6JQWxg9tf0d4TGbVrkh7TQiAOE5LO5NMKERx7p4bPxIOSwZMnJkA3QRgwh6edpl8ARwZ8HdkjacQ6jLfP1U5bQN0FPWNal0AGSKx9EClbwH4a2V+RhCP3viUcAFYun99xuuqLgHSwKrLiaOAtMxrNK8+JEUAGDJxZQJ0E4BUm//IhD9/Pv9jQDdAFEC08RqTa54RDjwZwE88J48FyF/V0ZcE/DJD+p8hfPG6h4THY93B7RAAXUCfqpwy4RzFuf+0bL80AYgrE6CbAPRKkv6XDX/+bH4yfy8yABgHkBSWvDgQt6YTAavD/V7rzktap1Qi9535nTOCeOCau4XHggcWqt7Cz1S+VFy05vEoIC3zGr9dvE+qAMSRCdBJAMbvPTn9HwX8+XP573kQgFRQwOO5lL+qE607tEE4+GRLxEUbR3oWgL+kGf3vhl+3VbcKj8OhusMQAN1NQSacozh34+XiZgAwVFL9RzkmQCcBSFz8Jyr48+f0i4X7kAFABiAtLCtW95S6W6AMGRjoY3XAn6VY/McNf77dd/WdwgVg75EDEAAIQDy76TlyUbSqLiW0U8E86ONRjQnQSQDci/9ECX/+DP+w5CAEAAKQVgA4E8KrBG48tFk4AGXAn8/J0uI1g5Nq8Z9EARiy9n7h9d90cCcEAAIQrwBcuv1fkQkAQyeKTIAuAjDOtfZ/1PDnz6LtSv13C/T6Q4/XedsYKFWcilafTVUHVgqHoGgJ2HJoq+dNgv64vMgzgEdsmCy87lX7N3m+fqKQqHJfd36HLr/Tktb1OGkf0Y9S7PoXtKWf6X2yMwG6CMAFx9b+jwP+356zW/vWP08NTAUsPB4O+Mni13plGb2y+03hIBQpAbyQUbKyJ3vsJwlb/6aD6u1bXxVebxO2BA4NUN1PoCv43eXuv+mTSLMAsjMBuggAb/0bB/w5/qbsB5Dshx2PiYe/O6bXbr2Z9h/ZLxyIYUXgUN0hare6l2cB+Oa8Lp5b4G/sXiy8vtN2L/V8/XRyEudzuvM7dPndINX59p+Xyp0OmCwrICsToIMAjN71RWzw/8kC/Uf/OwsDucGE23LB745v+eoe9M7emcKhGEYCHql5yjP8f7es2Bd81x/cLryuk3e856sMcYI+1bVDA1T3E+gMfXfZJ+z9kn62YE/kmQAZEqCDABSv5q2Xw2/AlEys0j323Tm7qGyN/ksAQwCig70b/Im3L9k4SomxAfP2LaJmKwo9C8B/L+zgGb4/XXgO8QJDYeQk2XvHbJziuQypABz347rzO3T53RDV/fa4PV/QTyMeD8CwEj0wUHUBGLTpE/paDPD/1pzdVLjajF0AIQBqCAALQZPqPGIRWLh/qXBIJgNn4mMM/9xVHTzD/4yqPPrGvK6e4dtt1S1S6tVj1W2eyxA36FNdPzRAdT+B7tBPLL8JEqCyAJy75dP6JZLTtdJlPGci/DEIUB0JcDIDndb0pft2PEobD22SAk03/LnPn9P+flr+XM5fLS3zBd57tskZ+Nh02Qhf5UgF4Tgf153focufCFAT7usuAaoKAOCffMMjpzUf5OiAB0f1ZKDdml40butN9PKeN6jywAo6UHdAiBTwVD8e7e9nwJ/7+/FtD0v/OlD9xtzuxGv2u8VDxG3uUvje/H4QgNAEjvkEugF//J4vqPfGj6lg1RFqWnmQGJbJ/v+09ACdNrsm8jEBX5m1k05fVJu0TMnKmeyx787ZLbzcfM5k1/L62K8X1dJX06yUKKPVz+f8+qwa+tH8vfTTBbVJ/3k1wN8uOUBNKo9QiYbdA+4fdtxWTwLcn0nT6jwqW92deqw9h87ZcGl9t8Hlm8aQ1/8B6y+qhz53ObjP6+f2H5YX+oJuXtU44fBngVhzcJuvcjhCotoxZvzGf3ldBOCqXZ9RVuWB+v52WbDBeVMvhaxDbHhQ4s8W1lL+Kn0WCPLz44/Xqi0IUXw+P/Yx959h+8D2t6UIAJ9XNZgHKU/8BI65BDoIQKd1HwL8MbS+dYB+sjKyCJyx7JAWCwVFAQ1cwwxx+Ht1Lp3qY+7/jxcOIl6vX0TKP/EcfVbfAQGImd1CLq+6AGSvPCwgHb49xDnCvFfvFnUyuPp7LEzswrz3aNx/s3i/8hIAOJsB5yg+x18tLfUF3bGbnpYCf5aB/1k0xFdZgrTOo3iPEIjqfBKVBYBb/v6Akw64QYAS5D3pyoDnvH2e4uKueiYgCnDgGmZIxrcXdPYM3R8u6E81R2qlCIAJewA4cqEzu4WUXVUB4D5/XmTHGzBkgFUchOrr8J6MMko6p/CyCo6lj+4Q7g7IU3jTIMDZDDjL/hx/73Pw301bXpQCf27937blVc8i4oBW1aMQiOp8ElUFgAf8GQN/H8CKr86SZEKBuv98wT5luwJkgwPnN0Mw/ntRe8/Q/evSYXSw7rA0AWhVOdpzWVQFv1MundktpOwqCgBP9ePV9eTBMF2LNN1z5kJSXqzdMUsX23TPuc/h/zZnAUoVnSIIQJsBaJmf4xmV+XTK3G6eoHvqvB707t5KafBfeWALnTK3u6eyOJBV+SgEojqfREUB6LPxY4nwdwCSDDjJHnNej6M8SZAf96aVR5TMAsgEB85thlz8bEm5Z+Bes1HewD9O/4/e+JTnsqgMfqdsOrNbSNlVFIC8VUciEIBEoMuHkDyAJtYF9xNjzYsFBVmpT/Z7AGkzIC3rc8yqzqVvzjvbE3RzqsbS4boj0lr/LAC/X3KJp7I4gFX9KASiOp9ERQE4s/JghALA4Af8E4EZzf3o4v6LRWqOA5AFDpzXDLH49bIST8D905JLadvhPVLh/9aepZ7Kojr03eXTmd1Cyq6kAFRFLQBoMUcD/MQ4RycAv1wIAYAU6CcF35nfKSN0f77ovPqlebmFLvO/qPq6jGVxw1WH20IgqvNJVBSA/Mi6AKIDUDyATQSuvfd/hy6AwOvPQxziEYffLy/KCNxfLDqfluxbJxX8LBXv167MWBYdgJ9YRp3ZLaTsKgpAfIMA7QVkvIIiX8QwCDAeiEEegsf9+ws7poUup/3XHtwmHf4sAO1X3pC2LIlg1eW+EIjqfBIVBSDeaYCQgHhlQHz866cBrvkEgwCrg8MIII82dn+uLEgL3PyqcdL7/J3uhEX71ho19c8tJzqzW0jZVRQALlPj5bIWApLf2jQNoLrX5+eK9v/zDAOANVqw6hLvH6VY+Ifn+fNUvyMf1EXS8mcJKFsxIa2MuIGq220hENX5JKoKgJylgAF/9WEu9jPi1n/Bqo+VbP1DAAD/ZEJyRlXyhX/+tuxyqYv8OC1+9/HZmveNhT/Lis7sFlJ2VQWAy9Vtw0cCpwOKBYt3kMZ1XRGpdJ3LfrT+2AwIkE0GWZUf++niigbQ5Y19eG3/QxKX93VD37ldW3eATl90QYOy6NbCz1ReIRDV+SQqCwCXLSf27YDDgfT/KLAWvndZaVjXeMseXj5+s1jNxX/ciwupDCKULXp5OqMqj06d17Ueuj9eOKh+5b0dh/dGlu534M/H4RseNxr+yAA0atRIdQHg8p297sMQOwOGB0lQgOJ9DYUiqnhw2v9vyw8rm/aHAEQPVl1k5udL2lFe1Th6YPvbtPfIgVjAz/DngX//Oa8XBEDn1r2XsusgAFzG0bs+o8bLD/oUAcA/KuiqcB0GPw/4U7nP3w1/jAGACLCY5K/qRMM3jaUpu16kdRFN63O39BNvs3j8eellxsMfGQBNMgBuSeEpgrxOQMGqI8RLBp+x7EDS/z8t2U+nza4ROIbAW2v2K7N20umLapOWKVVZEx//7pzdwsvN50y8TuL93yzeTz9dUJv0/4dz99BXYujO+PqsGvrR/L1Jy8Rl/cXCfcSL/PA8/1JFp/olQt99X5eWadBy5q/qSH3WnU+XbBxFl28aY/X/VZvH0/VbbqFbt99DT9Q8R7Nq59KWQ1tja+Ungt+532f1HVbAHwKgoQC4ZSDV7XG7P6efzN8jHKKZWrm8hfGgzZ9QqnJ5fZzBnOlafp/nc6a7/k21RJ3X/TNt2rx5VR1xK9vvtcO+/ltzdlOhotv5umEe5HZQsKr8vpYrSmjStrtp2YEqqotwupoDMByDLwl8//a3rIE/BMBAAdAd/gzpOARg6PbP0sLfgRsk4FNPcXLilemoMsiDlO2KzdfQtsPblWvVQgoyS8GC2jX07Xl9IABe+s5NeU26VqFuz5kA/zgEwEvr3w0ySIA4CQgCWVXf848dj6DFL3lDHlkis+bgNuJNhbhVbNO/KRwPXA/dIJ+qvDw24P8uiD7t//VZO+mcLZ+mTa+nKnOqx6POAFzisfWvggR8d+5uLfv63bFz31YV5n7Lxf3asuCE82ZuvYeJ0dZDu+mPS4ZaBX5HcgKD05Q3poKQbo//een+yPumZcCf4x6lANy490vqtD59378bWO7bcWUCfrpgr9A0vLtOUd/2C1oVXz9w/cWRLk0bBnZ4b0OZ4BH/Zy0baSX8MQbAkDEA/Td/Ygz8oxaAC7Z56/tPBca4JOCsyiNGSICKQPdTpibVebRk/3K0/jVM/TP886uvtRb+EABDBOAXC/dGKgCiRvunyrJElQGYuPdL6rgufH92HBLwvbm7IQAK7O53zoZLAX8N4c9pf5tb/ugCONaHkQpCujx+xc5/Rwp/WWl/d7yjEoDztv5bGETjkIDclR8JK3+qDIfsx/20tlV87eRdz0AANBMAHvD3B0v7/B3wO0dTuvID18MNHh1vd1j7QWQCEAX8+TOIQgDG7/2S2gto/bsBGbUE/HXZIQhAzFmA5furIQAaCQBP9bNxtL8D/MRjYHCa8kYdoe8uc8vqQ5EIgOy0v7tOUQjA4C3iWv9xScDpGmz2445Nstsqtur9lGnn4RoIgCYC8ND2d+g78+2a558I/MT7pnA8cD3c4NHx9t+Xi181L3Hluqha/k78ZQvA2N1fSG05R5UJ+NnCWqn1SAZs0Y/5ga2Krz1QdxACoLgA8GA/m5b3TYR8uvuBwWnKGx3o6Hrk/QASgS3yftTw589BtgD02fQv6eCMQgJ+uXCf9HqIBn7i+VSEup8ybTq8BQKgsADwrn62bOyTDvSpnjOF44HroSv4nXIXr66TJgBRpv2d+iQKwP8JsQGP+70sFXzukTWfRwZN2RLwx6UHI6tLIrhF3fcDWxVfO2ffAgiAggJQW3eARmyYbMWWvqng7uXxwOA05Y1u8Oh4+/ytn0oRgDha/k78ZWUAJtUSddsQbNGfoMCTKQEtqz+AAMQ8CPCWbVgBULXFhabWzKXTF11g9fx+L/Dn15jC8cD1cKCj6/HmWqJvvS9229844c+fgywB8LrhT1DYp3qfDAk4dfZOqlgbfg2DVGWO6nEVW/V+ytRudS86UncEWQAFsgCc7i9bMQHg97GfQWBwmvJGXcHvLneJwG6AuNL+7vr8elGt8KzGrxbVCln0JygYRUuACel/jqUf2Kr62md2vQgBiFEA5teupt6r76BT5/UA/H3AHxkAQ1YCnLD3S/rvebtDQzPulj9LAG8s9NUQ/f6pBkB+ZeYOYggHBbiI94mSgG/N2UVlaz6JtS4i4mGKABSu7kxbD2EL4Ki7At7as5SKqq8D9H1C3909YEpDPnA93C1PnW8P3f4v+sbsnYElQAX4n7vlU+JypIJ42Me/OmsnnVUV7xr6YSWA49N2xYdGwN8UAeDMRO9159P+I/uRCZCcCVh5YAtdvfEp+u3iiwH+EOB3JCAweR2oxQAAEqtJREFUOE15o87QTyz7kK3/pNMCjAf4r/driN+beL4o73PLXyb8HXlgCYg7E8CD94LI2imzdlILAwb+ubMHqqb1g5SLJQCZgIa77YnIClTt30S3bXmVWleOplPmdgf4BYAfAnDMYKKEXBTXGlXzGZ3uow/914tr6cqaz2KFv+yWvwN/56hCJiBv5Uf0w3l7PGc7+LV5q/Rf+98Nf5MyAI4wFKzqTE/vegEDA0NkAnit/ge3v13fr/+rxUMAfIHAd8DvHE1pyAeuRxRQjvoak/YRDdj8Cf1+yb6krWpuff5p2X4avPmTWMHPcYmq5e/A3zmqkAlgAHKXxI/n19LXknR9cBl/NH8vmbL1byL8TRQARwTKV/egSdvuptm184gXCzpYd8j67gFekW/zoRpacWAzzaldRdN2L6HJO96jazY+Td1X3UpNl42g783vB+BLBL4DfucYGJymvDFqOEd9vRtrvyQeH8CwZ9hevvPfdEPtl7GDn+MQdcvfgb9zVCET4ECRB/Vlr/yQmlXVUbOqI9RmxYdUbshAP6eOyY4OMHHMNWJGhPtz/NGidoB5hDB3oO7naArHA9cjaiDjelQvH3G1/B34O0dVMgHJ4GjDY25g4LY5EvCHykLAX3H4sygEBqcpbwSQjwI5yjjE3fJ34O8cVcoE2AB9dx0BfXOg73yWWdW59O35nSEAEAD1NSFK8OFa8fX5O7BPdUQmIJ5VBR1o4GiOCPxiSTngrwH8kQEwZCEgXcRCtZZ/ogwgExC9BAD85oCfP8u/VBXQN+Z1hQBAANRv/XMJdYGn7uVUpc8/EfqJ95EJiFYCIABmCcD3FnYE/DWBPzIAEIBIZgPoAn9HBiAB0UkABMAcAfifpaWAv0bwhwBAAKQLgOppfwf6iUd0B0QjARAAMwTgjMp8OnVeFwgABECP1L9TSt1T6yqXX1f4OzIACZAvARAAMwTgh0j9ayk/DgetPaoMUJ3Lpjv8IQHy4c/TASEA+gvA/y4r1hJ+nAK3/d9a8DsV1xmyqpbdFPhDAuRLAARAbwE4oyqPTkPqX1uRcDho7VFViOpaLtPgDwmQKwEQAL0F4IcLO2gLP9tb/xgEiEGAQgcBmgp/SIA8CYAA6CsAGPWvfxeCtS1/p+K6trRVK/f5Wz9NuvOgA0/xx+2et9IVeW0eGNiyqo7cy9nidnBBgADoKQC84M+pc7Hgj+5ZBIeD1h5VA6mO5Rm+89902vs1MQA5Hgk4ZdZOyl35ESRgbXDwO9IEAdBTAL67oBNS/wYMIrQW/E7FdQSuSmWeVEt0+qLaGOC/I9Zrfn/ubqpYEx6ADghtPUIA9BOAX2Ktf2Pkx+GgtUeVYKpjWfpv/iRWEItM7/s911mVR5AFCJkFgADoJQB/qizEWv8GtPydrgtrwe9UXEfoqlTm3y7eF4MAJEv9J3tMbpbgR/P3QgAgANasZfD3qjz61gJs8+vA04Sjw0FrjyrBVLeyTNz7ZcQD/xjo6UCf7jnxMsADAsvWfAIJCCEByADokwH40aL2xqS+TYC3iDpYC36n4rpBV6XyDt3+rxha/+JB7jf1735925UfQgAgAMZnAf53WQngb1Dq35EHh4PWHlUCqm5lGbgpyv5/P617P68NJxRnVWEcQJgBjMgAqJ8B+Cs2+jFWfqwFv1Nx3aCrUnkHWjwA0MkCNMOaAKEyICYLQMXqnnT91lvokZqn6KU9b9Cre6Zp+f/0zhn0xI73tP+/bcsrNHLDE9Sm8mo6dV4PY6HutO69HB0OWntUCai6lQVdADsIXQDhpkKaKABDNlxBSw9U0gcffIB/RWOw5dAuGrb+Ufr2/D5Wi4C14Hcqrht0VSovDwL82uydEscBiEjlizhH8m4CDAIMB3/uOjBJAFqtKKXX97wN6CsK/WRCtvLAFjpj6TBrJcDhoLVHlYCqY1l+v0T8NMDTZotfVZBX73PS9qKOP55fGyr9Habv3JT3miIA2Svb0fL91YC/RvB3hGDPkf2UUzXWSgmwFvxOxXWErkplHiB4HMBP5u+hPy7ZLwHWe+nbc3YLPS8WAkIGgAWm6Yp8erd2FuCvIfwdCdh+eA/9bsnF1kmAw0FrjyrBVMeyTNpH9D8L9woBK8N/3O7P6fRF4rMKP11QS0WrPhYmAT+Ytwet/xDT/5wMhgkZgBu23g74awx/RwLe21tFp8ztbpUEWAt+p+I6Qle1Mo+q+YxODTkWwIH/sB2fE8NaVJreOQ+fk6EjQgK+PruG8lZhMyAH4mGOugtA65VltPNwDQTAAAFgEShfMQEC4MDRhqNqMNW1PEO2/pO+EVACfrZgb33Lf+zuL6jD2k+lCoAjAd8N2B3wNd4OuPoDtP4FtP75s9BdAK7afD3gbwj8WQCeq5kDAbAB/E4ddQWuiuW+bMe/6Ifz/PWz/235AeLZBPx/9vp/1oNVZgbAaa3yEr5+r/Nfc3ZRW2wDLFR+dBcAjPo3a6pj7ZEDVk0NdDho7VFFkOpcphtqv6SS1XX07Tm70qbxf7loL5275VPiuvKWwn02/es4WPyC2Unzpzs6XQCOADjH5lV19L256aWFZyX8YclBrPsvqNXvxJ6PugvA2oPrkQEwKAPAWQCbpgVaC36n4jrDVuWy31xLNGTLp1S6uo6aVR2krMoD1GbFYeq07kO6suazevA75T9367+Pw5+hEKUAODDKW/kR/XXZIfr1ov30s4W19MuF++qh37KqjiokgM+5ru1H3QWgtm4fBMAwASiqvs6abgCHg9YeHQjhSA2gHFU8hu74rAH8GYi/kDALgIFuO2xVrL/+AlALATBMAAqqroUA2GIEUYEO1zlZMEbv+oLaJ2ld/3bJgbTdB+lS/ame+92SAxCAJLGOWwp0F4A1B9dBAAwTgL9atDKgLZxPWU+A+WQwRxGT6/Z8SZ3WJ19IpknlEeEC0LQSu/bFDftk19ddADAI0LBBgHUYBJgSliY+EQXscI2GksEDBbttODriPxkUSld/TLzOfqrWvN/H+Vylaz5BBgAZAOGDDkdtvg4ZAIMyAM/WvG9N+p93CzSR6b7qBDg3hLPseNy8j6jPxhMj/pMJAD/GA/H8gj7V63+O/n9l5Uf3DECrFWW0AwsBGSNBZVgIyBc/tX+xbODh/A0FY+DmhiP+UwlA/qqPhGQBuPVfsOpjZQGYqv62PK67AHD5J2y91RgAOsvi2nh8a89Sq1r/yAA0atQIgG4IaJnxGJIw3S8T5P6+/HDoLMAZyw4B/gqm/p3P3gQB4M2A3tk7ExKgcVcAbwb028XYDEj7Fr3fCsgEHs59Qi4u3X7ydD8HAumOv1kcfGfA3yzGyP90sVXhORMEgOvQdmUFLdtfBQnQUAJ2H9lH2VVjrGv9IwOADEAkc/9H1nweqhXOrXg/gwL5tX9bfjjUNVWAow1lMEUAuB4tV5TQq3umQQI0koDqA5vIpml/DH33v98Gs3GvRyv9RCtdRizG7Dq6wU9YmPGYgJ8v2JdWBBj8POAPff7Jp1eG/QxkvN8kAXDqct6GYbR4/zKIgMIisPlQDQ1d/zB9a37vBkB0w9GG28YB3W+FZEAP5zwqFdfWz/VPPd0vCFB4imCT5Ufod4sP0C8W7qv/50V+eJ4/pvrpA37ns3egaeKxbHV3um7rJHp455P00p7X67MDnCGI6v/l3W/Tkzvfoyd24J9jcNvWV2j4hsepVeVo+sbc7laD35Ebv7w07vWAtZwMwPV7Tuzu5/zY46gfoGV/ZiaCX4U6/aWygE6b3wWQS0h5O+DD8WhXgHFA91shCIB4AZiw90vqemxrX9kAwfn1lgoVYGlaGf5alU//Oe9swB/wz/gd8MtL414PARArALzKX/eNYtP+gLzekE/3+ZkG37jrc0ZVPn1rPuCPFn7DwX6p4mEc0P1WCAIgTgBuqiXq5WGVv3RAwHPmwj7ZZxs3ME26/t+q8ug7CzpnbPWlggEe9wZNk+Lkl5fGvR4CIEYA6pf43ZR5id9kEMBjdkHf/XmbBOA46/L36jz67oJOgD/S/r6+A8YB3W+FIADhBYDh338z4O8GG257k5o4oWnKtbOqcun7Czr6+uE3qRWLugTPXPjlpXGvhwCEE4BJtYA/YO8N9sniZAqE46pHVnUufX8h4A8JCCYBxgHdb4UgAMEFgOE/AC1/rDgYYq+BuMBpwnUZ/j9Y2AEtf6T9A38H/PLSuNdDAIIJAOAfvNWbrCVs62MmgDiOOgD+wVq8yBQ0jJtxQPdbIQiAfwFg+A/EgD+0/EO0/B3hiQOeul8zqzqPfoC0f+BWLyTghAT45aVxr4cA+BOAoy3/fwN+AuDnQNDmo+4wjrr89S3/RUj7A+InIB4mFsYB3W+FIADeBYDn+fdHyx/yI1B+ogaoztf7Owb8odUveLyDX14a93oIgDcBYPj3BfwBf4Hw58yHzkCOsux/r8qj72GePwQAAiDWQSAAmQXgxr1fUm+s8Af4C4Y/BCDXkwD9rSofi/wIBl+YtLlJ7xVLUw3PBgFILwC8tn9PwB/wlwB/CEBmAWD4f3s+lvc1Cboq1UVDZIstMgQgtQBM3Psldd+AjX1sHqQnu+5RptF1u9YZldjYRyVYmlgWsTTV8GwQgOQCcP0ebOkrG344P8YApJKSP1cW0H/O74I+b6T+pX4HNES22CJDAE4WgLG7v6DO69DyB6DlL3aUCoA2P/6HykI6dR7gb2KLW7U6iaWphmeDADQUgNG7vqCO6+T/8AOuiDF/B2wGfbK6/25ZMZ06r6vUVp9qEEJ5xMzpDxJHDZEttsgQgBMCMHzn59Qe8MeAP0kD/pJJXzII2vrY6UtL6JS5gH8QkOE9wSRCLE01PBsE4KgAXLbjc2of4Q9/MhjgMfuyArbCPrHev1pahlY/+vsj/w5oiGyxRbZdACbtIzp/K5b2hXzEIx+JILTtPi/t+5PF7SL/4UeLOViL2bS4iaWphmezWQB4dT9s5xsP+CAcR+NuG/Dd9eXV/bCdL0Acp1RoiGyxRbZVACbsxQI/gHD88uMGok23/4oFfpD1UKDLQyxNNTybjQLA0/zOXo9pfhAACEAc0vGH5UV0Gub4QwAgAPEbg20CMKrmc0zzw2BHZWY6xAHgOK/5v8tK6BsK/PDHmXbGtdXp9oifwDGXwBYB4MF+l2z7DCP9AX9l4M8ZmDhhHPW1f76kHK1eyI9S34GY8Rv/5W0QAB7sN2gzRvoj5R9/yj/xM4gawnFcjwf7/XBRB6V++NEKV6cVHuNncSB+AsdcAtMFgNf0x4Y+6oEvEYS23o8DyFFe8y+VBfSt+WcD/mj5K/gd6LoiZvzGf3mTBYCX9e2EwX5KpbxtBX2qekcJ46iv9dv6ZX2xpn+MLVwFoatO5uGUud3ujZ/AMZfARAHg/v6h2z8D+NDfr/x3IGooR3W9XyxGfz/Arw7sk30Wp8zvUhgzfuO/vGkCwP39A9Hfrzz4UrWIbXs8KiBHdZ36/v6F6O9PBhw8ppIQdK1sRGP/I34Cx1wCkwTgut1fUo8NmN9vG0R1rm9UYI7iOn+q7+/vjLQz+vtV/w58/tW53VrFjF41Lm+KAIzYifn9OoPQ1rJHAeYornH60lLM7wf4VQd/fflOmdt9qBr0VaAUugsAp/wHb8EUP1sBqnu9o4CzzGtwyv//wxQ/LcCHLohun399TrcRCmBXnSLoLADX7UHKX3cA2l5+mXCWfe4/I+UP8GuT9ei6FGn/JN6hqwAg5Y+5/SbIg2xIyzo/Uv4qDWhDWZJkNw5+fW7XFafM7faP+tH+1Oj/JMEfHkIEEAFEABFABBABRAARQAQQAUQAEUAEEAFEABFABBABRAARQAQQAUQAEUAEEAFEABFABBABRAARQAQQAUQAEUAEEAFEABFABBABRAARQAQQAUQAEUAEEAFEABFABBABRAARQAQQAUQAEUAEEAFEABFABBABRAARQAQQAUQAEUAEEAFEABFABBABRAARQAQQAUQAEUAEEAFEABFABBABRAARQAQQAUQAEUAEEAFEABFABBABRAARQAQQAUQAEUAEEAFEABFABBABRAARQAQQAUQAEUAEEAFEABFABBABRAARQAQQAUQAEUAEEAFEABFABBABRAARQAQQAUQAEUAEEAFEABFABBABRAARQAQQAUQAEUAEEAFEABFABBABRAARQAQQAUQAEUAEEAFEABFABBABRAARQAQQAUQAEUAEEAFEABFABBABRAARQAQQAUQAEUAEEAFEABFABBABRAARQAQQAUQAEUAEEAFEABFABBABRAARQAQQAUQAEUAEEAFEABFABBABRAARQAQQAUQAEUAEEAFEABFABBABRAARQAQQAUQAEUAEEAFEABFABBABRAARQAQQAUQAEUAEtIjA/wNH15RrRXgYjgAAAA5lWElmTU0AKgAAAAgAAAAAAAAA0lOTAAAAAElFTkSuQmCC;fillColor=#5D7F99;strokeColor=#D0CEE2;fontColor=#1A1A1A;" vertex="1" parent="oj4uOmL9cDN1MrVRwgIF-24">
          <mxGeometry x="20" width="50" height="50" as="geometry" />
        </mxCell>
        <mxCell id="oj4uOmL9cDN1MrVRwgIF-23" value="&lt;font style=&quot;font-size: 8px;&quot;&gt;Weather Forecast&lt;/font&gt;" style="text;html=1;align=center;verticalAlign=middle;resizable=0;points=[];autosize=1;strokeColor=none;fillColor=none;container=0;labelBackgroundColor=none;fontColor=#1A1A1A;" vertex="1" parent="oj4uOmL9cDN1MrVRwgIF-24">
          <mxGeometry y="41.695384615384626" width="90" height="30" as="geometry" />
        </mxCell>
        <mxCell id="oj4uOmL9cDN1MrVRwgIF-25" value="" style="group;labelBackgroundColor=none;fontColor=#1A1A1A;" vertex="1" connectable="0" parent="1">
          <mxGeometry x="250" y="191.7" width="70" height="69.99538461538464" as="geometry" />
        </mxCell>
        <mxCell id="oj4uOmL9cDN1MrVRwgIF-20" value="" style="sketch=0;outlineConnect=0;dashed=0;verticalLabelPosition=bottom;verticalAlign=top;align=center;html=1;fontSize=12;fontStyle=0;aspect=fixed;pointerEvents=1;shape=mxgraph.aws4.quicksight_paginated_reports;fillColor=#5D7F99;fontColor=#1A1A1A;strokeColor=#D0CEE2;labelBackgroundColor=none;" vertex="1" parent="oj4uOmL9cDN1MrVRwgIF-25">
          <mxGeometry x="16.480000000000018" width="37.04" height="46.6" as="geometry" />
        </mxCell>
        <mxCell id="oj4uOmL9cDN1MrVRwgIF-22" value="&lt;font style=&quot;font-size: 8px;&quot;&gt;Noon Reports&lt;/font&gt;" style="text;html=1;align=center;verticalAlign=middle;resizable=0;points=[];autosize=1;strokeColor=none;fillColor=none;container=0;labelBackgroundColor=none;fontColor=#1A1A1A;" vertex="1" parent="oj4uOmL9cDN1MrVRwgIF-25">
          <mxGeometry y="39.99538461538464" width="70" height="30" as="geometry" />
        </mxCell>
        <mxCell id="oj4uOmL9cDN1MrVRwgIF-31" value="" style="shape=image;verticalLabelPosition=bottom;labelBackgroundColor=none;verticalAlign=top;aspect=fixed;imageAspect=0;image=data:image/png,iVBORw0KGgoAAAANSUhEUgAAAfYAAAH2CAYAAACC6668AAAAAXNSR0IArs4c6QAAAARnQU1BAACxjwv8YQUAAAAJcEhZcwAADsMAAA7DAcdvqGQAAMLiSURBVHhe7J0FYBtX1rZfWyzZjoMOMzOnoaZpk5RT5hQW+y8zfbvfMvO30KXutltu06bcpk0phVCTNMxMtuMYYhJYtv/73hk5siPbkizLsn2edmLNHR6N5r3n3HPPTatVQBAEQRCEDkG6+VcQBEEQhA6AttjXrtuMw0dPGCVtYMCnp6ejhsdtC+dBWhrS1VRTU2MWJBe59ra5dh6btMm1q3uepv7oq26ja++sz1yaOnZb3nfSps9cW3znCnnPJffatbA//Mzb2Lz/FILV1UhLt9S9dOpePoqGZbGsE87566v/aqpRw5uvbkB6LUvrr0Ma7iec0DqksfUarsP56toadewa9aWreX3d59aK5njh59hw/abWOffZOL7+0aWdu+/hhMoa/iWNLYtmHf0vr189bKFrb7hNOA33SRquE05oHRJxX7XVxktG/+gsje6rqf2E0/Cc9DGMj3WcW4fPXA0PreC9T290u8b2w7KGf0ljy8L/1qhr54+cIoNmvvcQza3Dz6ThOuHUrV8TVM++mle/N0vYtZPQfkhj+4pmHdLwnDhfd+2N/N5Y0nCfDcuaWqfhXxL6zGeOxw49c6ThOpG2D9GwrLl1+JkY+zPec/ycrq5d3QG9LLQOabivEC1dh8vCnznee67E9bgs0vokVN7YOuFlTe/HfMerFULPnFF+bruGf0lTy0I0LIs0z2vnu4b3PfTMNbUfY43z1wkntA6JtF5oeei+h565ptYNP37D9aJdp265Fvblq7B+11FcOX8i+vbIRFVV8NyeWhGL+pKLz5bjmdXbMbx7V1xxyRSUVlTwHrQ6/KIzMzLwzrpd2HI4F1fOHIb+/XqjOqi+iCQc32qxIvf0Wbz4wTaM7N8dl1wwHn5/ICnH5iGsVjuee2MjTpf7cN388ejeLRPVqmKXDGxWG/YfycPbWw5gwuBemDdtFHy+5Fw7a+5VwRq8sHobAoEAblw8Q52Pqs3zx5cEHDYrdu47jtXbj2HRtGEYPqiPOp8qc2nrwt9beYUfz6lrH9izC65YOAUlZ0uNCkYScDrseHvtduzNLcXVc0ahd8+u6tqT8Mypr9Zqs6DwrA8r3tqMycN644LJI5L2e9PWYm06nn3jQ1Qrdbtx8UwlMjXJf+a2HcGSGSMxdGDvpD5zpeods+KdrRjRtwcWzR2PsvLy5D1zdjveWLMNB0+XY6l65np0z07Oe059tTZ13/OKKtS7ZgumjOyDWROGJ+8dHxL2D/fn4jPXz8WY0cPMRcmhoKAAP3ngNczq1Rt33LPILE0eL7+zCS+/vx1fuWUuRowYYZYmh5079+EfL2zAqO5p+Nyn7zBLk8cf738JR86cxTfvWoi+ffuapclh9XsbsOKD/ZgxKBPLbltqliaPn9/3LHyBIH785ZvMkuTx8itv4bWtubh14VjMuWCKWZocfD4ffviX5zBt3EDcdPkcszR5/Pm+B3CwwoMv3zQTgwcPNkuTw+Ejx/DHJ97DzMGZuOPW5D9zv/jbs6iqrsH3P3+DWZI8Vr6+Gi9vPI47l0zAzOmTzNLkUK6E/Ad/fRHzpw7FtYtnmaXJ449//Q+OeDPwzdvnJf09d+DAYfz56TWYPawLbr3pKrO09akXPOcL+M1PycPr9cKq/pbWBo2CJHO6qAi2tBr4fQ6zJHkEqoxac7Is5YbUqJcM4XeQbAL0Cimq26Ddi9dbo6rU9NpUVlaapckj9L37zXuQTHi9tKIKzpaYJcmFViqntnjmvKpSQ6rN5z6ZsH2XjzqN9Crz+08mxjFrlcWY/GPzmbNa0pFfUmyWJBfec2XBttEzZ2hqMBmeqTBSJiqe7dxtQbp64NisX1PTNuLapqSda1fvdPDX3kYYbsi2Oz6PbEmSKzS1MK+5jS89WW7o+rTtRdfU1Na1rXcm2ua7TiFhF9qGNn7HtR1tLmyd9s63WSVeULTRc99WAheisxkwIuydHLHY24pOe+fB6GihjWij557NXm1JZ6tLirB3csR4ais6750Xi73zIRZ7chFhFwRBEIQOhAh7J0e8om1F573z4orvfIgrPrmIsHdyOq1XVILn2gxxxbchEjzXKRBhFzonbR48JwhtgDz3nQIRdkEQBEHoQIiwd3Kk/t5WdN47L23snQ9pY08uIuwm4SNNdSY6bXNnJ25j55Fr2/D6LZ32oUsBpI29U9Dmwm6321FVrWrxbZQvvToYRHVNGqz25B+fjzoHhahuo3S2HFkroI7P76AtqKrhtSc/b7fD4dCj+AXVtfNzsqH1wu+9LV43+trVsWuSnLs6BH9vbfXM2SzG7y00RkIy4ZDUQb5r1HvOauXoGMmFwxQHq2t1zvRko9/xzJXfRu944763zTPHpN1V6r4neyz4eqO7feyq6Zgycay5KDb4siorK9MPbrS1M75kDh48iAdf3YF+nip85bN3oqQkeYNTZGdn4y//fAQHS9Jx6/zhmDx1UtIGCnA6nfjooz14avUOTOjnxj13XIvS0lJzaevClwzv/Z/ufxn5lX7ctWQsRo0enbRrd7lcWLt+K15Yuw8zh/XAjdcu0s9OMmr1fKlyUIr/rFijB8T4zG0L4Ha79Y+/teFvJCMjA2+8vRarPjqGqy4YiflzpqCiosJco3Wx2Ww4c+YMHnhxE7LSy/HVz96V1N9bly5d8MBDy7Ezvxq3LhyBSZMmJm0QHv7eduzYgcff3IuZw7urZ26x/r0l45mzWCz6xf63x9/SAvPZ2y/W30Uyn7m33lmPVzcdwXVzR2H2rElJu+8U09zcXPznxc3o6fDiy59J/jN3/4NPYe+ZWtyxaBTGjh2b1PfcR5s2Y/l7hzBnVE9ce/UlMT1z/O64Dz67sZIwYS8uLtZCGQ/5p88gIzMTHlfyrSevP4iiokL065NjliSX3Pwz6JqdpceqTjZlSlDKK7zo06uHWZJc9LV3zYbTnnwLpqiElahadMvuYhQkmdy8AvTp3dOcSy4FhcVwuT3IcCX/mfMFa1FUUIC+fXqZJcmFz1z3Ht1gtyTfWcmx7/my7toJn7k89Y7PzMxS7/g2eOYCfMcXo28bXTufuR7qHWuLow7JUfni8TQkTNgLCwvRrVs3c04QBEEQhJaQd+oU+vTrZ85FT8KqrclwaQmCIAhCZyFeXZWoeEEQBEHoQIiwC4IgCEIHQoRdEARBEDoQIuyCIAiC0IEQYRcEQRCEDoQIuyAIgiB0IETYBUEQBKEDIcIuCIIgCB2INhX299ZvR15+oTknCIIgCEJLqSfsthaMOhRrovrDx3Lx+8dexb+fWmWWCIIgCIIQIi09vsxzdbniN+7PxdILR2H8iMExj37DJPUcNWrChAlmSfP4/FV46sXVeG3dNkwePgAfv3kxuneLbxAZQRAEQehoHD92HA6nI2ZNrhP2dTsPw2KxweJwm4uiJ1BTA5clHV++4yL0i3HUpieefxv/efUDzB01BD/4yh26jCMGS+Z5QRAEoTPz/Kr1eGX9fmQ47aiNYSj9OmHfsOc4BvV2I91bjppY9qDgGOzZXbrizjuuh8sRuzt/xavv4bl3NmFQr2743LIr0DunbYYRFQRBEIRU4cMtu/HO2+8hPcZhhusN2/rZG+dg9Mjh5qLYULsxP8XHy2+ux1+ffhPThvXH9754Kxx2VUNR5Y1Z7nTlOx02c04QBEEQOhZnTuejZ05vcy566lUDvN6A+Sl2iouLzU/xceUls/DZGy7GkfxC/Oj/HtPR8o2J+sEjp/Dd3z6Et9dsNUsEQRAEoWNRXV1jfoqN+vZ9GzdsX7XoAtx59XzsPXEaf3zgBZwpNCoL4b4ARtP/4cEXUHC2DBnu2CLxBUEQBKGj06b92COx5MLp+NbHrsHJorP44Z+fRGFRSV194+CRk/jRX59CoCqIH33+FsyYPMpcIgiCIAgCSTlhJzOVYF85bzJyi0vx+38/j7z8M9r9/n8PvQRLeho+dfMSDBnYx1xbEARBEIQQKSns5NalF+Frd12FXGW5/+Rvy/Hr+5+FPxDEtz51PWZMGmmuJQiCIAhCOCkr7GTOtLGYP3U0zpb74PVVYeGMsRg5tL+5VBAEQRCEhqS0sB89kY/Nuw7DYrUgTZ3p+u0HkHdacssLgiAIQmOkrLDr6PcHXkCZ14/bL5+DO66aj+JyL357/3M4diLPXEsQBEEQhHBSUtiPHs/Dr//1LPKLS/GlO6/EpQumY8mF0/CVu67CsTMl+Nk/VuBUXoG5tiAIgiAIIVJO2Ddu3Ydf/WsFvIEqfOK6SzBl3DBzCTBp7FB8edkVCAar8Usl7oeOnjKXCIIgCIJAUk7Y9xw8jpPKUr/9inlYNH+yWXqOOVPH4DO3XYr80nL89ZFXIiaxEQRBEITOSsoJ+9WLL8AP7r0RSxZMM0vOZ/rEkbheLT+UX4hf/P0ZHD+ZL6PBCYIgCIIi5YS9S6YHU8c3PxDNLUsvwtK5U3Sb+33Kci8tK9PlYrkLgiAInZmUDJ6Llo/dsgTf+cS1yCspx7d/96iOlhfLXRAEQejMtGthJ7Tub14yS6ef/dtjK1FWUWEuEQRBEITOR7sXdnL5wpn41t1LcaKgGN//w+M4U1RiLhEEQRCEzkWHEHZywdTRuPPqC3GysAR/+e9LKCo5ay4RBEEQhM5DhxF2wiQ2X7rjCuw4loef/OUplJwt1eUSUCcIgiB0FjqUsJO508fi9iUX4EThWfz90ZUoLSuXgDpBEASh09DhhJ1cf/k8LLtsDt7dcQC/+9dzZqlY7oIgCELHp0MKO7nm0tm4dt4U7Dqeiz8/+AIqKr1iuQuCIAgdng4r7FAy/unbL8dNF8/Ey+t34F+PvmqWi+UuCIIgdFw6sLAb3Hz1Alw/dzLW7D6Mfzz6CvyBgFjugiAIQoelwws7+fSyK7B4xjg8/8EWPPz0m2apIAiCIHQ8OoWwk0/ddhmunDUBr6zbjn8+ds4tLwiCIAgdiU4j7ORzd1+NueOG4QVlua945X2zVBAEQRA6DvWFvRM0Pn/h41djzpgheOqN9Xj8+bdRXVNjLhEEQRCEFCJOTa4T9lolcJlutzkXO9nZ2ean1IXR8HabHV/95HUY1rsHHl+1DstfetdYKAiCIAgpRG1NfMqeVqt4ePkqrN11GCN69UC3nl0RtASBKA3ZNHXcqqpqVJ4px72fuBIuh9NcktqUlJTiZ/ctx9HCYvy/6y/BxXOnmEsEQRAEoe1ZvWYbNny0F70GdEN1MPqO2nXCvm7XEVjS02Gxu7X1H0tf7+rqGrid6fjCbYvQV1nCqQ6vjdd4/GQ+fvaPZ1DhC+B7996AUcMG6OWCIAiC0Na88OYGrFy/Fy6rLSZNrhP2D/fn4poLR2H8iMHwer1QxcoaT6v7S8I/k9C83W7HmTNnMGHCBHNJ++Hg4ZP49b+fU9cCfO3jS0XcBUEQhJTg2NHjcLocWpNDRKPN9YT909fOwvixo8xFsVFZWQmXy2XOtS/2HjiOX93/LBx2G/73czeib05Pc4kgCIIgtA2n8/OQ07uPORc99aLiq4LV5qfY8fl85qf2x6jhA3DvLZeipMKL397/PAoKS8wlgiAIgtA21NbE4oA/R6fqx94Us6aMwudvuwy5RaX47b+e1YPGCIIgCEJ7Q4Q9DI7lftMlM7DnZD7++t8XUR7WriEIgiAI7QER9gZcf8V83KOmLQeO4wd/eBx/e+hFlJVVmEsFQRAEIbURYY/AdZfPxdyJI3AorwDbD51Epbf9xg8IgiAInQsR9kb43N1LsWjqGBSVVmD9lr1mqSAIgiCkNiLsTXD3TYsxqGc3PLFqHVav22aWCoIgCELqIsLeBBkeF77/5dswvHdP/N9jr+KDjbvMJYIgCIKQmoiwN4PH5cSd11+MnlmZeOTFd3HoyClziSAIgiCkHiLsUTBiSD989zM3oqa6Bj/6+9M4mVtgLhEEQRCE1EKEPUoG9uuFu65bCH9VFe5/8nWUShc4QRAEIQURYY+BudPG4Et3XIHtR07hz/99EWs37cLv/vkMysorzTUEQRAEoW0RYY+R2VPH4NoLp2HXkVz8Z8Vb2HcsD4XFZ82lgiAIgtC2iLDHwbLrL8bF08eioLQCIwb0xuABsY++IwiCIAitgQh7nHz81ksxY9QgfLT/GFa9u9ksFQRBEIS2RYQ9Tjik/Zc+thQDemTjn8++ibWbdxsLBEEQBKENEWFvARkeN77+qWvRKysT/3nmLRw5nmcuEQRBEIS2QYS9hfTo3hWfvmUJfIEq/OnBlySQThAEQWhTRNgTwKSxQ/G5Wy/D8cIS/OmBF1Gr/hMEQRCEtkCEPUFcMG00rp4/GVsPn8Q/H3lFl/n8Abz5/kdixQuCIAhJQ4Q9gdx1wyLccskMvLB2G55/bQ0KlQX/wPPvYOPWA+YagiAIgtC6iLAnmJuXXoQ5o4dg+ap1OHA8Hz/5/M24eO5Ec6kgCIIgtC4i7AnGkp6O737hVgzO6a6Heq2tTYPNZpNWd0EQBCEpiLC3EndcuxDdPG789dFXkZtfoPu9C4IgCEJrI8LeSowZMRBf/9hS5BeX4hd/fxYVXp+5RBAEQRBaDxH2VmS0EveblszCqaKz+O/yVWapIAiCILQe9YTd6bCZn2LH4/GYn4RwrlkyR3eDe3X9DvzrsZVmqSAIgiA0TVp6fI24abWKh5U1uX73cSyZORw9sjNRXV1jLo4ei8WC2bMmmXNCQ35131PYsPcIvrLsSsybMc4shR7TvW+vbhg0oLdZIgiCIAjAwcMnkJ9/BjU1sWmyFvZHlLCv2XlEzSgT3ulWxbHFcFepioDTmo6v37kY/fr2MkuFcIpLSvHT+5ajoKQM3/nU9boN/ujxXHz5tw/jksmj8PmPXWOuKQiCIAjAipVr8PK6fchw2mPKaFpnsW/YcxxzJvRHN48TwWDQXBwdtep4docDiy+eY5YIkSg+W4pv//YR2CwW/PxrtyMrMxMfbNyFfr26YvBAGdNdEARBOMeefUdw+PAxJenKYqfQRkmdsH+4Pxf3Xj8b40aPMBfFht/vh91uN+eExnhrzVb8Td3vSUP64lufu1mJvNVcIrRHqoPVCFZXq9+cqk/X1KC6gcvMkp6GtHQL0tLSYLWkwWLl9y2dHwVBaJ4zp/PQMyd2o69e8FzAX2V+ip2Kigrzk9AUF8+ZhE9dtxDr9x7F3x962SwV2gsUcq/Ph7KyCpSWlqG8slJXav2BAAJVQS3s4VNArc9lXKei0tiuvLwCPp9fVQRia/ISBKFzUV0d3zuifnc3MSSSwuILp2Hu2KF4f/sBvPnBFrNUSGUo6BUVlUqcK1EVqFIWumGZh34y/KuMcuNvhCkELXst+Eroy1Vl2Kf+isALgpBIpB97G8AX/Tc+ezMmDumLvz+1Cus+2mMsEFKOqqpqbWFT0OlyTwRa6FUtgCIf8AdQZgq8IAhCIhBhbyMs6sV+53ULkel2YPkrH6C0rNxcIqQKFNtKb6W2sEm45Z1QlMD7lcB7K70ypoAgCC1GhL0NGdi/t047e7qkFD/763JluVWaS87BMd0lHW3yoZXu9wXOc6W3FjxGIBhEeVmFDsITBEGIFxH2NmbsyMG45dI52HMiH48886ZZapBfUIT//cMj+MuDL6A6hq4OHQm2P9dWV+s27urqoDEp4WtN8WMgaI06JtvMkwkPV1Nboyty0u4uCEK8iLCnAFctmoVLpo3Byg078fxra8xSoEtWBiaOGIQxwwdo1/3ufUfxh3+tQMnZMnONjglFOxCogreyUgeYlVV6dRt3eYVXTxXKmqZ3gwJMj0YiRb5CHYuViKSrugmPWq0qFZVer1EgCIIQIyLsKcJn7roSs0YPxlOr1mPLrkO6zOmw484bLsHSxbN1//df/+d5bD14Qr30O55rnhYq27QprBRtdimrUgJbQ0+F6a2g6NXJrSoLVtfA72N0uVqfgtxCgWc7t07O1EaiHiIk7lVV8Xc/FQSh8yLCniIwUc3d118MqyUd/3jiNWWVl5pLgL89/DL+9MRKZLoc+ObHrkbf3j3NJR0DCjrFPKBEuprCqkQ7JK1NSSyXUYMZXV6ltqMlz/7h8UArnefR1PGSCasyrGgIgiDEigh7CsE8+wymqwxU4c8PvohN2/bjJ396DKs27sD88cPx06/egbGjhphrt38oXGVl5VrQlcmeEEs5EAjowDftTo8SegtSzQvCO0EPBPvMC4IgxIIIe4oxYfQQLL1wCvadOI2/PL4S+47n47oF0/C1T9+ArMwMc632DdvE6T5nNjZa24l2fTPwjW3y0Yo7Xd4cPSlVrPUQPJ9Yx20QBEEQYU9ByiuUBavEjgFkM8YOxZ3XLzKXtH9CbneKb6uh7h1d2RT35lzz2gWvrPx46hbM/x4+tQYtjRsQBKHzIcKeQhQWleC3/3gGL3+wBUN6d0fP7AzsPnQKp/IKzDXOJ6Cszapqw6ozQsxSF6ZkZd/wUDBcaxKSWbrmedxI1juHQWSQXrTnExJwBvTV1BjBe+ETy0LrJQp9aqn+xQqCkFKIsKcITCv7v//3ON7fcQBLZo3Hj796J75411XwBavwm389j6KSc8F04fzh/mfxvV8/hIIzRSnnSg5BUeXgJ0zJ2kqGbZMwwpzWO7vH0QvCihC7yZWVVWoXfHNooVYTB3kpr/SjwmtMlWriPCd+Zlm5NwC/Wo/rp6W1/Oelc8ubeekFQRCiQYQ9BXhu5Rr8+bFX4VWic9viWfjkbZfp8qGD+uKeay7CkTPF+M+Tq3RZQ7IyPNqg4yhiqQjb02kVc9CUtq540Kr2qXOprPDq9n0dsBcFzBdfocWb3eHUfQ6zoNPVRXEKwUqMV61XWRnQFQpBEIRkI8LexlQpsVm/dR8cVgu+oiz0W5ZeZC4xWHDBRCyZPgbvbd+PV97aYJae4zN3Xolff+fj6JeCXeC0pa5ENFXaiUP6y7/NVTJC7vRKX5W2xFkpSFcKzqkpQutUKVEvq/Spa69tkeXOfVnS5WcqCEL0yBujjbFZ0vGxGxfhmx+/BhPHDDVL63PPTYsxfcRAPPnaWmzefsAsTX18/tSw1OOBLnCvv0pZ60FDrGO8CL2+sux1Zrw4Xel0DLRF04UgCO0bEfYUYOSw/hg9YpA5dz4upwOfuesKLTb/fnoVKhjwleLovuTKym2PukRr3R+oQiBgiHq8aMs9WKP2FazzAMQCt0hPQDu9IAidC3lrtBN6dM3GPddehJIKL/7235e1JZiqeCt9rdudrRWhAOu2+EB1i0Q9BPfArHi6v34c2O1285MgCEJ0iLC3Iy6eMxk3XDITb23dW2+wmFSCmdICwap27UM2AuTiE+KGsHLAPcW8N3V8m9UKi9ViFgiCIESHCHs74/rL5+GCUYPw4rsf4cOt+8zS1IBDqjICvr1KumGtV+tubYmw1luEOhen02HOCIIgRI8Iezvks8uuQHaGC/96ahUKi8+apZF5b/12/O2hl+IeHCUWAn5lqSfI0iUU2vApRKSyROFX1xBKNNNmmNZ6mkTDpzxMflTh9YLJjgQhVZA3RzukR/euWHbNRThTXoGHnnnTLI3MkRP5WLfrIPIKis2S1iFQpSzdBA55StFmP3CfElr2IWea3VAyGCNJTEAHuBnrprdY5Lk9XfAMdmvUWg8VK+GNts2cdQRVBYnai8G9plsscLldRoGQsvD5+/U/nsE3f/UgfvbnJ/Cn/zyHR599C++qyvSho6dSOg5G6NhYfqjYtusQThWVY8rIvuiTE19/aK+qtbpc8jJKFv379IC/wouVG3bAptRj7MjIUfWTxg7FnIkj0L9vL7Okdaik1aLErqWyToGlxVypXoqMStdjsqt5dhjjKGw8hp6vqVFCXKOFmBpLMW6R+1xtysQyPI6uI9TtqhbVqpCiz+h2Tj6elyrk+aQrq7qpSgXPl0Px2u1Ws6RpuCe64C1K3IXUhs/EidwzKC/3oaC4HCdV5XnPsVys334AH247gDUf7saWnfuRd6YII4YOgKWtm3eEdkdFeTkyMjPNuehJUy+e2oeXr8KH+3PxsaumY8rEseai2CgqKkLXrl3NOSFZ/PwvT2DLwRP4n09eh8njhpmlyaU6SKu6ZV3wKI4UQa8voESTAq4s5yYEMxylr7rfuN1qgUMJKF3Y3Fc0hI6rk9DQWrcYx+RneiHoNWBueL07tSj8jLid3WqFx+Vo1BXLbT1uB2xKqJs7Jy6226xirbdDSkrLdYricvU78Pr8eOHNDTh46ox6joIY2KsrfvL1u/SzIgixkJ+bi959+5pz0SOu+HbOjZfPhdNuw+MvvItyZTW3BRTA6GQ0MhRX9nmni537Yhx5tKJOKOoUd1rSZXofxqA4TVnSJLSc7eo8Pi1+WmFMHUuh536YOY5w1fP3ZgwI06ioq22tStA5NSvqauLxnU6nUSC0K7KzMjCgXy+MGTEQxUrkc8+UwGmzqIqaBcMH9G5S1OnS/9N/nsf//fs5vPrORuw9cBz5pwtRqqy10ABPghAL9Sz2TyydiUnjR5uLYqNcPYQej8ecE5LJpm378Nv/voQxA3vjf790m5KbpgUtkYTGVm9OuBqDYsY897TUa5Sl3iJ3usLUYe32dNgtRhBaBIFnEfure33GWOw1/KwqBoyK56U0UyfQcD2b1aIscruhzA2gsGtrXa0TjbA7HE44HTajQGh3bNl5EA899zYO5p3BZTMmoGvXDLywehO+cNtlmD2tcU9oaVkFfq9E/eDJ0/Cpii2zUbrVc5DhciLT5UD3rpkY2KcH+uT0wLQJw2FXFXmhc3A6Lw85ffqYc9FTr419zBD18PTqaY6CxTbO6Ca+OOmKz4yjLUBoOX1zuqO0+Cze2bIXWQ47Rg7tby5pfdjmXF0VX791Pjd0eTMfO3WvpaJOeBqcKKpsf6d4Uza5f4p+Ta0xvCo9A7SU2E7OoL9KVbEw8rrHcClqPbr/aZE3hMegW92pvo9oKj3MMOdxi7XeHilSv71nV67Bf55frax0K669aDruunER3lu/A0UlZbjlyrlwK5FuDId6RuZMG4MLp47GhBGD0D3LraYMLeqFpRXYfzwfOw6dxNET+Zg/faxeX+gclJwtRUZGhjacI2lvY1Odxb5252FkqAfG7nLzNahfhHzBhf6S8M8kNM+Xs1NZRp+9/WL06tnNXCokE35nP/zDo9irXgL/e+8NGDdqsCrR2tMozS2PBlYCKZ6x7keLutqO0e1GCpfWgyLL5zRkuatZ7b4nFHQG6MWF2h9fvg0rJNy/MrqQEYNQ0wUvllj7Y82mXfj3M2+iuLwS8yeOwKfuuFxZ2i5lhZfjm7/6L4b164VvfOYmc+3Y2K/E/F9PvYbTxWXqmarFgimj8Qlz5Eehc/DKO5vx5vo9cDtt+h1PotHmsDb2NLjsFnTNcCJbvZC6eur/bfi53rz62y3LBZtNXkxtAb9uut/vvf0yZKnv478r3tLJYurLzflwOa2NlW9vwKm8AqMwJowI9eaO0xAKLK1YBhnRld/aUHhDok6ow3S5l+t29PhEnffcoayzULBdPdS10aqKZlQ37oeR9SLq7Yvc/DP412Ov4C+Pr1SVOyc+fcMl+Monr9eiTnYfOIkiJfYTxgzW87GQm1+Ax557G9//65Pq9wWMHtxHPyejRww0VhA6DRluB7pnGhrbUHeb0uZzbez7cvGZG+dgzKjh5i5jo6ysTLsMhLbl9dWb8Ff1fV4zbwo+fuulZmnjvP7uZvzuiVdx47yp+NTtl5ul0cHhWCvKK8y56KHI+pSlzGC3RLjfY4Vi7tWjrvFczMJYURtmqR9deIWBsKLDNLD8QeoDRIHD4RD3aorDbzL0Tb/x/hY8ufJ9FJwtx+Lp4/CJWxfD6ajvnaHov7N5D3791WXoF0NXU47eeN/jr+IMPQDjhuHjt12Kx599Bx/tPYpffuNOdO/axVxT6Ayczj+NnN455lz0nDMp1FMbSvgRDwxAEtqeJQum4bJZ4/Hqhu149e0PzdLGmTNtNL5+2+W48Yp5ZkkM0OccIxRCur4ZJJR0UVdCy/Z89pEncYs6LXIl3mkRzp/X5GSXO3O+OXgH26JyI8QGv6Ejx3Nx339fxH3LX1cWlAtfv+sqfO7uq88TdXLo+GlVuXMhM9NtljQNM0j+49GX8ZsHn1cVRhfuvXYhvnbvjbrHy7aDxzGsX08R9c5InEM+1/MV0j0aL+zvK6QGt12zQLtjnlm1HsVnS83SyGR43Fg8fyq6ZscT+Bj7Q8dnzNeCCmST8O1bp5Hqg1JubVGrie35pXS9B5tvomgKbblp17nVmGkAxd4aRRR8CJ5LpOA7IbV4d/0O/PCvT+GNzbtxxQUT8eOv3oF5M8abS+tTUenVvSy6Z7jgUr/DSIQ/HR9s3IX/+f2jWLluO6aPHISff/NOXH7xTL3s+MkzKC73YuTQfnpe6FzEq8nNNwIK7Y7srEx85pZLUV1Tjb+m0BCvFNlgTY3RZ7wl6toI1cEa+P1B3S+d11xW4dUJQ3zegO6bHk88QCRokUeysrUbnpnoYjiK4cpvhZshJISDh0/gF395An987GUMyumG733yOnzytsvgimClh/Aoi/u7X7gZn7vzStgskfuv8xtn2tm/PPgi/vz4q/A47fjWx64xrfRzg/+cKijSgXN9enY3SwSheUTYOyhTJ4zAzZfOwbq9R/DE8++YpW0PRT3R0BpndDuD4bwBJepVQT1VVVXrRDOFZYzcr0a6qvy2VEIpxLTII1nrJJYfFHcRX31caG0Ygbzi1ffxw/uWY9fRXFw+ayK+96Vl+ncVDVmZGejXp/H03G+v2Ypf/nMF3t6yBwunjMbPvrYMF0wdYy49x8HDp+C0WNAvR7J6CtEjwt6BuXzhDMwaOQivrtuOrbsOmaWJJLbHhyJWxaxwiVAzpdDsd87ucjpLnNllLSTc/Msc7WyjZNYvtqt7A7Taa+J+6OkVY/KQptrEaV1Fe4HGXvhvIm6IkCjWfbQH3/r5A3j0tTUY3rcnfvql23RgqS0BbqY9B47j+79/GH987BX06dYFP//8Lbh32ZVwRcg4yKdi+/5jyOmahd59ehiFghAFIuwdnE/eugTdPC7899m3dLKDREKBM1zJzcP12O5I3UtEsBhTv1b4/HV90CPtkS9GTg6bBdb0dJ2DvsJfBX8T2zQF12cWucbgdQVVZSOmdrE4g2OExMP0rctfehd/efRV5JWU4tZFF+AHX1mGQf17m2vEDz0AL72xHj/5+9M4kleIq+dMxneUqI8a3ngXNj5vn7x5MW69+kLJMy/EhAh7B4dpKD9x02Iczi/EA8vfMEujh13aNu84iJKSMrPkHAwio2BHK2PUu1g0LxJ82XEo1/JKs808CnXmKsa5qg/qBBi8xxS2bO+PtmJC0pW1roW9iWtg5UXnu4+iDzvhrlhJEdqWDzbuxLd+8SAee30tZo8fht99627cdNWF5tKWsXvfUXz9Z//Bg6rSMHZQH/zki7fik7dfrrMSNsf40UMwfWJ07n9BCCHC3gngi2H++OFYu/MQPti00yyNjj37j+PH/3wa727YYZbUx2qzMhmCOdc0hoa2TNm9DIwLBPW+opdkHtsY351dOgNqH3TNM7AuUFWllzW3L551VAPTqHX8ap9MXRsN3GO1WO1tymvvbMTvHnoJZyu9uOfK+fjcPUvRs3vL27Sra6vx5Avv4Of3P4vCsnLccNF0fPcLtybEAyAITSHC3kn4/MeXYnS/XvjnU2/g+KnTZmnz9O/THXcsmY3xjYz3zghePUyqOd8YdE+zKxgnZWjHjlJAtqeHRD0m1AYUcJ0bXp2H/k9Z68xzX1xagbOlldojzgxwjaLOmUubOzRbGTiYDWMJorXaq3he5mch+bjdTlyoKr8/+9JtuObSOWZpy1i7eTe++fMH8OSbGzB6QA5++dVluO3aheZSQWhdRNg7CXarDTdcMRcVSkReWLXeLG2eLlkZ2iU5dHAjYwIrIbPb7c0KHqFlzO5g8VjtPl8VqpTFHauoc3W2wwfUdTeEIkwrnEF1haVl2sVP272xQ/CsozlztrX7q6p1d8NoXP0MuAukSJfEzsj8mePx5U9ej945LQ9QY474p19ajT89+gqKyipx5+VzlJV+G3r3ku5qQvIQYe9ETBo7DDcvnI7XN+3CE8+/bZa2HIfDFpWAUTJttsiJXRpF7Zb90mltN3+E+vCc2A5vpI9tfIx3DvHKWIKSMmW9l3v1Ng3X5WwsXfX0MLCqMmJULZqGa3BEJnoShPYLrfRv/eYhPPr6OsxSv7Vffm0ZrrssjoyOgtBCRNg7GTcvvQhTh/TDs+9u1sk3EkOaznfenCzV1tY0212sHmo1JpzxsotcFBWHcLg2BZqBchTt5tz/FHKeltfvR7GytHQe+wbHrFZX6Oe5RCHWOkI+WK2PH63V7vf6zDmhPXLwyClkOB34wq2X4sufuBY5MtKl0EaIsHdCbr/mItjTLfjvs2+jWglKIuDoZLpLTjP7Y7uzVa1H0W0OtlVrYTTno4Xr00Knpc7riyXqnNZ7sJpt7+U66Y3RdHAOVjR0g3wUJ0VxZxMAhzVuTty5lJWGKo5tL7RL7rj+Yvz0a3fi4jmTzRJBaBtE2DshI4b2x8evW4g9J/Lxt/++aJa2HKeyVpoLpKPVzpSsFg5Y3gwU1ljrHYaoQ2eeoxXMCgQT2UTrJCC01CnEpWZK2pDlbuy7FuVeVWFQYh0NrL9U+v16u2jEnUPZ0sMgtD/Y1CSj9AmpgAh7J2XhnEkYP7AP3ty8G7v3HzNL46PgTLHRBq5E3e1yGQJoLIqIHn/cZtWCGxG1AwaysXtaM1oYEVr5VUp4Kci01mMR9RChbSjutKTrIuZVOfu/V7AfPNvcm9k390PPA3PVRwMrAD4l7oIgCPEiwt6Juev6i9GvWxf8Z/kbKCqJLytdsdruJ/ctx98eeknPcyxyZ4T0mOHQarfbLDrZSySXPMsCMbarc01OtNSNxDMchlhZ7S0YdZCiTCu7Qlnt3E/obPiXAsxUtqyAqBljQSPQJV+lKgFcn1s3ZblzSXUwqC13of3x+upNeObl93RlueTs+UmdBCEZWH6o2LbrEE4VlWPKyL7ok9P4wAVN4fV64VLWmtB+yO6Sid7ds/H8u5tQWFCMOdPGmkuix+V04HRBEfrldMeoYf11mUUPQ8q26nNi2BCKGwPpaFnXQ23AdmwKYQy6ro9DSz2g9mdEubNywMA1Y3m8cHumidXny4j+BtBq57la1PL09MbTzXI/jKpn5DsHkWnOLa8rEmnp5r0U2gv/fup1vLZxFz7YtAfvbNiBDR/txf6DJ/R46+zSaFMVWjZZCUI0VJSXIyMz05yLHhH2Tk6fnG7IO3Ua7+3Yj/69umFg357ajR6LHk4eO6xO1EOERkBrapz+UJpXIwWr+qD+54hsRiS5uVIzhASSTQFaYJWoa7GlqOslLUffD3UcjptuVfsPt895DHoYqmqM4Wh5Oo3FD3AfPDe2odNb0Zy4s/89mxNE3NsPA/t0x9TRQzCify94HDacKSnD/hP52H7gBDZsP4B1SvA3b9+P6eOHKZG3mVsJQmTiFXZxxQtYdv0lGNC9Kx574V2cKSxOmCDSMmHymsagO5tt7XTLGy55Zoirbs6zXQ+uGrLU+TBTNNknvNH2+zihpV0VDCJSNUXrszppCjED/tieXhcA1+Bm6nZ/dY0VldEE1NXC7/ejOoaofqFtGTF0AOZOH4ulS2bjc3cvxW//5xP43bfvwbTRg/SznX+2XDcVudxiBAmthwi7gO5ds/C5ZVegqLwCjzyX2LHbDXG31bNyw6G4uV0O7aJkUhc97GkUNQsKIrf1KhGlFWxR21SrTUMZ5tg+nkh4Wuw6R5FtTIxDxRxCtlwJNyeKuCZsE93HXZ1zWaXPtPIb2Z+adFt+ZaVOOyu0P44cz8V9D7+CD3ceRpcMl/YojWwsi6MgJAgRdkEzcmh/zJ0wAut2HcbGrfvM0sTAYDqHstwpjo3BcdOjTlyjqFHiyQFhguxTznk1MeAu0ZZ6iJD4NnUNIUJXoaPnVcWDVrzuSx+2Ma+V0fKhseSbsty5lU8s93YF4zveXrcdP/rrcuw+chJLZk/AJbPG6e+6R7cu5lqC0DqIsAt13HvnFRjUsyv+/PhKbWkkElruDqcSd3M+HFqlbJf2KMtdJ4RpRD1D0kfXe7maaN2zjO5tih7b8xNtqYeg7vLH0pQAN0Svqf4xLPiAstD9RuY6Xh/3R3FXHysZXa/EX68eYf8sCVnubGYQUptDR07hu795GH989BUMyumGn3zxNt3cxcGGOPTv4L69zDUFoXUQYRfqsFmsuOmKeSjz+fHc69EPFNMc7PbDbnFOhwMuZb03Je5ZGU5Y1XmEa3tI6ui+5jjqOmLeLCNszw4GmQLWLEgw3C9HpeOZWOnzDz+5KNBbqn/oymf3uDJlxeuueGqe9RhWTJjClpZ9U655wj7utN6F1MPnD+gBYH5033KUVnpx3YVT8N0v3oqhg/qqZ74W+47mok92Jvr1kwFhhNZFhF2oB8duv3zmeLy7dS/efH+LWdoy/vLgi/j9/c/qz2xvz3C7qZTnCTzF3a0s+25ZLh1QRyhxFEAKoldZ6UH1OVz2jCQ0Nbp9vbWg0LLrmRHFXz8qPhZC582KCJsR2AavU9QqdF93BtUp610n+9HHjCzw7Dbl9Ule+VRi94Fj+J/fPoRHVq7FwF5d8aMv3IJ7blqiK8vk2Il8HD1dhLFD+6sKbtN5HgShpYiwC+dx+3ULMaJvLzzx6vs4fjLPLI2fnt27mAF0hiQyiQ2jgtMjinuNHi0u0812eSt8FDta6WaUeUOpM9LGtp4Lnq5yZp3j7q3sxtaI2MYC98CJFRkKPCPk2ec/FGPAUeHonufyRsVdiX9FBceRb5AHQEgqepjWl9/Fr+5/DqUVPtxz5Xx8/yu3nzcE7N5DJ3UT0tiRg8wSQWg9RNiF8/C4nLjpirk4U1aBFa+uMUvj5+O3XIZvfPoGJWbnRIrJaTI8jBJW4t5A3Slw1DN2D6JFTiLJG5exm1xtKwXMEWotz5HHslmMSPxEwstj0wLb4HX7u5rn9fPay5RQMCAwJPjhsIQBeeUVXgmqayN27TuCn/7pSfz3lQ8wiFb6F2/BtZfPrbPSw1mzaTecNhvGjxZhF1qf+sLeeu9HoZ0xfeJI3HzJLHyw4xCef61l4t5Yti26tj1ut+7LHo7XF9Tt6W6nTbvkmegjYg1UiSzb1lvdZlXqy25KjVnPLUXvVk3Vuj3BOEZIzNkEUV7h1xWYhsfnLD0cFV6vtLsnEY6N8Pt/PoMf/O1pVKn7/91PXofvf/kO9OvdeHKvedPH4ZZLZyPT4zZLBKH1qPe+dKoXabxkxpEdR0htbrvmIowe0AtPvr4Oh48lNko+BIPS6Ja3WY2+7vQss6sQjXBmr7MzQ5uqADCda8N6J4PRaK1HMGgTAs+BbniKrKWJdLEJgcfS19HwKo0MdGx71yl6I1Uu1H0I+PzwVnrNAqE1YWVr55FTmDp8AL732ZtwwZTRRm+OJlg0fwquWjTLnBOE6LAwWDcO0moVDy9fhQ17jmHckB7ItKbpbkPmYjWFXjShz+f/rVFvY7eyvK6+6hI9JKfQcdi59wh+/PenMWvMEHz10zeYpa2D1+vTUd/s+x2uX5U+jmkerMswx2U6aE5Z9a3d/YuxATaLBS5n6w7HyV+SRx2D3o26n1wYodYGejBcDpsW+IbNApxj2lu3sgrDbp/QCtBq79ati9GUpOblfgutwdYd+7Ft2y7TO8eS0G+eT1z93394WZ2wr915RJdZHLGnOuQL1q4qBN+4awn6SR/NDsd/nnwNL63Zis/dtBiXzJtilrYOZWXlOFtWWc8yZYAcI8hZgWQgHTGi4Y288q1hsVNI6X7n+Np2q1UH8jUU0kTB3fJYmZ7mo6Xpkrda03UlgJ6M88Sd+2L8QobHLBEEob2yYuUavLxuHzKYAySG90+dsK/ffRyXzx6JHFULZXebWNBRw+pFO2vGRLNE6Gj87+8eRm5hCX75tWXo0b2rWZp4OHhLYXGp7vpVFzSm/nCeEeRVVbTcjYAyCrtOIdtKwu6wWfVgLQ5ltTMiPvqfVfSERN3tsmtBjuYgFHdeP7sGUuQj/eA5cIxH2nMFoV1z6MgJFJ4p1u+6UK+iaKgT9g/35+Le6y/AuNEjzUWxwdHdmhuHW2i/rNu8B7/67wu4bMZY3LvsKrM0MazdtBsfbNyJT99+ubKO07WAs7tXPZR4+1U5RZ1tnEzXSkuefboTjbbWlchS0Nly6lJWO4U0+p9VdIT215QLvjF4jqxqeNxOfa4NxZ3LOaQuPQ6CILRP8nNz0btv7GML1Iv4CKiXZrxQ2IWOywVTR+OmhdPx+oe7Whwl35DcvDPYf+K0Hj2N+kTrmKJqjPhmoj6GLGe2IxNrGsdAT9cilkgYrxJKkEPo8taNXAmE18nmhAxlqdMrEGutgc4M5t9jPEKkbHVczviD1uwKKAhCatJ0KKcghHHDFfN0LvmXVm/Sw7smiqsvm4v/+fR16N61i478pvVpt1u0uNYTdwXFndYtBZ7d3DimNV3ZidIv7sditap9WrTWGoKpPjWwiFsC90Qrm9359Lj1caLFvaYGlX4l4GZZOLyP/oB0gxOEzoYIuxA1HKHthsvm4EyFF0+8+J5Z2nKYrGbQgD76s87uRhFV/zMSnVnqwsWdbcrs9+5UEy1e6q5NiX0ixJ3b03rm/unmJyFLuIW71nAfnNiFL1NZ6lrUW7hjNhFUB5krP3JXOMYmCILQuRBhF2Ji7vRxuHb+FLy3bT9WvbfZLE0cVqutntvbowSQXc7qxF39sdvSdXAYu6FxngJvV5UOCnIkcYuGkKizv3xI1M8R3z5DcG+crOnKSnfYlaVuN66x4WFaAEeQiwQT2FQHZSx3QehMiLALMXP79RejV5YHT7++NuGDkdD6tlnPJaOhaIcy0IXGWme7usss04lrVDF1kpYwg8XonuegLVw9VB9ojNA6rBQwCv58uINmdtIIekv1D6+BAXIZboc6Rvyu90ZR+2fuifMrJAbN3QNBEDoWIuxCzNjSLbj+0jk4W+nDY8+9Y5YmDqvNXmcjs52Yk1MJI/uTa8td/c82aooxxZxueRKyWXUXNYcNTl1JsDRqxXNX3A+TKmn3u1kegluFtDLyHiIT2kYntlHnkeFy6PMg5qKEwrZ27jhSoFxrHE8QhNRGhF2Ii4WzJ+LiqWPw4gdb8PbarWZpYmBwHK3yEBTfLlkZ6JLpRLrFGPiFikUxpqjRcvfQUtcKZ6SaJelqO1r0drWM7dkUeG5Ky59r6oqBEn9G2Tdm7TbsRtYYXK1O0NWx2MeczQgOhzpH87xaC63n6tqMMePrw4F3OIqeIAidB/nFC3Fz45VzkdMlCy+8uQGBqsT2J7eaVjjd8meKSvHPR1/FoWP5yM70GOKuxIwBc05lEdPSpniyvzkFnqNo2Snq5sTPFNrMDJeqHHjUPtx6ZDluSzualn5T8h3RElZFoYkVBqeqXDDYz6Oscwq6zWr+tJracaJQJ2EEEp4v7LwvDEAUBKHzIMIuxE237C64ftEMHDldhOUvvW+WJgaHzUisYlWCefJ0MVZu2IF9h0/CQ0FWVjbFjJppt7NrmtGeznkKmUOJKtcJn9h+7lSVBJeyoJm4hZUAluu/tNyV+Fkpgkobw38UtP5p4Yf0meLJidH7dOFTxLPcDjhpnduNbnhtASsS58m6OnerumZBEDoXIuxCi7j0ohm4as4kPPvuJp2dLlHQrcxMhl6vH+NHDMBvv7oMF8+dhLKyCu1Cp3UcipTXAw+ZqsYSWvCc+Dl80uVqG/b9DrneWREItdO77HYt9IxaZ7AbrX9GsTtVZSDT7dRt5XpSnzM9rBwYferpBq87SBugr8H0cITDxDrsoigIQudChF1oMdcsngWXsgxXvbfJLEkMbP/Woqnom9NNu5tDwXQclIWiWlNdq/8yUM3U6pgI6bGeeCgeT03aMqcFryxw7le7tNVn/lX/6zJu01ZiHoIVldCQoQ3jAawWa8R2d0EQOjYi7EKL4aAwNy6ahS2HTmL5i4mNkg8JNgd7aShcOpc7dUsVO+0MjjPKE40eHpaJXlrrAHFChwXjDTiATMP2dd4pZu8TBKHzIcIuJIRrLp2DKcMH4Pl3NuPQ0VNmacuxOx0R9ZQiz/ZsJqah1crIds430P6EwVHlWm3n8aLOh5Ubinp4pYefmOjHwmQ/giB0OkTYhYRx0+Xz4K+pwfJXEhdIRzczxTuSpFLM2P4dSmjDNu/WMKq5T44mF0qQkwoYlRl1b6z0aNQ/L3Zv09ntBEHolIiwCwljlLLYr547GZv2HcPrqxPX3q6tUvNzJGz2UMY5M3tcK1jW3CPzsTd5IkmEbf1Odc2RXPC8D3pEOkEQOiXy6xcSyl03LsKo/jl46MV3cfLUabO0ZVCkmBu+McGmmH+04wAKS8rgcpl52BMM9+gLVKG6Wp1DG4s7rXWdWKeBtc5PbJJwOh1GgSAInRIRdiHhXHXxTARqqvH8qvVmSctxOpRYRRBs5pY/feYsHn31A2zZeVB3V2s1q13t0ucPtKmuU9R1ylwbRb1+Elyel75PgiB0akTYhYQza8ooLJo2Fm9s2oV3N+wwS1sGs6exLb0hASW0OT2zce9NizFj0iglvEFlzbZONy/d1l5dg6pgfUFNFrprWyNR8Kx1sC+7ZJkTBEGEXWgV7rpxMUb07YlHXliNwqISs7RxorGvQ2lmG8KRzWZOGoE+Pbsq8avW7c8Omy2qfcaMttrbZhhUXhcT80SKgk+nC97lMgoEQejUiLALrQLzsF8yexJOFZXizTWNDxJz7GQ+du8/GpV7m8OxcnCYSIJdUeFV/xpWa40yqJm0JvE2u8K02n2BYFLb2qnjzHfPNvSGUfA8DZfTacwIgtDpEWEXWo0lC6Zh4eSReOndj7B11yGz1IBW79MvvYtf/GMF/r38jagHkWH0e1NQ2OmF54PNtugGGpgY1P6ZMIeu8WTA47CiZLWyn/75x2R3QHHBC4IQQoRdaFU+ddsSPcLa02F92w8dOYWf/vlxPPjqBzoX+21XL1CCHF2/a1rttFojQdGju5r9u2uU+nKQl1Zpa1cTNT2grPbE770+IVFnCt3zRF3NM3hQouAFQQhHhF1oNShDWZmZuHLeFBzOO4MXXl+L/z69Ct/78xPIKzyLz1x/Cb7/xVsxbcJwY4Mo0UF0TZjibIfWOd3VpKPHVRm3aaxCEA+MXfNXBVFV3XqBdBR1VlIo7A1FnXNsVxcXvCAIDRFhF1qNkDV70dxJ6N2tC558fR1Wb9qDKSMG4H8/eyOuvGSmHh89Vmi1p6Ubgt0QCmBaWrru8lZTS+udw7GmI7egGEVny5XYJ07cqbX+Vm5rdyhRjwQD6DxuCZYTBOF8RNiFVoVJav7w7+eQX1KmRXdE/174xv+7CYMG9DHXiB09pCuzrpnz58MgOgvS02p1alUmrvn3M2/gyZdXo7o6WDcaWkuh1V5VXY1AIPEZ6ejqt3EEO6bLjeCdYIIayS4nCEIk5M0gtAoVlV48v/IDfPdPT+DkmbO4ZMZYTBs5CHuO5mHz9gPmWvHDtmU9pKo5H45htRtjlAeC1ejTMxvTxwzB5FFDtVBWM2w+gfiqgkZGugTCK2MzQkTUtTmijEkQBKHzUU/Y+SKMF7fbbX4SOjsfbNyJ7/zmYfz3lQ+Qk52JH3zuJtxz0xLcu+xydM1w4R9PvY6SklJz7fixUdwa0VOKO93YHMOdbvmli2dhzvSxCCoLO5HQUK9V++Tob+cljWkJal/0LDTMLqcK1O+0dYICBUFILZiQKh7S1Auw9uHlq/Dh/lxcMWcoRg7sC6+XfYKjh91tigqLMHPWTLNE6KwEqqrw7V89iMKySlx94RRcc9kc2CznKowU/d8+9BKunT8Vd9+02CyND2p6eVk5amihG0X1YFt7VTAIry+gziuISn9VqzWH6zZvl0OJcWKOwAqJxx052t3lcut++oIgdGyOHjmm3m/VMWtynbCv3XlYvwitDiMgh816NED4l4Q+R/obCNbAbUvDV+9cgr59ehobCJ2WnXsOo1vXTPTJ6WGW1OfH//co9p8swM+/fDsG9O1llsZHlapIeL0+c+58KLgVlX7tfi+r9OmhV9Ujm3D4W2C3vsbEOBYYDc+0uExIc14+ePUbzfC4xWIXhE7As6+tw6vr98JtBtE21ONwwsvChP0IBvbMRpeuWaiJsQtPtVqfKTxvWzobmRkZZqnQGeFz1ZzkHDp6Cj/529MY1q8nvvXZW7QgtoTy8got3JGOS2Hn81nh8+t+57Te9S+gFeC1e5wcPlZZ0w1+dLFAYXc52XfdXk/YuUtG+XuUsAuC0PH5YONubNh2CE5H5CDaxjjnit93Cp+/5SKMHD7IXBQbfr9fu+QFIRpeXLUWf3/2LXzi6gW4/vJ5UVUIGoNZ4Gi1N6bXFHdmuuOwqxXegBb68HV5bJvZx70qWB237vN3xzgVt0vVrqP/DZ4HhZ37YFt6+I+Zn+xWK1zSzU0QOgUFpwvQKyd2r+Y5U0m9zSoqK8yZ2Im1DUDo3CycMwmj+uXgjbXbUVRS2iL3OLt+pTcSIU8ojg5V46V46zbwBqJuTbcowfejUlnzLfEesELA7m+JiJBvrHKe2Hh+QRBSmepgfANOJay7W02CuxAJHRu2E99+1YUoKKvAY8++Y5bGD93WTZGm/nM7aQVb61UiKOq+qio8/NzbWP7yuwiq55gDzcRLrbK2g8rqb1FNRRAEQRFvT5uECbsgxMr0SSOxdP4UvPnRbrz5wUdmaXywfzojyRuDVjsTumS47TpNa8giZhu2VVnxQ/r1VMsSk56V7vyWuOKJcX7nX08tK9AtdwgIgtCBEWEX2pRL5kxElsuJ1et2mCXxwShxqxL3Rn3YCoo7260z3I66dnR2lWN/8SsWzsD1l8/V1npLvU+1VN4WWuyM3m+o4Nwlr+G8vu2CIAhhiLALbUrf3j1x2+VzsOtYHp54/m2zND6cqoIQTZrVDI+rXqpWintoGNaENCk1XreICg5eU6PEO3R+4fBcgwnOcicIQsdChF1ocy67aAamjRiAlR9s04F08UKL1mZ3NKmrFEu67DM97G9+zqzmNpGENB4sZoR9S2j0XFRxdU3QnBEEQTgfEXYhJbhmyWyUBQJY8eoasyQ+mD62OS84rXJmicv0OJWAGqKeKOji1zneW7pTtT09COcFz6jZ6qAIuyAIjSPCLqQEY0cOwpLpY/Hmxl34YNMuszR22NbOYV2jgW3tLoeqCDQRdBcLrCTYrBY9OE1LoahX15yf155nyn741QzQEwRBiIAIu5AyfPyWJeiW6cIjz78Dr7/xNLHN4WJbe1rTjzZd3YyOdzmVuNuNoLumjGynw6bWZUR9Y+PAm9a6PbpKRbOonVVVNd7en+jBbARB6DiIsAspAy3ti5TVnn+2HK+/s9ksjQ8mrWkOWurMV8Noeoo2294bijYtZFrgazbtxrMr16CguPS8JDYUdQa8MZ1svKMxNYTnFaTVrrPk1d8nzzFYLe54QRAiI8IupBQ3XbUAk4b0w9Or1uuc8vGihyBuIIiR0OspZXYoq10Ls5JyCnU4FPyy8kpsP3QSlZU+3T0uhF5XHYYufUbaN2n2xwj7rOs+8bp6cQ7OaXd8IiL4BUHocIiwCynH3TdcrFPEPvb8arMkdtjtzW5tOjpdu+PVOhy0Remktsw9HgecSuRpJVO0qdMU0YWzJ+Hem5dgUL9e8AUMa5nL6c73OB1G97lEqrpJkCcWYb8894DPb84JgiCcQ4Q9BUi8HLRvBg/og1njhmHTgePYuuuwWRo7TpfrPDd2JLTVbkLr3OWwIcNlCDztYyaLYf/xbl0yjLZttUumqNXruZWo21rnZ6T7szP3vLLMG14H55iXnilsBUEQwhFhTwH4kj6ZV4DV67cZBQJuuXo+BvbIxsPPvqWHZY2X5kYcDAXRUdBDGsk/FFUGzLG/u8dlVyJv0+vxr9th14LOgWXqNmgleE5+PweCOL+CwnOvkq5vgiA0QIQ9RXj8+ffw96dW4bFn31Y60bmtMF59965dsGzpAhzKP4MnXnzPWBAH4dZ4Y9AatlvVT4G+9QZQ8OmqZxt8aLLbLVr4k/E18Th0x9NTEMlqDwQCxowgCIKJCHsbEtKF1eu2YdO+I8h0OvDi+x/h+799GMdPnjaXdj5C8jVj8iiMH9wP72zejeOn4rsfuq09CnF3KOtci3UkGgp4Y4LeyOYthX3aA1W0zM8/AF31Iu6CIIQjwt6G8DXt8/nw8jsbdcY0S7oFg3p1xbGCYvzs709j2+7425c7CrdcMU8L6VMvxW+1O3S/9sZVly5t9ntntze2pccK3eUMvOPQsdG06ceKYbVXq/M8v61dFeg894IgCCFE2NuY+x56GceVkN+59EI4bRYMHZCDr9x9lRabX9y/Av985GVzzc7JuNGDcdPiWXh/xwG8/t4mszQ2GOhmUxWnpjW7VkfRxyPLdvW9HTiai0effQuVlX4lxIn/WdVU18Lrj2y1M7iuqkoS1giCYCDC3oZ8tPMg3lPT9JGDcMmcyejWxYODx/IweewwfOfeGzCgRze8un4H/vyf53Aqr8DcqvOxaP5k9O6SidXrtpslsWOx2GjcNgorUkwuw5S0sWJXlv6+Qyfx7vYDOHzytK5EJBpttVdVRWxrJ8EqcccLgmAgwt5G+PwBPP7iu8hw2HH9ZXN0Wb/ePXDmbDnOFJ3F4AG98dOv34EbFk7H65t34++PrtTrdEY8bjduWHIBdp84jUdXvGWWxgYD4CxMINMEFEyn+j5idcd71Xe5YNYEfOPuqzF2eH/4W6nNmy7/SG3tnAsEg8pqlwh5QRBE2NuMR1a8iYPKCr9OCfeQQX11WXamR1lktSgtNbp32W12LLv+Ety+6AJceuFUXdZZWTR/KmaMGIiVa7fGHVjojKLrmx7EJUZXOrdzuxwYNrA3awf06rcK2moPsl97ZKvdL23tgiAoRNjbgL0HjuOVddsxddhAXH/5PLMU6JqdiUB1NYpKK80Sg9uuXYi5M8aZc50XDu1aWVWFl97aYJbEhkWPvNZ0NjrKJdvMGYkeCxwKVgexxWjtxwrPy+ur0pWJcHjeNdVBGfVNEAQR9rZg6JB++NKtl+GGy2abJQY9umapF3QtThecMUuEcDi06xWzJuK9LXvjHtrVbrM1a1BzBLdGu761MSGrnTnkG1rtvC7p+iYIggh7G8DRwRbMnojRIwbVE5me3bP0QCRHT3TeQLnmuOvmReie6cFjL6xGaVm5WRo9NrtNW+2NibsRRJeu3fGxWu1JQwm6P0IUPGWemeik+5sgdG5E2NuYcJure49sJVoZOJ5faJYIDbFZrFgydzKOF57Fa6vj6/7GMdObs8ftTBcboR07btS+OJRspLbxWKEzgQPT+PzByFZ7lQi7IHRmRNhTCFu6Bf1zuuFMaQVKzpaapUJDliyYirEDcrByzTbkFxSZpdHDcd/Z17wpq92mrHoG0iXEaqf4qn3uO5KbsAA3ijsFvOEAMfxUXV2NKrHaBaHTIsKeYgxSglXu86OwUIS9MZjh7dO3XKpF999PvK4EOnbxtSpxr2/rno+N+eMTAD0EOw8cw31PrMTWXYfgcDQdnR8tvH6/OYRsOLwu3eUuRVsSBEFoXeq9ufjCjJcuXbqYn4SWMLB/jn4hH8sTd3xTDB3cF/Mmj8K6vUewfvMeszR62PWNaWQbo67rm+XcqG/xwjbv4QP74sp5kzFy2ICEtYEzkC6ghJ192xu65HWUviStEYR2DeN94iFNvcBqH16+Cut3H0O/bm7UeEtiHuOZEbpdu3XFx++8AZkep1kqkMKiEvjUi7xf755mSdOcLS3DN3/9MGaOH4pP3HqZWSpEgtn4fvDnJ9GzSwZ+9s17mrXAG8IkQQG/35w7H4olXefsXtbiKHm1OSvOFHVWGhIFf6r87Wfwd9dgt2xuyPB4DBNeEIR2xwcbtuPNt941uunG8N7Q1QH+7mtrq3HmrA+llh4os/VEqbX+34afw+fL7b1Q4HegvCL+cbM7KitWrsFP/rocu/cfMUuaJivDha6ZLhw7JZHxzdFXVZZuWjIbu0+exrOvvG+WRo/DZlMPf9NWO0eGY625pVY7RdevKhKJFHViBNLVasu9odXO9ndfExWXzgiNFt4X9vevqqrScQqsbAXUd+PzV9WbWKaXqXW4LvPxc9taNUkzh5AMisr9KEQ3lEfQ4aa0uc5i37g/FzdeMg6Tx45EZWX9BCnN4XA4UFBQgOHDh5slAtl78Dh+98CLCASrVOUpDQumjsE9Ny82lzbOL+97EidPF+M33/4YnE6HWSo0xs//8iQOnTqN36r7lZ2VYZZGh1c96wH2CTfnG0KxDL3oU7VvO2HFw+O266C/8MoDP2V4XKpykvj89akOYy+CVUHdgyAkyHXpghvco/NgYdjXXe+bV88E/+PzwEpferoRaMkhggUhkRw/fhxdu3aNWZMtP1Rs23UIJ4vKMXvCEAwc0A8ZGRkxTU6nE3a7XU+CQXmFF397+GWd+93tsOv+6Rv3HUVRfhGGDOwNt6vxJostuw5rYZ8/bYx6WbvMUqExOAjL6s27UaPEd/K4YWZpdPD9Hgwqa9ecbwiFnVOwJrUzulGHapWA2e0RBFwtZE+Ajg6tcebLrwoangp6SDjPMesZcxAu5uHwuz9vUv+Ez59Pra4k6EqDafnrY6lz0E2Zagfp3IkgtAC/14tu3btH1N2mpnpVTP3wxwldVYJ+h2qef30Ndh3Px5xJI/SPf8ncSbhp4XS8tnEHfvznJ7U13xgDenfX7fIl5V6zRGiKWVNH4+JpY/HC+1uwYcs+szQ62LecyWgiv/KpBUbCGo6X39oJaxgtzzH54zkMnQlB9ZwFqupnpOMnY4CYjvv7pLu8oqISZeXl8Pl8CPh9ussfhTx0J1pDYrlPvV/zftMrwN4IXnUOFeUV6pwq9H2PNWZJEELE23QnvqMEw5/4ydzTeG/zXgxXAn3FRdNhtVpwIvcMbr1mIe66Yj4qlSXxy3+uwMp3NhobNWBgv14I1tagsPCsWSI0x9JFs5DptOPFN9aZJdHTnKeJPy62tTMYrdXe0erB2br7MIrOlulc9fFA17DXf37fduLzBTqUwPAaaZWXKwGlmGshD6P+1ScHHjP8uKxoVVb6UK4qHTxXyeMvJAsR9gRTXR3EXx56BeVeH+69/TIM6p+D7lkeHDlpBMNx0Jfv/r8b9Ghgf37qdfz5ged1eTh9enXV7uWDR0+ZJY1Di+CN9zZrV2Bnpk9Od1w0fQx2HMvF6vWxjduu20fNz41BodSCG2cNuilY8SstrcQDz72Nx55fbQhAnMrEdmSfr/6zwF3VqopiR3hGKOi0zinoDG7jfKqihV79U6PuPZsFKior4a306u9IEFoTEfYE8+6GXdh7Mh9LLpiIoeZwrP1yuqGorBIFhcV6fsjAPvife2/AkuljMXrYAF0WTrduXZDtceFEFH3Z3/twF/717Fv452OvouCMsf/OyvWXz8HQnB54ZuVanDHvdTQw6Iku+aag1e6wM0K+5f3aw6F7n4O6ZGW6MX/ySEweMwg2m1VXJEJGN3WA60XTFECrnWIXDJ5vteuudu3UatcWus+vXdy0zkNXVv8KUxOeY+g8mcuf8Te6h4RZJgiJRoQ9gZw8dRoPKqsrJzsTSxfPNEuBoQN7o9znQ+7pc2LTr09PfOnj12JxhHHWaa3365mNU2dKUKZeZI3hVS+Hl97eCLcSpbXbDuB//vAotu0+bC7tXPAlmZWRgXtuuAQnikrw+AurjQVRwgDQhkLYEC53s5dCC612LdLmLqyWdG2xu1x23HPjJVi6ZLauQGS4nfCoiXkhMtwOOB12vR4lgts2JfJc5g2cLxy02iu97S9ug/kGaKHrbHodAH4PrKSUl6lKSlBik4TEI8KeQDIzXLh6/hR88sbFyO6SZZYqC31Ab6SnpePIsTyzpHmGDMjBGfXDLypuPLXsvx59BQVsk7XaMCinuxIdO37/4It4dMVb5hqdh5AkTxg9GNOGD8CHu4/g6Ino7zdh8FpTkh0KpKPIRmM9h6PFmBUCdaJOhw0eJeQelxJtj0N/b+ym5me3OvXC16h1taWnKhNWK49JsXeY27EHihH9Huk8tNWuLPaIfduVtUvLvT3AJgkt6H6/cS+M4g4BvxYKfHmlD97Qdy4ICUKEPYFkZWXixqsuxLSJI8wSg359euiX99Hc6MdZH9S/D6rUS/hYbmR3/Iat+/D2lr2Yp441IKerbv/92sevQa/sDDz11gb8+cHnm7T2OzK3XX2hdt0ufzm2pDU2VUFqTjwo7hRZpxLWaMRdC7r6R9UH4FKCnqmscAp7KF0ttZ775BSJ0LLQRNHmtnyeGKdhMwPt6vpnh1DKEVTPT8O9cr49jNmuI90rvere1XQoQW8Ir42xAt6K2PopC0JTiLAnAVpm3TPdOB6DsA/p1wMumw2HjuaaJeeo8Prw/Otr0dXtwo1XzsOwgb1xOK8QmR4Xfvb1O3Ht/Cl4e9MefO8Pj+Gj7QfMrToPQwf3w61LZmPdnsN46Y31ZmnzpCnRtDucTVrthALrVMLqctqaFHcus6p9upWFTdc6B4Mh4UIdD6Ft6cb3KHHnxEoDVSJ0PuqwyjpnW/v53d9C7dWpCtuf2WXMqIZ0fPj1BFQljNHzElgnJAIR9iTRJdODknIjmjcaXPplbcfhE/lmyTmefOFd7DyWh6sXTEX3rl10RLhXWTiHT5zWiUg+dsuluGnRTBSVVeCPj7yMQ8fOrxx0dObNHIcshwOrP9yp5CF6gaA1rfMyNwOFlULtUgJPKKjhE6G73ON26K5yJFzIw8+IwqvF1/wb+hxaR/9V23I/DPKrKzcFXvezV+X0BoS76IPVtWYXq3PCTjjHZCqpKCIUdXYNq3/GHR9eL78reikEoaWIsCeJLhlu+AJBnC2LzuVmUy/qHlke3SYaLgK79h3F6xu2Y/bYIbju8nm6bISy2JlA5eDhE3qe3HbNQnzv09fjY9cu1F3uOhtds7Nw6+VzcCi/UFWEYgukc9ijS+NriHso0I0BbjY9udVnBr3RXR5aLxzOMSkOA/YyPW5kcMrMUJ89etAWTrrc7dYphRlMaXe6UFBUity8Qj0fTkjgWSHgMRl0x3Nw2C2wWJli9nwBZxesVLPaKeqh9vTOCOtz9KawO58gtAQR9iSR0yNbu9tKK6KrkTMg7jO3X4avfPK6ei+6V9/eqK2xJfPPRdNnZ2egm6o4HDX7yocYNXwgLpo9UYtIZ2TJgumYNmwAVn6wVfdYiBa2W7MdWymiWdI4hqAafeFDwm7ntuaySDBILyPDo63vNIuRY5zfMZsCzk3pWpSZPMel0wrX4s8PvYRHXngXVnUMJssh4UcICTzd8DwHuujpro8Ej5dKGenYpk5LvbPD74WV+VRuKhFSHxH2JDFscF8tAHkF0fWv5su9X99e6KYsz3Cuu3Q2vnb3UkwZf27AHY+y7HoqcT+eXwxfB+kSlChuvGIuKpRovPjmBrMkOlzqnqZzQBVzvjlCohqaGoPfldMR+8A+jMQfoyopPbtnwWax6ooBLX5daePheFxjVU1z5xGCVnJbw7PkeVDUBAMGOEqmOiFeRNiTRC/1QvaoF/rR4+e3mcfCUFVBmDV5pDl3jqxMD0orfZ0+SU1DRioxnDtuGN7bui/mPv60rBMlNhQvjoJIKzxe7rppMT520xJzjm34Ni3wtOgZW8EulVrjjcXNwmtj1HlbR8n7GP0eobmgM8PvsD3mHBBSAxH2JNG9RzfdZn7sVPSR8bHQRb3gq6qDKI2yDb8z8fFbFiNTid+Dz7yJqhhGaaNYNpeRLloYkMeKQkuwpKXpILmGMFMdxT1TVe5crDykx1Z5oNu3rQLp6IJnc4BY6/Xh/TDSA4tLXogdEfYkYUtPQ/+cbsgvPovis40nnYmXnt0yEKytRWk5uwkJ4WRlZuCSmWNx5HQh3l8XWx75c+7uaO3gyIQi41sbu26/d8PJPu5Wiw6oi+bc2yqrW3UwiFqeo3A+6r6w90LULhhBMBFhTyKDB/TG2QoviosSL+yD+jO7XRqKS2REuEhccclMDOiRjefe/FCJWGxWkJPBa2awWrywl0MysdsYdGdE3Id7HSJpBMsC7P5mzCYNRoAzd7rIeuPU1lTDF+PzKggi7ElkgB6OtRaHG0SvJ4K+vbshU1mXreXqb+94XC7cec1CnC4pxcNPx5ZylxY7t4+XtDRGvbeNfDG63qnO3aOj8Dne+/ljz2u3r3oumdI2mQRpjSaRUI6AxqaURJ1XVYCD90gMghA9IuxJZEj/njqbXMNuaYmga5cs9OziiSm7XWdj+qSRGD+4L17/cBcORTEkbjgMemNkeqxoEU1Lti18PhR09onXwXaqAsjucqGz4t80JezBquS641uzq11D0eY1svLCNLvMxsd0zfzLMdODSjR1LwJj0/O25dSW8NyqJEJeiAER9iTCxCEcyOPs2TKzJLEM7p+DvJIynC1tnf13BK5YOAN2SzpWrt5slkSP3cEkNI46AYgWNpEkgxdXrcVP//Q4cvObHu43FE3vdjl1gKDV7EtvaZD4pjWhBRpNd7xYCQkx0+n6A0H4/FUo9/pRUelHaYX661XzlQFUqM/lqqycZWpeL1PzFV61TE0+n5qUpeyvYgXAsJbbUuTbQ35/IXUQYU8iFosVWeplytSyrcGQgb1Rpl5ix8Ud3yjs/79o1ni8uWkXPti40yyNHganMfI8apR2pafF38UtFrxKkHILS6IWTIq6Sz2PHo8bmRkZypKPvX99vDDJUiKFPVzQK7WQc9Q0pqetQlCJM49Fu52TqsPowXSMSW1rlnMddv9jwBqzRPp8VeqeKvFXU5kS/kq1PyOYTZ13kkWe58XKhiBEgwh7kgnljK9O4EstxND+vbRbce+h42aJEInbrlmAgT274eHnV6OoJPZARop7prJ49Yu9ue9RrWIxR2BrbW5eugC//+4n0Ld3D7MkBpJsiDJwLlG/AH4P9ABoy1xNAbqtVdk58Y7t4sK305PanKPncRhcWvNltOzV5Gfbt1o/WQIfCPj1fROE5hBhTzJ9enZFqXop5J9u2l0aDz26Z+PT112MqePOZaUTzsdht2PWhGHILy3H5h0HzdLYoOvarSxdZqcjjYkU3fDMFJcseG2dCYoq283pqaJlTlqj6YPiHhJ6wvZ5r7Lo6dIP9ShIhsAzkE4QmkOEPckMH9wXfvUiOHIi8QF0mRluXHbRdAwZ1Ddh1lBH5aalF2HCwD548pUP4s7Wx4C0UGpXuttDxjv/6I+qQGevM8VAOEci7giFtEqJOdvM6doPiW4yCIk8PW+Vyoovr/Rptz9pTYFnWzuvWRCaQoQ9yfTu2UVnCjt2Is8saR1ESpqGWdxuunIeyvx+PP/6OrM0PhiMlpnp1u3VDEBjljkGpLGbGbuYCefDqPyWPKMhS53t3qxAJStAsSGsS+gKharJUdgp8oy45/m1lsD79Fj1gtA4IuxJhu2fGcqK27lf2sHbmgmjh2D68EF4d8tenMpruQeFAu9xu3RSGAakJSodbUckPZQVL07YOY2iTs9IMi31puB5VFVz2FWjrZ/t4a0h7syrL0O7Ck0hwp5k2AZ67aIZuGLhdMNdK7QpV6rvoramFstf/sAs6Zg0fNba+tkz5I6x6LFDsWQgW021MURtKhGy4OkuZze61uh/zkvm0K4VlSLuQmTqCbvLGb/bMCMjw/wkNMfi+dMwe9pYcZenAGNGDMLVF07B28pqf+P9j8zSjgeftd37juJHf3wER47npsSz19hY8U1BUWeEOvuoqxmzNPUwvAi12nL3+qv0eSfaeuewrmXlFa3S5s5eBtxvoMoYpKc6KNnv2oJ443PSahUPL1+F9buP46Ipg9E9O7MuIUMsWK1WXDRvqjknCO0HBs/9z+8fRU/17P/ka3fofAMdkQ827sIDK97E5++4ApPHDTNL2w6O7Ob1+WKqZFAc2ZbNKVVc8M3BwD6rzQKX3abjL2oTOEQtPR68CzarDXZlmOkBi2KEFQSODFlbXQOeGfvMNybiOjZCTTwOr4XxQkLrsf/gMRw/ma+eGeZZMAujoE7Y1+48rGbSke5kTuzYHGRsV3Ja0/H1OxejX99eZqkgtB+eeeU9/PeV9/HZGxfhsotmmKUtZ+uuQzp97aQxQ/VY+qxEHDlxGhb1e+GLkS7VYLAW/XO6om+fnnqbXcqy3nfoBLpmZ2HahOHI8JzLU3/keB6Kzpbrl69NbT9q+IC6VLfH1AugsLhMJ+EJh8c8euoMRg/rr7YLIisz01yiXhzqONv3HMawwf0waexQszQ5sA26QlmcsUBhZx9yurjbi7ATHbVvSYPHxWF10/WLOpFwd3QIcLAhq8WmBLeJ3AmqYkFrnMGHfP74LMUMhUYdkNficDCDYXJyNXQ2nnl1DV5Zvw8ZqtLGuJJoqRP2DXuOY+roHGRaanUfzZhQD63L48HVVy0S97LQbvnFX57AvpMF+N97r1ci3M8sjQ9alP9+YiXW7zyoh0+l63jh9DHIzvLgyVXr4VYvYFo/fKme9Qdw55LZmD9zHO579BUcUOfgVJYQU5q6nQ7cuPgCLL7Q8Ib9+cHn8f7W/chQAsE8512U6F+1YDqWLJiKfz72Kl5esxW3XDITt193sV6f3bF+8LuHsVdVJr5xz1LMnDxSl3t9fvxTHWujEnV6KCiyF04ZjU/ddplenizKlbDHKizl3kC7dAur16Rug+eY+g67NeHiTrhHvoP1wEPqAyejhFpsHC90v0NHN5bGR+h4fJbZA0QCRhPL9t37sWfnXh0wGQt1wv7h/lz8vxtmY+yoEeai2AgGg9oCEYT2yubt+/Hjf63A5TPH495lV5ql8bFlx0H8+J9PY9llc3Dlopn49+Ov42huAf7f7ZcraymIA8qKX/76elyvRHj4oD7o16cb7nvkVWzeewyfvH4hpowdgpLSSjz+wmpsO3IK3/74NZg+cST++O9ncSyvEJ+74zIl7LX41xOvo1yJ9N9/8hk8oH7Hryhh790lCz/7+jJkZXjw4hvr8Kiq9XuUVf/Z2y7FtAnG79vn9+EP9z8Ptyr/2C2L8MqbG7Fi9SZ879M3YOKYIXqdZOCt9CIQ49CtZZW+c6rUDqHAO5WwOx22VhH3pggJcaLRV6H+sVjS9UiCrXGMzsiZ0/nomdPbnIueeg0yLRm2sbQ08WOMC0IymapEb+bIQViz/QCOncg3S+PDoV7aNqsVp/KLUFJSjs/efTV++rW7MWRgH4wcNgDD1F++1AcP7I0x6pj5BWexSwn4x65ZgCUXTkPPHt0wYmh/fP6eq/T4Au9/uEvvl9u4lDU/bHB/jFL7GTOsv05tWlxawYXo5nHrftTLX3wXB4+exIvvbES228kt9fYhnA4nvvO5W/DFT16rXfOD1fmwLzgD05JJmhKCaEUgFDjXnkWd0Go34gQC+poSHVTXFK11JO6Xl8Fc/Qzo86trE1oO72c8SHc3QQjjdiWsdFU+9dJ7Zkl8jBkxENdcOAXrdx3CN37zMH751ydx+Ni5oWKZfZBvQz2oiIIWvDU9HVPG12/n7pbdBf16ZKOo2Kg4M/EN06euXrcdq9dvx+Y9h9CjSwa6ZmVodz8/X33RdLy3ZR/+/thrsKRbMGP8MJ0/PZJmK1lBYfFZPP7SuxjepwcmjU2etU44EE30pOlrSHblozVgfIDPH9TxAqysJVPcWxN9Ger34/P74fP5jUIh6YiwC0IYgwf0wdIFU7FGCfLba7eapbERkp3br70Yv/n6XfjkjZegpNyLn/1rhQ6MiwQT21B8S0sb9k2uRVmlF06zKyrHhS+t9OHZVWvxp8dXok/3bHz7MzfqZTwuI80XzJmAvt274GBuAW6/aj6GDehtuLsjaMfJvAJ87w+PqU+1+OZnbtBCn0xC0dXRSbUxAluUK6c8ur+7+s45fCwts44i7oRX4g8E4JW+9m2CCLsgNGD+zPHo6nHhbWUVxxKJGoIvtcPKAr9fCW+VEtQLZ03APTdejKCyzhmBHomJowcj0+nA0y+/j+KwEefeWrMNx86UYPjgPnqezWU5XTPxq+/cgwsnjEBxWaUSfWO4VR6Xo/tluFy48uKZmDtuuL4W3aVMi0Z94TiVdwZ//u/LsNus+PI9S5GVkYH3NuzE4SMnzTWSgx4HvoOIdaxQ3Cnq7O/OKPWOJu6suFSoiimTQAnJQ4RdEMLg66d3r+64+bILsO3QCTz36vvGgkaJ/MI6VVCMl5TF/9O/P4Nf3/cU/vboSlhtNkw2R97jy5xR74xsJ9ldMnHtopnYpI757d8+rLf59i8fwF+Xr8IFo4fg2kvn6PWYMISjiTmsdnz8lsUoKCnDH+9/1lwWhI+TP4C508fii5+8TpfTRV+ptgsdixSfLcUv/vEM9p06raP2H372bXztZ//GHx55CWu27DXXSg4OVbGITs/USlyx42ifJtRtj3nm+V11JHEnDKyWLHnJRYRdEMIIvVKXLJiOiYP7YuUH23QbdEOYW/6+/76IB55cZZbUZ+70cfjG3VejX/dsnCkpR3aGC7csuQCjhvXXy7tkuDFxSH9V7tbz5FJ1zK8uuwIDc7qh8GyFFtyr50zC1+69QVnVRlv0kP45GK3Oi3BM+CvnTUZ6Wrruvja4fy+MG9KvTihsZma3nB5dMXVof3TNPNcfvjpYg6F9eqpKw2D06MKx5dX+PA7cungWbrh8vrlWctAJT9S5Nm/T1ervpyO/tBgIybZ3tjh0FIHnVTBuhZZ7Z/XMJJt63d0+dtV0TJk41lwUG0VFRejatas5JwjtnzWbduHXD76Au6+Yi+tMseOL99EVb+HtzbtRqT7fTiG88kK9rC2hq7M9Dw/Lbm9MXdqU6U6h00ltKjt2UBaT2bCi43YZmeR0XEGSaKoy0dLz4HWxD7/Lfa6CKTRNfm4uevc1KvKxIBa7IDTCnGljtRv8lfe2YMvOA3j93U341q8ewJsbd2KCsox/8cXbUkLUSXsf850pqZnJrCmSKXBtiW53VyLICgy7xZHWtt65f11xqq7R7eJs1mEllhN7biQiuM8IFgzKsLNJQIRdEJrgnpsW6ajtvz62Ev9+7h390vv63Vfjm5+5CSOHGm51oeVYzUx8zUl3SICSBg+VxMOFCNXTKOxMyMNsoBTGRF573b1UE3tkMDqfWf28voA+rtenJvW3Qv1lcB+HyaXV3dJzYAAoR+cTWg8RdkFohF17j2DFyjW6zzlfagunjsIvvn4nppjZ24TEQamwpjefuVJLSgLFLSLm7pnGk5YqRbW6ptpMjqOmVj58OBTzmhro5y+UI5/UiXKMhG/HfdEip6BXMipfzYcPpMtjM2lRqJJBMabAMwaAxC3wajO/36+O1Dk8MG2BCLsgKMJfMfkFRfjLg8/rfufvbtmHicP6Icvj1JZGVqYMT0xa45XMEdCigXLSWklqKOR+ZaGWKbErqwgYVmwl/wbUvGHRVnqrtCjyHOLVtlioE1aO8a6Oz3MzelTUF/nmJsJt2GuC++C+aJUz774W8NCBGiG03Ku2p8CzaSS031jgFrWqolTJ1MBCqyDCLggKvmzy8s/ogVF+8ten8MbmPRgzsDe+++nr8ZVP3YAbl8zGe9sP4IVVa40NOilrN+3GwcMn9P1KNBx6lBH+UZFgXafgUejKlWXsVZYpg/RCBzmnXbU6TwCT/eh1TfFnFzVd0WiNmxKGYUEbQWg+JchGhYMVD0OkadXrVLVK9PWkPmtLP3SuamKXOlrcerQ5ta/mxDwSFrUNh/ZmEwHvUzzizptare6jDpgUEo4IuyCY7Dl0Es+t2aqtsU9cfSG+98XbMGG0kWL14nmT0bdrFl57fyvKKzpnn9xjJ/Lwp8dewf1PvaHH7044ptA0pdkUEVqXCUPtioFiFD/t5jat8MaOwHI9qX9osbJCoNuhlWj66aLm9mEr6lNVZRR+iimD4hpOLK9z8zecuJvQfsy/FjWFRJ7nwK5kxvC/ZtAbxV0JP4Wd7nMGv+kRO839hbZtCdxHTXWtqjgoi9/cb6xwK8kp3zpYfqjYtusQThWVY8rIvuiTY4wJHSterxcul3RjENovmRku9M704PalF2LaxFGq5NzbL039x5fne1v2oovLqQdg6Wy4XA49yMyMiSPQr3cPszSxVCsB0lagOd8QCjsjqymIcVmK4ajN6VbXefs5G8fuuA0nilSVsmK1i159ZuUjoOa9PiW0VUZbNgPUGp2UANPV7udn9deYQhHq9T9zkB82GfA+VStxpbCzYkB95XlQtPV5qQ91UzwX1wzcZ406Dx6X2QtjhWcUqtCwV4RwPhXl5cjIzDTnokcsdkEw6d61C65eMltVbiOL1lWXzMLYAb3x4upNyC8oNks7D0ySw3Hhp0wwsue1BsyF36TJruQgIRa72oW2ZlUlIVHwtChUDEQrKC5DWblXVwYZhKcvyRSxiJOCa9W36mt0tkBjokXO8zXE3afOnU0GXlVhoNVMjwPbvelyL6XbnZ/VpLPZ+ZXFrvbB4+hbF5oSAC13o2tcfBnzuAW/B0k5m1hE2AUhBu68/mJU+gN4eMVbZknHhJYz3aTsc8x0oOXlFWoqN/+emzjIB4OxqpTYJAJm22taH5Q40SRtCWpznm+lP7Htu1qk1H4ptlVKlOkJ0EFuynKP5kXL7XntjU38p15Zg20MjIFyWEHgcfX5sKlAibwW/AqjyYCWvt44EaiD0yPBILz4PAO16l6JSz6RiLALQgzQBT+yfw62Hjqu08p2FGgxUcyZmpbjaVPM2SWJ7bVBJQ7a7WtakaGJLmBakFyv0luJsjJjHG4uixeml22uPzvXaRHqOtj+3ORB4oC7o1udf7W8qX8o8N4quvvNCHb9b3IICX5Ia7XYK8udQl9e6dPWPL+/kMcgXljP4r557fFSxYpBor+QTowIuyDEyJ3XXqTF4ZEVb5sl7Rct5rTIKwwxDwQC2vIKUScO/NxgChGar61lVzFfnTUfrxXfXHtrujoaXcDxQIuSbd/VIbd0guCutNWq/gvfLT/rZUEjFwKFNYGHjYm679I8AVrzPKdSZcXzL9vt4z05fh90x8dbqaOXwa/OQUgMIuyCECNDB/fDlfOn4MP9R3X3r/YIRbeiQgk6xZxWpmm1tVR0OASr1ZKOmmpVYVBWPHPAh1cUoiHdwlDFxqEwUT5V3SpmtICYwXKJhBZrVROizXJWJuimp/XO+aauMRmEBJ5t+xR5tsl7dR/9+MRZ3wNeW2jHMcCvkjEEQmIQYReEOLjykpno4nLj7TVbzZL2AV3uHGWLrnMGZCVSYNg+Xl7h1SlJbWaUNAOrylQZXa3RQllvTLMpzEaUt1rDrIxEjRIcng8rHYkUVe0FUPts7mxCx6T1ToHnBok8j3jRz4B5Iqz0VPjMHPUx3l59f9W1hSqJscDD6257cVr8Qn1E2AUhDjI9biyaNRZbD5/E+x/uMEtTm4ASE/bBp2WkX+ZGcUKwKUu9pKwSv73/Odz38Cs6aptt5RQMuui9/nMDmjSHJd3S5LnVLQupUdSwjbmhs7xlcE90r9PKjXavXI/rs+09dglsXXhLeX4c158WvI6mj/LCdOuIuiBa7vEF0dGTFH0FUGgcEXZBiJMbrpqPft264PGX3kNpWblZmpp4vT5lSft016v4XrlNQ0vL43JgzNB+6NWjK6zKeq/n3lefA35fVCN7MTauSWFQy6LOUBeOOh1tESbwBvASGWCodx4DvDyKOys78Ypga8IzYpY9dt3j2P2xoPumxwmT6QgtR4RdEOLEZrHisvlTcKLoLN54f4tZmnqwnTugLCG+rFtLQuhGpYW+7IaLcc+NF2udi+SSpdeAU5NQtKMRuxgFhMFhPM9E3QPuh251s5e6/jd0RtG8WLW4q3NiP+5UFXfGMehmgyihtc57bGwdO4zHYECn0DJE2AWhBVx4wQQMy+mBdzbsRGl56lnthqgbrvfWhi90n7LwaHXR/d4Y9B409/Ju8nyVoMcjhKHsbImAL066qRl4yAqDzhznD+jJ7/Prtmoer7kXLC9DVw4SWOFIKOqkKNax0JJ7zG1bJV1xJ0OEXRBagNNhxx1LF+D02XI8suIdszQ1YJ9yZlZLtjHYXPAUz8fnb9olb2mirzpFnQORxHJh3Ea7iBNwL5j5jpY2B0Gh94Hd3GpqjJ4FelLr6AxxFHp1/5uD67OrWNN3rY2I45YZrvj4roZfKbP1CS1DhF0QWsi0iSMwe9xQvLV5N3bvO2qWtj10v6ekWCho5fr8fnMuEk0PBhM7iQmZYwWBon22vNK4v8rSjtSlPlTGbmTNtRtzVbZns1KQiHNMFLoepE7IYY8nj3t8V6KrBDF6CITzqSfsbCOLF5vNZn4ShM7HovlTtJX51trU6P5G0UxF925aWjoslnQtGrRoG+vjTgFN05ZfEzS3PAyuyWPHC8+H+2AwWfHZcu2GjyZnPQWeFQGOrtbU+tx3otLythTeVp4PvSIZLnvMA7xob4reQ+yk2vPa5sR5Q8496erbZA5sdjcoKSmJaeLIbvwrCJ2VcSMH4+Kpo/H+tv3Yc+CYWdp21KagO5PiyBcVE7U4HHbddtvYICzMZFbbhBBGoan1UTrDfepziAG9vtpWJ/RRol7pUxUmVa61K0q4LuMcmDegMbg7RuzHJ4ctR4u5eXCrOmG3w4ZMt0NVwixGYbSo+9USA5GEzkOAqhAy53/wPM1tblKV4trah5evwtqdh+FxOOBwuWN+uFgjddut+OxtC9GzRzezVBA6F2UVlfjObx7WL8Uff3WZbn9vK5hVLpSAJhWgQFLMH3n2bew+eAKfvf0y9OndXbtdXe7zh3umm5tBdpHOn/tiu7bXV6XFOmrUquUVRt/spvQ9tIjvQTYZ8P3GoVLZns58+bEcMgS9y/RUuOw2XTGIBOXQ5bSp/TedKz9R1Amouh6rEmObOj+rzaIzB7ZEXNnt0fDKxLcTelYyMz3mXOdm5eqPsGr9bvVOscf0TNSrWjnUl0qBdtnUAxjD5FbbOR1WpMdauxOEDgST1syZPBJ7Tp3GRzsOmqVtAy2tOPSnFUkzLFI1lSmr92y5V1t2tNgjtqm2QFgaRe2zKYudSzjxdHSEv19VHpSYG+Olxy/qhNvx2tmW3pg9S8FPhqMlpLd0mTNboMdpR4ayzp2qQsrmpHhFXSemUftMb4GoC/VhBYma7FQaG0l7G5vqLPaN+3Ox7PLJmDFlIiorK83dRodDWfoFBQXIyckxSwShc1JYfBbf+e3D6N0tCz/+2l1mafLha7W8rFxHKMepRQmHosrKv08Ju9vtNEf0opXqhF1ZsuFQSJlQJ9K5x2Wxq9WYqpZizaFU6wQ+JEDqD0WXlrnui22W1yiLnd4Din28oh6C+6CY0nMRCR7RabPCbrWqz8bxE0VobxxAx06rXAk6LfO6G5ygw7mVtW5Y/PHvUCz2c5w6eQr9+veLWZPrKo/8Guw244Fzu90xTbQOPB75IgShe9cuuPLCqdh5PB8vvbHeLE0+fF+zws2/iZWI+OHLnkLpdjrq5Y6vaeV+yxRpY2xyY/SxUKQ6533qszcQ1PFFehx1dX4hUdf9082I9paKOuE+9D1oxGrnIVj5SOQ3xj1xsiixZKVBW+ZOmyHqJLRCC6E3g9HzVqUFLRF10lQzSWcj9D1F0t2mpnrPFx+4eJEcv4JgcM2lczB+YG8sf2MdCs4UmaXJh1awhz9yttkm4OWdCJi4pmHAnM5H3pBEvNzVRdM6L6vwobzSjwpvQM9TrCnmTCLDfua00hnQR3hYvhQZxU6vQEJULwxa7fo924h6Jao1k2fNiW3njGzP9Biudu3hSOAlGddTC5fTroTdpr/fFiPKXke8laRIFUdBEFrIhbMmoEyJyTvr23aAGIvVggyPC1ZlraWKuIfDVzhfXuedGguaON/a2qZf/qwslGkhNyoR1ApObEO2Wjiji/Uf82MdOrmMEv1EWOmRCHf1h2NRJ0g3dEu/Jm7PrnUMuKKFTiu6NeB1MILeQy+AstZbaqkT7oHNBELLEGEXhFbgkrmTMU5Z7a99sLVNrXaSpsTM43bBblMWlVmWSmhBoOkXhhEb0NTZqmVNWHZeP4Pdzu/Hr4Vc3Y/G4LnQo9Baos790mJveGW8BQw6ayq4Lxq4H22lK7G12xMvkLpSYn5XFHOKOgPwEiHqhFfvkJwoLUaEXRBaibtuuAQBZTk++eJ7Zknb4nI74XY5tSAm5jWcSBJ0RkoZ6HJvbMx1CqfWzkYOR0u9QR0j4XD/OmOdOU94SnXt3i3Abk2H22lPvMudgq72R2uabndtpau/JFGiTuwOe5MVLyE65A4KQisxYkg/TFDTh3uPoqy8wixtW5gh0uVwmHMphCkOu/YdxfKX3zXyhTdivXJN7cqOICg6oUdT26pt0vnaa7CYrmsG9jFgrrWs9XC01Rt2jtR0o6vZ+dcUDdyMrny3EtxEinrIOjcEnTEbbEu3tuhcI8E9sdLlTMVnsx0iwi4IrciVC6frzFGPPps6A8TY7DZlubv158S9mluGqR/Yuvsw3li3HT5/QPdzjwTlMCQ49VDCwApBU3pjCIixj3C4v9Z0wTdEW8DmZ2KzWrWwxQu3pfAmCp6f3qfLrruw0UJ3MLWsuoEU9ESLOisKbtf5iYqE+BBhF4RWZOyowbhwymi8uXk3tu85bJa2PTadVCp1rKNQf/Sli2fhu//vRh34xTbySBiSEklYahvdpj71BZTWOitf7LKVLHS4oBZIwwVv08GN8R2fWzG5mA6Sa+ElhCpMrCSwnZ5irpsIEizmhHvjLinq7L3BQE8hMYiwC0Irs3TRLDiVRfbymxvMktSA7Zl0yyf2dd0yGOQ3sF9Ok+lwKTDaFd/AwqUosb96s4Zvg+WsDPB4ybLW9XFMkWSAPvuXtwTuTlcMWnj+vH/sEscc8ey6RhJtnWtC104r3e1ERoZHZ6wTEocIuyC0Mn1yumPmuCHYcfgUdu09YpamBhR33V5qzrcJWonPvdiZYrYxMaF7WKegbahiapbt45G6kTWEYhp68em2dSXspqGadJhrQF9TC8ST2+tb2MJrcLvsWtgZvJYoMa+3F3WSbF7RcR4utxZ0GRW0dRBhF4QkcMe1C3WikPuffkMnRUklPOoFyyQ2bYWW6DCLrblEWYbmnJ+33Uj8Ys5ECSsCxhCsZkES0PUS9ZdWMdO7JkRCW7ATWupsS9fdIdX9aKmoc2tOrHBYrVZdeaSrPTMzQ4s5B/1hU5DQeoiwC0IS6JadpVPNHj5dhDfe3WSWpgbUNAbUJURgYoTHZPt6uK7WNJO9jL3AQ23BIbg908FGcxF1qyjh4X5quV1SqYXdaoHdkn7edSQbHp7d12w6FWx894FXwInWOActYS58BmdmZmTophXGcrD9PIl1p06PCLsgJImLZk9E7y4ZeGf9TrMkdeDLmG7ppKMUgU0B4TQldqwE0NKlgISvRm3W81FcQmgVHjUeK78l8BytFqvO45/QA8exK56LxcL7GV/gHrfgxKA95kegNc4xQyjk2iJP4n0V6iPCLghJIlO9+K6YP8Ww2t//yCxNDfgObpP2TnXghsM9sz95JJmhmBcWl+PpVz5AYUmZtnpDhFzIsWgJ3fCsRIRXEFoTQ9TTtftdu/4TJHzGtasPMe+vVp1L/IF7OvjN6VRi7pa28hRDhF0QksjVi2djWO/ueGrlGhSfLTVLUwOH3a7EIbmvBK1vDTwF1TWRByVnP+etew5j+TsfYvOOA7ApS1OjNtcuda1uzRO+Ft3PyWhfN0SdXQx5j9PU58QdlJfdXFxCJFhRYuUoVmuda9usNmQo65xNOELqIcIuCEnmuiVzcKasAq++nWJt7Urh7HTLmvPJgIOeUCRCMNUqLelIsldeUYk5U0fj/113MebPGAe/PzSipJGYJpoT536ZQT4kg1oUW/mCuX+blZa6VV9b3WAvMQpqo6iL4sA1scCKENvVG1aqmoNnzAog0xNH/JKElECEXRCSzPSJwzAspwfWbt0HfyBglqYGdK8m631NkeDAJ+EHZPa3xgSP5WxfnzdzHJxOh45mN8rNoV+jOHG957Agsda+Voq6RQmoHthEHYznyqaHRPbb5p4YOFhdHfm+RUQJur73McBzt6tKGO+9kNqIsAtCkrFYrLjjmgU4U1qOR1a8bZamBka3t9aWOwMehe7gcGh5NnZ0WpccJ72ywmcMosIV1VRTU62TzERz1nqdBn3gW8sVT1Gnq5vBaXVVCXUsCw8YgwZHA/v2V1UFzQtsHp5CLFU4ni6j3l0cREhIeUTYBaENmDxuGGaMGoy3Nu3CqbwCs7TtYbekUHrX1oYWoKVBmz4FuynNo4DXj5qnG17JZpRCed5qSqzq7S5BcJ9GoNy54DQexsr2dXXMcK8EP+op/DNnYoAe9aoomyOIbuyI4WtOUyfE7HaxbCO0HSLsgtBGXLZgGnzKynprzTazJDVgUpFkwAoERw0LEco415R2nN8VjoO3VEerZ/X2ze59rVGHYTs6c6wzq9w5p79xbKcqowgTnjOtd5fDppMXcfIw+5uy8NkmH1onWpjr3se4g2iuic0RsexcVUZ0cKXQLhBhF4Q2ggPETB7SD299uAu5p8+YpW0P24RjeefHA/evE9MowQjB9nWKYlPoIVnDUWKmtd4UM7rrGXnOCPRIe9Jl5ro6kE2tl2go6tq6DYMVFrs6Ftu1Q+flUiKf6XHC4bDqCg6D2Wzqr5PDo7ocehAW5pFnezxvS6TrCYeX5VcVxepgeHUiMtxXY70PGsJ1eZ8kn3v7QYRdENqQu2+4RLufH1z+plnS9tCFHGu0dDxYrPUtwKqqUJR7ZHQueKXi4U0FjBdjVy+W0AKngL75/kfILSjSQhkJbh568XFfiRB3Vi54z2jVcgjW8AoKPxoWvJEIhudK4TYSw3AFvdo54TY/MP7AsOYdOo+74cI3ljUGl1PcQ5WXRlHrhTcHNIc9SV4cITGIsAtCGzKwfw4mjRyILQeP4+CRU2ZpG6MEhLoe/Ws/dijCTmWphmDbObusNaZHFE2KpbbOQ7CMbfJmGa3kE3ln8Mq6bdi0bZ+ajyzY+hi8QAXPw6YEtN5+Y4Tb6j7hygKnaz3cXuZu6VZ3KGHUR1Qny/Wspqu9SdTG3J7nyKQ2dNXre6bmG9NkXhabJhhk2KS4qxUZSR+NuHM3jY2NL6Qm8m0JQhuzZP5U/fe11Rv137aGL/L62dsTjx47POwYVYGmrXWi29frCZHRvh6CUeH9cnpg0fSxGDVsgJqP7Gqm+59WO3fFygLd4+xbHqu4h9Znm7hOc8t9GEV1lSK3Kme7OgPxuYzeAa5ft0K0cH21f+4rU1nwTiX0LIqkyyzz+tT9bOIYvH52j2O7fLPeGS7nBkK7QYRdENqYsSMHaTF6b9sBbNt9yCxtW1rbFW9p4Nqtrg42q3Whfut1KFEK77+uRVp9vmzBdIwY3M+IEo8ArVS6y0OXyJcgM6hFq10UdK7K9nCOXBYKNgw/O7ane5xs6z/3iuU91ZnnWgibD5xmsB3PgWcTfu94XfRkBOiSbwp1H7RlL3Q4RNgFIQVYdv3FyHa78PgL76I6khmWZFrTQKPAGYJkUK3Ehe3nTR2SYsz+6nXt6+oPXckU8/DteOf8yvpnkF1T+6PgMniN67OdnvN05TdltYeWhQSdVjrd5KH2dP7Lee6XVjk/1+1OrWMExyXolat2TK+Hx21XFYjQmO7mMkWtmg80J9pqHT0intDhqP+UhT0YgiAkD5fTiZnjh+Jw/hls23nQLG1DWitnPAVOCWN4NHygGTc8RYvCHy5cpIrR33G+s7gZxdxtVwKtBJ31BVrxPLeG4s7jp6crMdcBcMb6LAsJeggOw+rWFrzpJjeK9V+2Ucc7ilqTqN3xeJlOo5tcuMDznp3n5QiD18xc+TwnbtcoanlNLFnthDan3q/XoWp+8ZKRkWF+EgQhHi67aJoWlxffWGeWtC1MSpJwlIAYQ5YasI23Kth8+zoFql4fdvWxpUOucm8ctpTt1XSRux02ZGe4dRQ63eu04LWQq2UUTQooPQbhUmmckWGlc+L5hIs3P6Wpf9xqnzxWa8E4AXaT47mHBF5XSMzljcFb2JzVzmuId6x2oWXE28VQ/XZrax9evgrrdh/DlOE56OaxGzVhLtQPqf5Y9znSXw6z6HS5cfnlF8Ie54kIggA8/fK7WP7GBnz6xkW4ZO5kszT5eCsrtSs3kb9mvkqYi57jdofw+fwI+P3Gi6QJyiv9uhIQer3wc3mlz5iJER3hrV5ebPIIP2rdZ3UubHtmG3WwwTrh8HoYUa/7mqttOB8O5+mOp9C2ZHjUmFEnbAQa8lobO3sDrsdueG6nQ92SxsWbFU6X22XOCcli284D2LPnoP5O+ROh5pLwzyHqLQ8J+9qdh2FNtyHNztp0gy2agI9NQFX7HNZ0fH3ZIvTt08tYIAhCzHBQmG/84gFtHf7+u59QJfyFJZ/WEHa+dZwup7aCQ5SXVxiWdyNQMNleTmGnSJqFqkIQgC8Q1C+zWKCoe/1V6l1njGSn09FGQAu1Oi+/ugfhme14OH7mX3ZhYzc0Elqu/5oztNA9SjDTaamHVkhB2CzCQLym4H0Lr5AJyeHZ19bhlfX7kOGIbdTFOmHfsOc45k8aiO4ZzuajKSNgVT/WRRfNNucEQYiXp15cjSff3ICvLrsCc6ePM0uTS0VFZbMBaLHCoUozM8+JQ0BVYmixNwW3YTCcVwl5yPpk23a5N6ArBLGcH70FfLc99Oxb2m1+2zUL9P4bq1iE9q1ekdpdrdusua56w9IKZzBc+JasZLBCwIFf2K89WYl+EoHHrSogzZyrRwk776GQPPbuP4Kjx06gVv0W4xL2D/fn4t7rZmHcmFHmotjw+/31auKCIMRHaVk5vvWbh5DlcuEnX1+mrML4Y1/ihZZ0tCOmRYvTSWvduBZawxxfnaLZFBTGisqAspqDhrCreXo1vH5lrZvrxAIjyd9as1VnuVuyYJp2RTd7DuZfijg/sy85YXNACJ4axZyu+br2gljexG1Mc8LOS3E6HDreQEgeZ07noWdOH3MueupVvwKB+Ps0VlRUmJ8EQWgJWZkZuO3KC7E/rwAvK8s92VB0G3YjaynakjUFkfiVsEYj6jqJSrUp6kRtE4giF3pjsLJyydxJuOyi6VGJOuEa1HCbslYz3U4lcEZ3NrfLVjcxcE134aM4coPmd5sy8D43Z62TmkbyAgitR0xj7IdR36+SyF+yIAhxM3v6aAzono0Ptx8wS5KHls0oBC8WjExz5whG2dwXVKIe7jdg2lkG68b7qqKQh1KuRiPqhGuxndylxJsVDG6nt+Q/4VM7hJUb3f0wCmFnpUhoH0iDiSCkIDaLFZdcMAF7TuTjzfe3mKXJgQljEgnbsV2ucxHVPr9ft1c3BwU0EJ4WVoknU6Umos4R7S54LFrqWS6HDiDrSFDUWVGJpn89ZZ+xCCLu7QMRdkFIUdgGPKJ3D7z49gbd7p4smOEtkTgcRv9uQjc/88I3ZyBqN7wSHgpJyAsfCAYRVGVRGJcJgVLHyHaX084TMgrbMWxOoJjrSQk5YwI4alw01jrh/WA+fiH1EWEXhBSFSVOuXjQLB/PO4I33PjJLW59gC9qww6EQ0FoPD6qNpm3dgH3J1XmEraqHI00CjPxm0wGHSeXwqnXt+ymEFml1H88JtbmgiVNlO7oO8LNZdMIcjvfO64y2SYIEmxlaV0gNRNgFIYWZMGog+nXPxuadHBwm+hdwvIQC5xKFzX4uMQu77AT8AXOuaZgsRQ/iQmtS/c8ub7TgW9twprvd569CWYUXmR5nVEFlyeKcgKfprnRMGqMz5imBZs54ijX7zTPCPdJEIefEygq75JFYRJ13guvzGRFSGxF2QUhhumRl4tqFM7DjeB5eXLXeLG092Hc9UelDafmyi1SISp8/qqoJXcMMcGNbP41lRgbrZDTm8taC+2fCmZWrN+Kfy19DYUlZcjPGRYBCTkHnyTGhjsdlR2aGIc78zPHZKdLsU0+xp3eBlZFIk/pfo8U5zsobtwsfKldITUTYBSHFuUwJ+9Rh/fHS6k3IzS80S1uHON/3EdFt0yZ6BDdl6UUrznVBc2oD9mFP5Hk1hj6E+icrw41uHo8e7CW8r3qyoaDrgWoo5krI3ep+6i515omGBDp8am14hKYyBQqpgQi7ILQDLpk7BSeLS/Hehu1mSevAxC3Rim9j8OWfrixIi/Vcv3VfIBCV8OiguWoO+FJjtG0rcatSIh+yNlsTnh7PcOmimfjMHZcpgfe0iXUastAp6LTKtddA3YBkiXezyIAwKY8IuyC0AyaNGYyRfXti/db9KK/wmqWJhRZ1IrozGd3bnOacqixwfHRldUenzUrYlXhpcVPwbBLZ5t8YPAQDyzjSG3On22123cafzLi50DWzv7xuBzebAVJCzIV2hQi7ILQDMjxuXLNoFg6dLsKrb7VONjoKsFa4lqC2pyCF5xRnCthoUTYpAoGgtlDNgqTAw7kcSkiVkjM4rLom+aKuB41Rgu6w23SbeMoKuqq4CamNfEOC0E5YMGsCZo0ejJc/2IIjx/PM0gShNKSlfZQpQ2kWjm1+LmCOrv1oB2uhG54Z4TiFRJXueFYSWlXi1M7dTAmrzj1ZFYlwaKgzMC7D7dReg2gFPXw1fgzfKro9xA6/Fo79LqQ28g0JQjvigiljUFTuxYaP9poliUGnak1A26nT4TTe/iYcfyIWkQmGZ5ojSux1ytNWsl65W6Nvd2zDYkbZrtAstNQZ2c7x0EkkUWdJqJTd8Yxubg64VUXA43brUdc4pKqbg+w47LApi5/D/oYnntH7iOkCI6PzErTBoERCbIiwC0I7Yu7MMRg/sDfe2bgLZeWJG3ipKtjCoDmlGnQhM/lJCFrrwero98u2dA6LWi8hjCqjSFHgE6BL9aDQWdSxGKQW7c5pXfN82NzAtviWwGF22Aed0feRuhjylDgxiYxLiXZIwF1ulyHgSmAt6lzo0eBEQafg63WV4GdmZui/jHdgGbvyUZhDRHnJmtC6HKFPSH1E2AWhHWGz2HDTFfNQWF6JF99ITL92tilznPKWwCh4h/2cC54E2GYfJToanl3iIuSQp/hyqNQEGcl10KANDewSLRzVbce+4/jXE6+j+GyZsvbPVWRigZUYtuk7wipC4VBIKdYOhxJpj1uPjBcetxAtFH5WALi9S4l8RqYh9LT6WWEI5b/Xws2aTuhzGJxPVxUCinp4xU1IXUTYBaGdMWX8cMweNwxvrNuRkBzyzOoWeqnHhVJIj7Ii08IEUgegVVdHLcY8elMpYx1KBCmqiQoo424cSvS0NyCGXdJKr6ysRH7RWVQFa3TlIFZo9Yei3kOR8PVQJ8ekM7TOOURsIklT/1HoafWzwsBjaKteWfosp9BTxGnZc+K8Qy3LzPToyoHQPhBhF4R2yIxJI1HqC2DNpt1mSXxQgOkybwlsc23olmb/72j1UgfNqUpAUFnrjVrPamcUQk4x6HBEuD0Tv2ihinFnfn9A3/sv3X0Vcrpn60C/WKCQ01KnxdxYJcWhLGNa18mCVj1d+xR7Cj1FnL0wMvhXVy7OJRoS2gci7ILQDpk7fSxG9u2BZ9/8sEVWOwU4otUYDUqYdN9vM/ArnEAMXdxINYPmmjkNVgCYfc1pins8Z00tDe0nFhd8OGwuoIUb6yh4vM9s52YsQmNt6rSOHSkgpPS+xHd3hFRAhF0Q2inXXTobJRXeFuWQ1wIcxxucIpSWboHH7TEKwqgOcsCW6NPH0nLlcKzRCi3d0x4lzFYl0LEIPEWdx3Cr7eMV9RCxplVl3Yluf6bZbdRSV4KeCqIutH9E2AWhnTJj0igMyemOdzbtQVlFpVkaPRxprSaGdvCGOJVIRdpYtz2bn5uD1jMt2ViFkl3gMjxObXlbKPBKKymX+m+kSS2jd4Ft220RAMZ6hA4AVOfaEJ6f9nwoa10QEoEIuyC0Yy6cMQ5nK71YvTb2HPKBqirURhCaZlHbuJxGsFUkGDRHIY2ONB00F2/aWAaZcXhVPdKZnW3wHOXMooWS0fS6Ld1m1VZ6plqHZTGcXPyE3VZeG9vzrdbIyWfoPXC6XOacILQcEXZBaMdccfEMjOrXCy+8sxGl5dG3tbNrWbQZ4cKhLNksSkDtkV3GDMaLZb9MimMEoMVRwQiDVjgtYlrwmR41uR1a8DM9HBXNpsWdFZJkwEBCh7o/oah3dlNrLKJf30+7I66ubILQGPI0CUI75/alC1Dq9eOpF983S5qH1nqsUJeYTMXlbjxJCSPbo7W+2Z1Kr8/29ZZqbtghww8f5akkDHYPq6jw4sHlq7DzwHFtqTtVxSISPDXdP1ytIwiJRIRdENo5I4cPwMAeXbFp92GUN9LWXnCmWE0l5pwS4Bi7aVEhdTtwMy5jjuIWPbVq/dja1lMd5nwvLCnHlv3HsGPPEbhcNtib6Npmo+cjOY4EoRMhwi4I7Ry6cS+dPxn5peV48/0tZqlBcclZ/PvxV/Gd3z+K39y/Aj6fT5fHlBeeoq7EiYlMmoPt69FCqaPbvqUR6qmEzxfAgL7d8ZW7rsLSS2bqcPjGAgO1iz7BCWgEgYiwC0IH4JJ5UzCyT0+sWrtN55D3+X14/vW1+OavH8aqjbuQ5XZiydzJOi0o3fDRSql2F1sscLucum9zU9QqEaNlGs2+jWj4Gh2V3+FQN21g315wsNdAY6j7ZGW7vyC0Amnqh1j78PJV+HB/Lj51zSxMGDfKXBQbTLPokshOQWgzDh45gR//fQWG5HTD2QovcotLMW5gH1y9aBbGjR4Cm8Wox/t8fp1BrblYMnqP2feaqUejgRnsvF7DI9AcFHZ/IAivOg+OPd7RYJyBx+3QQ8FGdMOra/ao9yWzvglCYxTk56FX7z7mXPTUCfvGfbm49uKxmDhyiBbpWGCEbGFhIcaMGWOWCIKQTBgRv27zXjy58gMEgjXIyc7EdUsuwNzp48w1zkFR9/v95lzj6H7fnvMT0DQGk92w0hANFPZKX0BtE+xQrnjCYEB2beP46pFEnSXshhfLvRU6J8ePnYAnwx2zJmthf0QJ+5qdh+Gw2mBxsHYeoYbZBFXVNXDb0vGFOxahT053s1QQhNaGbegvrNqA9z7aC7+ymIf27YlDJwuw7Or5uHTBdHOt+tBlXtZI1zitQ0pnmSwl1ixo2hOgxD0ameZhyiuVdR/bq6ZdQGHnULA6r30ka13BJhEZVEVojhfe3IjX1u+BRxnPtTH8WOos9rU7j2BEvx7o2rWLTgcZC8ydbLdYcONVs7V7SRCE1uXkqdNYv2UPXluzHRXK8p0+ahAumDYWF0wdjR/87mEUllXgp1+5A9ldMs0t6tPQutavDPWPHmvcHl92tmiFndZ6VXU1Kir9HdINT5jhjh6PhsLOOQbNcXAVQWiOD7fsw+ZdR9Rvkk06ZmEUnHPF78/F529egBHDB5mLYoMvisYyUQmCkFjuf+I1PP3uRiyeNArXXToHQwf3NZcAW3YexI//+TQ+sXQhrmRkdiNwvHS65Sk3DJBjtyxbC6xIr7LAdWBeM1pd176uKiQd0Q1PQc9wR04Py2uvVut8uO0AJqrKWE6vbuYSQTifgvx89Ord25yLnrqoeFYGyisrjJk4qKiIf1tBEGJjzpRR+J+7r8HX7r2xnqiTEUP76X7t6z7ag+rqxvuV0xXMITozMzP0eOotEXWDGqVc5sdmiDS6WYdAXT/z2FPAI8HmjQNH8/B/T6zEytWbzFJBiEws3UfDSVh3t4YuJ0EQWgf+0saOGowLZ403ChrgcTlx6bwp2H70FF5bvdksbWXUSdFajRa9ascy1g3UddFibwx6SMar7+4by67EnKmjzVJBiExjFcTmkH7sgtDOiOanvmjBdIzu3xuvvLsZJWfLzNLWgxX76Hqwm2hDoOMpe7rFGHimKUOHSWkWzJ6IEcMGmCWCkFhE2AWhA2JLT8PsKaNw9EwxNm4/YJa2JkxOE517nZLXER189EKkN/FK5SUzl7wgtDbylAlCB+WCySPRv1s23l2/wyxJFWrZGt/xULUV9l/n4DaRoH/CapVsc0LrI8IuCB2UnF7dsXThdGw/lovVa7eapa0DhZoWacdzrseGEeXfuDuio/UCEFITEXZB6MBcvnAGxvbrhadWrkFpWfTjtQuxQ9FuKtiJlrxVugQLSUCEXRA6OFPGDsXJ4lJs3nHQLBFaA7axK2k3586Hmh+tvc5hdkvLpAuxEB8i7ILQwblo9nj0ysrAW2u3mSVtTcd0R9PL3pjBTuc8M85Fw6m8Anz/T0/gR2oSL4sQDyLsgtDB6dG9Gy6bMxE7j+Xi/Q93mqVtSG1MHePaDU1eFa35KIW9Z/dsXDh1NCaNHqSTBwlCrIiwC0In4MpFF2Bor+548pUPUFYR20hRCUeZtU25rNsjhhu+VrezR+zDri432q5uTM1927ULcdcNizrYXRKShQi7IHQCHHYbJo8ZgpNFJdi6+7BZmjj4IqEIRZC089Cy3kHfPE1df2Pd4AQh0ciTJgidhCXzp6C7x4U33/vILGkrTPnrYFlq0pqIime51SL2t5AcRNgFoZPQs0dXXLNwOnYcy8PqdYkOpKOoRf86sXS0/tw6biDyNbH6Qjd8tG3sgtBS5EkThE7EkoUz0L97F6x8J7Eji9EijV6q6YrvYK8edf26H7s52xCLuOGFJCJPmyB0Ijjm+oxxQ3HsTDF27T1iliYApWjRZ1WrVUKnhDD6mkDqoyz29Mbc8GpKb2LEt3jw+UNj6QvC+YiwC0In47KF0+G0WfHMa2vMkkQRnVIzalxbt0rsYhnqNdVpKuuc1WIxPyWGP/37WXz7Nw+huKTULBGEc4iwC0Ino1t2F1x38UxsO3wKbycwh3ws3maKoC3BYteW0PvQ2DjsvNZ0a2JftdldMtErO0Mds+PcQyFxiLALQidk1pRRcNtteG9dIkd+i6Wd3RDCDuOOVxfCgMCGfdj1nBL22O5M83z6jsvxnc/fiqxMj1kiCOcQYReETggj5OdPHoU9J/Kxddchs7RlNOWKbggF0KqEnV3E2jtsTrCkWdT1N2Kxm38FIVmIsAtCJ+X6y2fD47Rj+Svvoaqm2iyNn1iEnXB9upI7Qju7RfdRP/860lQFJtoc8YKQKOSJE4ROCtvab1g0EzuP5eHl19eZpfETj4DZrBYqvDmXPFiZCJ/ihdsyEJDXESmVbC0rL1arOScIyUGEXRA6MdMmDEevzAys37rfLIkfixK3aPOhE+2OV9vQJd8CbW0S7ldP6p86AVf1CLbv87g8Z90kwMqF+j+0nt4minPiZk6HVe8vEtorIRa7kGTkiROETkzPHt1w2byJ2H0iH6vXbzdL4ydmd7yanHYbVd4oSAAhcWbFgQFtdpsFLqcNmR6nMbmdyHA7kKE/G3896i/LudzltCsLnIF9aeeEvoHKh8qcDpvOwx/JWifch0SuC8lGhF0QOjmXXzILo/v1xPNvrEdpWZlZGh+0gGMRacNqV9az2q6heMZKaHub1aoF1+NSoq0E262EmuLb0KrmsUNTqDrCdRx2q942022H22VTFQ+rtupJTY3+o+fdLjvsar9Nnbe21mOr6ySENRt34ZEVb6Gi0muWCJ0JEXZB6OQ47XZcu3g2DuQV4qU3N5ql8WEIWexK5lJCzLbqWLU9ZDkTp9MQZI8SZAo7Kwv0IIQLeHPUW1dta7cpYVcVA1r0uqLgsWurnla+3WZtthLTVu3ru/Yfw5qte+Hz+c0SoTPRoApr/hUEoVMxfuxgDM/phvXbD6C0vMIsjR1mWIt1eFKKKC1lt9OhKgbnLO+m0Ouo7SjedLNTdFlB4X7CxVkLdAsI3wf3bVzfucpCc9B70BbcffMS/PiLt6J7t2yzROhM1PsF0l0VL5mZmeYnQRDaGxkuF26+fB6OFxTh2VfjTzXLwV3opo5VTimSdMnTbc6uY+GWeIjwMgqm22W0lfO9RWs/WrGNl9D+ozkG19AVnDbqp29T30GP7l3NOaG9YnSjjJ009ZDWPrx8FdbvPoreXVxIC5SjRj+8hkct9JeEfyah+aqqanTJ7oJP3nUdsjLc5lJBENobf3/4Jby7ZR++cc9STJkw3CyNDbp/A4H4BiihNcz3T7C6BsFgNaqrqw2RVP9RrNKVhc6R0kIvvGhEti3gWdnpTXDL+1CIn/fWb8cbb72vu1MaT9U53Q3X4/DPRFvsnGdN+FRxBQqCHpypzqg3FTQxX8i/NZk4WZ6G8opK7k4QhHbKggsmIqDE9K018eeQb0n3Lgo130cURVrvGWakOi1ztnWznKLO9VJV1AmvwWKN3wMqCOTM2UqcCriUzhq6HEmLw8tC82EW+3HcfOkUjB02AJWVhkCH2pLCPzf8SxwOB0rVCQwfMVjPC4LQfnno6VV44f0t+NwtS7Bw9iSzNAbUa6GsvEJZ3jVa4DojfD9mZmaYc4IQH6dO5sHpsqOioiKiHodTb7n6oIX9w/25+MQ1MzFp3Gi9IFbKy8vh8ciABILQ3qnw+vC93z6MKmW5/+bb98DldJpLosfnD8Dv93daYbc7GJnvMOcEIT7yc3PRu29fcy566vnMaqrNTppxEG+bmiAIqYXH5cRNV8zDiaKzeOmN9WZpbDhs1k4r6sp0Utef2m74o8fz8JM/PYaDR06aJUJHIv7GMEEQOiyzp43BtGED8PL7W3H4WK5ZGj2Mjmd62frOwk5ArTHoC68/lTl4LA8b9x3D1l0HzRKhIyHCLgjCedDa/uydV8CqBOrPD70cV2Cs3W7X7e3Jpk0rE+p+sRteqjNz8ij8/Au34YqLZ5klQkdChF0QhIgwucnSi6bh6JkiPP3KB2Zp9DDdKvO0tzYUck4MHqK1bLVadT/38yamlVV/wweqCW2bCLgfl9OR8tY6yfC4MG7UIDjV+QodDxF2QRAaZemS2Zg/YSSefXdzXO3tTqczYcIZInx/FGkGqelkNR43PBkeeNwuuCJN6ly4LEOtk5mRAZfahiljQ93zWiTytbWwW22wpXjbutA5EGEXBKFJPnHLYozs0wNPvb4Wew8c02XRCiCtV4fdnhBx1/tIS1cCatWWZqYSaIq0w2HXghqLpZzGMdTVNhR37oOiz/OkyMcq8OxhpPflTn0XvNA5EGEXBKFJKKCfuGmx/vyXR15BYXFpTBHvFGG6x7UCxo0xIEumx7C+2X6fSJc33fQ8T6Oi4KwTeNLcWbNiwXMShFRBhF0QhGYZPWIgvnznlSipqMSv//EMSsvKzSXRQRe4RQlzrNJOVzv7hLNyQes6Ge3XHBmOAk/3PuMELOkWNuCbSxXqI8+LVrrH7e7w7dQtqY4JbYMIuyAIUTF1wgjceukc7D91Gr/957MoizFSnuJON3pTUES0kCghpaBTYNmGTtd5sqFwM0YgI8ONTI9bVSyMiYm4tPteCb8ef74DwgRDz7+2BkdP5HXefATtGBF2QRCi5spFF+Crd16lxf0nf3oCp/IKzCXRoYPYlCAag1qYQq7+CYk5XfZs787KzEipzG30FNhsFj2Fgu06Msxd8N9X3sP6zbvNEqE9IcIuCEJMzJsxDrdfNgcnC8/ix/c9je17DptLTIFuBiPQTFm+anIrEXe5jKh2D6Padfu5RJa3NWNGDMI9Vy3A5HEjzBKhPSHCLghCzFy9eDa+9YlrEagK4pf3P4unXnhHl8fitqUbm0FrDISj2HcGS7g9sXTxBRg5rL85J7Qn5JckCEJcTBwzBN//zA0Y1qcnHnl9HX73z2eQf7rQXCoIQlshwi4IQtwMHtgXP/7anbjrsjnYsv8Evvyr/+Jfj7+qR4gTBKFtEGEXBKHF3HjVhfjK3VdiZP9eeGvjbvzPbx7Cus17cLa0zFxDEIRkIcIuCEJCmDp+OH70lWX40h1X6G7fv3noBXz7d4/guZUfoNzrNdcSBKG1sfxQsW3XIZwqKseUkX3RJ6enuSg2vOqH63JJ9iVB6Oz079MDC2aNQ1qwGiVnK7B66z5s2LQHtTU1sKanoWt2prlmahOoqsLRY7nILShGdXW1zkVfUVGJU3mFOFtajhI18W/x2TLUqGsLjep2Mve0ms6gqLgUToe9Lsq/qqoaJ0+drtuOSX7cnnNZ7o6fyEdFpVcn4wknXx2/qPgssjLceqCbcFiee7pIHcOqM/Mlk8NHT6E67LqFxFNRXo6MzNh/L2m1ioeXr8KH+3PxsaumY8rEseai2CgqKkLXrl3NOUEQBIPV67Zh1ftbsPt4HpxK5Eb3z8GlC6Zj5uSR5hqJgUK89+BJDB3QS3edayl/e+hFXSlJU/85lXB++c6rEAwG8Zv/vgiHzQq3Em32Ciip9OGqOZPwsZuX4IEnX8Nbm3ajprYW6tWK3tlZWHbNRZg6YTgKlQj/8E9PoNznVxWBWr3OkN498OWPL0U3td7Xfn4/Kv1V+OXXlqFLlvEyL1Uv9v/9w2N6+NwfffkOPSqbLleVgmde+QDrdxyEN1CFL9xxBaZPTF7XtPIKL7756weRpUT9Z9+8W3o0tBL5ubno3bevORc9YrELgtCqDFZCfrESvonD+6OrslB3Hz6FVRt2YM2Gncrqy9Mi0bNbVov7rx84cgo/+fvT8Hv9mDxumFkaH5u378eTr6/FjRfPwNKLZ6K0pBSn8gsxb8ZY9O/VHb26ZKjrOImpowfhqgUzME0d78VV6/R1XXbBRFyrtpmhxPzw0VysXLMV44b2Q3aXTLzw9kZMGtofN10+FyMH5mDdtv04rSzuWVNGY9W7m1Fwthy5ytqfPX2MrlCsWLkG69X7uZuy4hdcMB4O8x75lZiv/2gvenTxIL+oFFPHDdWekmTB78qpKjdD+vfC8MH9zFIh0cRrsUs1SxCEpMCkJzdffRF+9rU7cNcV83T2uXe37MFfnnod31dW6SMr3kSuEs942XvwOAK1NRgyIMcsiZ9yZYVXKmu8Z4+umDR2KL7xmZvxGWWx9+jeVVdSpk0ciaqaGgwd0FvNT4Syz/GyEvDrFk7HshsuwRQl6rMmj8JXP3UdMt1OPP/6OjicNmXF8/x6K+t6JJZcOF1VDIZi75E8fUyrJR1uJZgf7j2Kt97foi38t1XlJ9PpQHqDlLpZmR586RPX4tols3U8Q1twybwpWHzhNHNOSCVE2AVBSCpZGRm4atEs/OLbH8MPPnszPnbVfHicdrz4wRZ85w+P4Ef/9ygefGoVNm7Zp93r0bJz33F0c7kwevhAsyR+Zk4agZkjB+IvT76G7//uYfx3+SqUVlSYSw2LmXpaZZ7f/iOnYFPCTMEOhy72GapicCivEGcKz8Jhs+FY3hns3HsYb6rr3brvKEYP7qPX9amKxOC+PTFGWfIvKsv+//7zAnpmZ2KOOhdfIGjk3m2A1xeIKtuf0LkQYRcEoU2wKFNz9PABSuQvwA+VFf8TJfLzlDCeLirFynVb8buHX8Q3f/Ggbrfed/AE/P6AueX5VFRWoqCkFL27ZSGnZ8tifWpravXgL9/53K347I3GcLWvrt2G3/3rOZSVnxP3eqhrqabwRrCeGVjHYlrdjDH4SFnkv37gBdy/4i1kuBy48Yq5er1gdbWq4Dhw+9ULUFrpw7YjJ7Fw1gR0V+LOZW1mmgvtDhF2QRDaHEuaBSOHDcAnb78cv/7WPfjup2/A7ZfNVda9Swej/e9fnsB3leX8u388jRWvvIe9B46bWxr4lOVaXF6JfjndzJL44UhyHATlnbVbcdGcSToBz7c/cY0e+GbNxrBBUbTQGmI7ekg/2KxWvPr2Jj0fguf5wbb9mDRigG5jZ+Dc7AnD8ePP34b+PbLRRV1f7xyjbZwR7xXqOngfFl8wAZPUPhfNn4LKSr9eJgjRIsIuCEJKwYFgJowegqsXX4Aff3UZfvXVO3D75XN0FPquI6fwzFsf4sd/X45v/vw/eHD5Kj206N7DuSj3V6F/n/iCfxuyZtMu/O7RV/CXB57Hext2YvX6HXrI2T453fVyRrUHgkHdDY4M6NcL1y+cgdc+3IHv//5hvL1mK154fS1+df+zOmL8xivmwa/Oj16HLI8Tg/r3woLpY7Fh3xG8r7YhgWC12l9Qf77y4un47LIr9GeWV6mJUfYNYZt9sCoYcVmqIE0FyUei4gVBSGnYr3u0smIXKuv5gkkjMWnUIPTp1gVnikuxae8RvKVEd9/hk3rdWiW06ZZ0eFx2PfxrvIwZPgC1gSqs23kI67fvR2mFD/dccxFmTh6llxcVl2H7/qOYOHIgRgwxBkphs0J3jwu7D57A+1v3YY+qbExWyz910yL0UxUOn9eP9ap82IA+GDNiIIYM7ouTx/Nw/FQB5s4YjfWb96CbsuovmDoGDo5Fb3bZO3D4BIpLK7Bg1oTzeg4Uny3H9n1HMWP8cPTp1XJvRSJhs0Wx+o4yM1re9bCzIv3YBUHoVDASPS+vEO9+uFOJ+3Y9ljsN1zNlFch2OzG0Tw+MVcI6UIlq1y4e9X7K1IF7sVBcUgqvz69FlpHoIaqqa+CtrFRC64DTUV9s/YGAeh+WqvOx6Kj6EGy7L6usgMNm18JN2C5fosQvOztT7c+rx32nxyIcnzp+VTB4XuIawgQxjC9wOVx6rPhU4g//fAYFJWW6nzu77gmxE28/9nrC/v9umI2xo+JLcsDoUP6wBEEQkgld8d/70xOYN3EEbr9uIT7acRDbdh/GniOncEZZukwE47Bb0V0J4/ABOdpanqis/nDRFRIP++UXqYrRLUsvMkuEWDlzOh89c3qbc9FTJ+zrdh3D4gtG6OQLVYEatSiGlhH1w2FNefYFE80CQRCE5LDi5ffwxJvr8YXbLsf8GePMUsPSPXQsDzv2HsbpMyUoKCpDrrKOS70+OJURMqBnNsYOH4i+vXugZ3YGumR50K9vL3PrTkAt3/MNSJOwq1Ti4KETKCgo0p4cJdVmafPUCfvanYeRjjRYnR7t4ooFuqUc1nR8ddki9O9MPwxBENqcnylr/eCp0/jpl29TIt10jBCTvhw7UYAd+45i3+ETOJpfDG8wCIvSM/Yx75udhWGD++g29pFD+qFn9y5qqw7gRg6JeM05MWfgXY35qmf+m7RwUQ9PESti32Y8s3ItVm7YhwyHLSZVrhP29XuOY8yArqitKESwOjZhZz/N7OwuuGPZzbBbpC1FEITkQKv8f3//CPxV1fjFN++CJ8YBSZjpjoF3J3MLUFRSjtyCEpxS4l/uC6iXqR19lbCPHNIXOT2y0S07U/cpHziwL2wNMsGlJKaY19ZUU8XVe71G6XW67k+flm7R5TpnvXp/U+RDAt4w73so651uJw8tE7FPCpu27MIHH6xV31Vsmlyvjf2zN8zF6FHx5VhWuzE/CYIgJIe8/DP49u8fxfD+vfC9L9xmlsYPvZWnlMgfPVWIXfuP4dCxXJwqPKvTy3KpU1n1PTI9GNy3hxL8/hg5lD2JurUoAj/hUKRNsaYeULgpxDa7EbDXGNVVAR2Mx+35Oqf7N0TImreGdD0k7GLZtyotbmOXqHhBENob2/cewU/+8Qxuung6brpqgVmaWE6pysOhY/nIP30GRWcrkVdQjJNK7JkQx6qM2G5dMjA4pzv69e6O7l27ICvTjYFK+PuYiWeSQkjM1X8hK5zWucV2TswZgf/um29gzQcf6Pd1l6wu6Nu3DwYOGoQx4ydgwMAIqXgp8sqyZ3B0yHYLCT7teG3MK0EPz2VPb0A9RPDjJiFR8SLsgiC0Jyg4h4/loUe3LHRToposikrOIje/BPsOncDeQydxUol9mdenxZOiylHYemZmYOjAXhg+qJ+y7vsgW1UAnC4HbJYE9x4yxdcYCtYostpsOlsd458KT+fhtVdfxZNPPoUDhw+hvKxcJ9ah8NvUekyfm92lC/r364upU6Zi6tSpGDtuLLLU+9zt8cDpqO+NCPh9RkUiRJhw05IPabx2+YfHJ4Ss+3pCzxNOU7urVcVh6woaEXZBEIQ2glnoioqUFV9SjqLSchw8kosjJ09rwed47TYlapkeJ7pluHV++JweXTF0UB8l/Dna0rfEK/bVzDqnRDbdqoTxnGCePH4MDz34IDZu2ozjp07i+NFjul+9w+HQ61H01atf6yorIpxYSQqq/VHwc3rloFuP7uiSmYmuSvQnjB+P2fPmYayy7DMbSZhSFQgogTYy52lMAQ+57anbnPS8ut6Vb3+IN9ZsxWduvwzDzCQ/Qn1E2AVBEFKMkrOlOJlXhF37j+LICSX0p0vgDVTBWxVAUImpVYlcjyw3BuT00Nn1BvfvhZ7ds2B32HXGtiYTuygRZpt4utWwzgvPFGD3zp1YsWIF3nrnHRQUnFGrBLWYO5wOYxvToo8IRZfWsxL8gBLpIFPm6sA76rAVHo8b3dQ7fuTwEZg4cSImTZ6MESNGwKms+i7ZXepZ9rXVVToNrjFjtPGH4BXZ1Lpvvr8Zr7yzEV+8+2oMGtDnvPUEEXZBEISUh8O9liqLvqS0AkVny3H0eB4OHMvDCWXZF5ZVgp2KMl1OeJRVn6EEuUe3TD2+PNPWDujb47ysdIZSp+EPv/0Nnn3+BZzKPYXy0jK41HpMGKYHj2lKzKOEYk/PADPgacu+KqhTnfbo2QNZmVnqfF0YOngQJk+ZgjnKsh88dJh2859HdTUCVX61L+jzY+XGYberfQb1sLcaeh5E4DUi7IIgCO2U8vIKnMgr1Al1Dhw5hVy22Vf6lWVfpSsDFMJMtwP9e3XFkH45GD64Lwb07oa+fXOwY+sWLL3uOlSUlSMjw6ME06aFuFUwHQi07GnRU+Rp1bN9n5UItu2z8tG3T19MnDAe48aOw4RJE9GzZy9l1XdF9x7GIDp1VAd1Cl6jecBon9fd7UTcNSLsgiAIHYiSs2Uoq/CirKwCB5XgHzl+GodzC1BQXIriSi9mjhqE739pGb7xlS/j4UcfU8KZjVplAbcljMrnOQRUZcTv92sXfrY6r6wuXbTgs71+3JgxmDl7NmbPmYtu3Q2h91ZU6GA7o599uoi7iQi7IAhCR6e2BvlnzmLrrgOwWCy4ZN5UfOEz/w/LVzyLLl2y1OJWstRjRVnetOpr1PmynT9oDjvLeToTaN3n5OTgW1//Gm65Y5mqBPhQpSoDDPALCbuIe/zC3rmrQ4IgCO0JJXI5PbtiyYIZStSn6KLblDBalCD6fX612PSVtzVKvCnkFHc2DbBLHYf19rg9urkgw+NBwenT+OZ3v4snHn4IDh14V6srAKEofZ0sR4gLEXZBEIT2AiPhqwK6Lznd14w+Z7Da5z59rx6HntHstJZTGlP0GeDHuICXX31VF1stFtSY1j1FnZUVaWePD7lrgiAI7YTaBkLH9vdaJfb/84Mf4Gtf/jIqKytTy3JvCiXwdL2HoueZNCeoJkbfW1QlZe+B4/jhHx7GgUPH9XIhekTYBUEQ2gnsvXYONaMs36LiEmXIV+FzX/oyfvHTnyG7azYqKyobrpxy0Gqnm37yRGO4b6/Xi5oaJezVNbAp6/3k6ULsPJ6H/KIyvVyIHhF2QRCEdsQ5YzwNaUoA05RAns7Ph7eiHB//9Kfxw+9/H+mq3Kus91S23CniHo8H02ddoOcZRc/gP6blZW+AedPH4U/fuhtzpo7Wy4XoEWEXBEFoR7C/N+VaB4yz77jVqoW8pLgYZaVluO7Gm/CPv92HPn376nmdpCYFodu9W9dsjB0/XscLMPkNo+bphSDsNtcnp6c6fzbKSyBdLIiwC4IgtBfMNnZ2CWNSF3YJo9Vu02ll01FUWICzSuAvu/Iq/PRHP0R2164oLy9POcudlQ0mtxk+dKju515aVqZd85T08L74VdqKV/MSRBcTcrcEQRDaE0rMqdOG1W4kddFBaHYb7DY7zpaU6LzxS664Eo898jDGjRuLM2cKtetbW+8poPGU8OrqGkycNEnPW9Nr4XY61PnbdHQ/Mex2IR5E2AVBENoTdMWrqc5qV0LIMdBtVqsePMZut6P07FkUFpzG5GnT8ff77sOsmTMRqAqiWFnzFeUV2lpm9LlhIycf9lNn33YOEVutTuGVtz/Ezv3HUVxSqoU9M8sDp7oOK68tFWoi7QzLDxXbdh3CqaJyTBnZV7dpxAMjGpmAQBAEQWhlaLUrUWaiORrh6doSVxJoWuTpSvj5Tvb7vBgweAiuufYajB8zBkOGDIbD7tD93b0+P3w+H3xm1rfq6qAWema0a23LvipYpTOV3vupTyAIG/7wwAq8u2UfNmzbjw1b96OwsBQetxPdundVF2Mxt+p8VJSX68F2YkVSygqCILRHaHErMaa4M6FLdZDZ2tR8sFoLJ8XaH/Bry7hXTm9t3YcoKjyDrR9twYcb1mPbtm0oKS1DmRKRoqJC7banNc92e5vNquoQRprXOqFPgJHvU5WOAYMH45mnnkK3Xj2x+r312HvoFI7lFuKsN4AzZZWwW60YObAP5k4dixFD+qBfn57aVR/irDrnzTsPY8zQfuid02BwmQ6C5IoXBEHobDBaXIl6VTVzsNegRv1ltHmNEny62znv8/v1PPWYwXZ2JfTsZpaRmWXsQ1FWVqaswzIU5Odj544d2LhpE3bt2oWTuXk6sI1CzCA2uv0tFqt299Oy1678OISeAX10wz/+5JO6clJ6tgSeTI+6hjQEAtXIVxb7R7uOYOPOgygor9BDuvbu0gUTRw7EwjkTMaBfDjZu3YdfPvA8Fk8fi3uXXWnuuWMhwi4IgtAZqbPca5XFriadklWJu/pLkWfymoASeQ6zyuxuHPtcvfaVBZ8Gh82uU7u6ldA7nC4t2OEcPHAAmz7cgA/Xr0euEv1SJchnCotwOi9PizPbw2nZU/C1Za/+1qMR0S+vKMf1S6/BX/7xD+SdPInyygpkuN36HFxOB5wet1orHX5/AB9u24ePth/AsfwinDhTrJPXTB4+AAsumIiSigrMnDACmRkeY8cdDBF2QRCEzoop7kHdDVx9VtZ1UFnrjITXQs9lprBznpa2MW9a+mr9kK+dIk2Bd7rc6NatG2xhYl9RWYmAst4PHjyAHdu3Y926ddizdy+KS0pQXFyi2+zpFaDr3m6nK9+u2+vDLXvO0+3/u9/8GrctuxOH1b5Yxhgtu92hx3S3WqywWNU+HA5uoberUteQl1eIlas3Y8OOgyhW59E3OwuzJgzHovlTkNOzm16vIyHCLgiC0JnRgs7R0Wi5h4s7RV9Z6qaLPjR6ms7ypj9XszagLX49rCrLze2oqRycxaHE3aWE3qHF16ZFPwQt90MH9mPjhg3Ys3sPCouL1FSMUydPIf90vvYQMBbPoix6CjgrBxMmTMAzK56BW+3n+LFjcCoBZ0Q/R3mz2qw6wj9diTtd8AwUZE+AcAoKS7B67Tbs2H8cO46cQvdMN65U4j5zyij07tVx2ttF2AVBEARjBDgKNo1kCj1d9Kb1TrGnYIcsdYq4IeZc31iPprWSBUP8zb96e/VZrWgcQyk+29gZmNclKwtZDd79dP2XKk3Yum0r1q9dh23q77GTJ3Ukfp+cXvjNr3+DcRMn4vjRo0r4A3Cp/dBLQO+ARYk6KxPMqKfHZFcC3xTbdh/Gc6+vweaDJ5CTlYmbLr1AWfBTzaXtGxF2QRAEwUCJu3axKy02rHIl1qZ4U6wp+HSNB1UZ/2rRDxd6vY6a1H9stw+59wmXc3819ADwr9qW7euGpc0kOXSj2+DyuJGRkam3IXmnTqKk5CxGjR2rnetsW6+orNCR7nTZ0+1OYWffdYq7zaosfHZ1iyLrHM9zw0f7sHL1Rmw+cBzzxg/HJ2+9FF2zzx2/PSLCLgiCIJxDCbBSXVPYlTDrIoq2+qv+qRN5LeKGpc7/Q8LNcu5Du/b1voyy0HI1oz+HW/s8Dsu4jFDw6brP8HjQRemD3eFEWelZFJ45owPj6ILnsK16+v/t3Xl4FOUdB/Dv5tzcCeQAEo4KBsEQQEGucimo+AiKgFooiOCFeOBdn/rIX9anrVUB0Ra0IihWkHCFS24kJhhuwhFAuZSgwVI5AuTs+5t9N9dT6G5IZjaZ74dn2J33HZjs7GS/877v7EywCnV1QCCtdSPYr9ANfzXyf874fCXWb9+PdkkJmPzcqCpfkatvahrs1baY6ySFmjC+50hERL5BAtE4Cc01Zi1BaXRvGy1idwtbX7FOn+jmr8oC1KO0nKUFLVOwU01BTtejCl/pfg8JceoxcalX82qS8tCQEISFhCI0NBROtUxAoL9xkp7cWvbokaM4eOAA8k7mGQcb8m8k0GWd8jNK176Mw8uAfIA7TrwIdSE/39Njh2DC8AE4mHcab0yfh1/O/Kpr7aN8q0m3irx5NcVgJyLyQTrgHRLy6nPauK68hLx6Lp/bxkVoJFT9Ha4DACPkK41zy4VqpEzGwI0Wtgp9mYJU8BuT60DAaH2rYHVf1laWcap6p3yFTYW8hK5MxkGAHDQY61EtdGmlq/X4OaTrXbJENzCvIVMG9rkZDw7shl3fncDbMxcaZ9TXR35+Vz+/4ErKu+Iz9x5FbKQ62gqPhDGeUiYHTg6j60XOaFRz+rnMSDdLxXxxcYl6owIxbngfxERVXPSAiIh8kNG1Lt3vFdxj8jIZ9fJgPK1YTnLBWE665eWPXlaywOja1931rgxxzRvd+LKgLKv+kivgySVwjUcZm1cHGnLRG6PFrg445GDDk5PmPDEnbS0WbtyGfp3aYsKYwa7u/XpkfVYONmXnGvnq4trmVbPZtXkrslk9V5Vln0qw7zuqNqZDHVF5f713uepRSFAAnh19BxLiOM5ORFSv6CAXxol1xhMJCYcR2BIYpWUSJhXLyXi6O6xlEeleN+bUTOUT7Vwn4RkVRpmQC9kYt3dRjxLwASrgpUwC3Qh1mbzshr+SGZ+twNLMnRjUNQVPPjRYl9YPS9dmY1XWfiNfdYZ7pLzFvvVQHobdloKbbkxGQUGBrvaMdLvk5+ejTZs2uoSIiOo9d5BXarW7A1y4W/euB3ewuzO84gQ9eV4p143WpTQw5WY17lvPSpDX5IQ5T0ybtQRrtu3D0N43Yez9t+tS3/fDDz8iJiba60yuclb8+CG3oGPKDbrKO3Kt4fDwcD1HREQNTqUWu4S90YJXCW2cJS9FOryrtuxVYeVUFxLsKtClFWrcglZCXuY9/Hqbt6TP4P1Z6Vi7Yz+G/LYzxo4YqGt8m1y6N6FpUz3nuSpb0OhaqSG54QARETVgErruSZ+QJ2FsnNWuWtrS4paAlkd3t7oM8bpuHlNpUmXSWjeWV6Euy9VdqKv/Vv2ZOHYwbmnbEmkbt2J++kZXpY9z9XZ4r/a3IhER2UO1oJfJuJ+7PBpn1Lu+aicnyFWfJNTdyxn/tg5CXVQem35ahXuv9q0xd/UWLF2dqUsbHgY7ERHVnsphL5NujVefysfSZTKBtH3DQkPx7PghSG4Si9nLM7ByfbarsoExZ4sSEZE9VQ756pOJ3C13Z7ATLz02FDckxmPGovWYNmuxKq1Zl7evMnfLEhERWSy2cQwmjb8XLeMaYf2OA1ibsUvXNAwMdiIisp3GMZF4RbXcr2+agI/S1iEje6+uqf8Y7EREZEty7/anRg9CVHgIPvhiNbbsPKhr6jcGOxER2VbzxAS88dxItIiPxt8+WYJNW/bomvqLwU5ERLbWKDoKj4+8E3FRYZj55Vp8W89b7gx2IiKyvZZJTfDmi6OR2DgKb89eUq/DncFORESkRIaHY9yIgWgcEYb35q5AxrZ9uqZ+YbATERFpya2T8McJw+EMCsD0z1di5tzluqb+YLATERFV0qxJHJ783Z1Gy33Vlr1Yl7lb19QPDHYiIqJqOt3YGn94dChiI8PwcVr9OqGOwU5ERPQ/JDaLx6uPD0OL+EaY9tkyrM+sH1eoY7ATERFdQcukBLzwyL2IDHPig3mrkbX9gK7xXQx2IiKiq2gUE4U/PjEcyaoFP23ucmzM8u0xdwY7ERHR/yEn1E0aN1i13EPw/ryvfPoKdQx2IiIiD8hd4SZPvB/XJcRi+hdfYdWGbBQWFepa38FgJyIi8pDcOOb58fcgKTYKHy7egDemfoELBRd1rW9gsBMREXmoTE1xsTF49YkRaJuYgB1HfkT66i2uSh/BYCciIvKQQz/GNooyzpbv0qY5FmzYirTlm3TN1ZUZhwauA4S6wmAnIiLykgRzTHQkXp80Cp1aJ+GfyzLwyZdrXJVXcODwCbz05sfI3La//AChLjDYiYiIvFQ5mJ8ZOxh9UtogPWMn/j4nXZdWdfKnXzBldjpO/3oe/gH+urRuMNiJiIiuQXh4GF6eMAJ9Uq/H0qzdeGdmmiqt6Gz/95lf8VdV9sv5Ajw96i7c0jFZ19QNBjsREVEteOrhIRjaqzM25RzGe7OWGmVnz53HWzMXIv8/5/HE8AG4uUMbo7wuVQn20JAg/cx7ERER+hkREZH9ONSfR0YOwj0q3NfvyMVb/1iAqR8vRc7xPNx/e3fc2rOjXtIzDr+atb0dZcqc+auRte84+nRqhdjoCBQXlehqz5SWlSEwMAC39e2qS4iIiOxr9persSJzDxwOYFCPVIweNkDXeO7g4WM4cizP6xPtyoM9c+8R1Xz3gyM4BFBB7Sn5oYuKSxEc6IeXxgxEs6bxuoaIiMiepny4CBt252LAze0x8aHButQ7aSu/wfKsgwhzBqlY9iKX3cH+7YET6Nu5JWLDQ1BY7F2LXY4mAgID0a9PN1cBERGRTb370SJszjmMu7qnYtTQ/ggOCtQ13sk9eBQnT+ahuMTLTHYHe/ahPDw2tBtS2rXVVd65dOkSgoOD9RwREZH9fPSvlVi8eSdu7dwWk8YP1aU1c/rnU4hLaKrnPFdlZL7Iy7H1ygoKCvQzIiIi+/lgzjKkf7ML/Tsm49FRg3RpzZWU1Oz6dPy6GxER0TVKX7MFy7J24zfxjTH+wTsQ5nTqGvMx2ImIiK5R985tMXZQL7ww/h5ERoTpUmsw2ImIiK5RbONoDL+7DxKbxtXpDV48wWAnIiKqRd5+77y2MdiJiIgaEAY7ERFRA8JgJyIiakAY7ERERA0Ig52IiKgBYbATERE1ILUW7N7ceaa6a/m3tcHq9ROZib9vZDY773PXsu6goCD9zDtVbgLz8N1d0Dm1va7yTnFxMc6fPYuCixfhJ/dy9YDDz4ELFy5iwbrdaBEbgv49UlFaatIboH5GtXpkfJuD/XnnMaRnGyTEx6GkpFQvULfktf90+gJWbN6NDq0T0DW1tWnrFmVwYG3GPpw8cw739e+AqMgw09bv7++HYyfPYE32AdyUnITO7Zqbt93V+15YVIxVmQdQXFSEu3qnIjjI37RffHnth4/9jE3bD2NA93Zo0TTG1Nd+6XIhln69D/FhfujXowNK5Ru3Zr32AH9sz/ke2w+dwrB+KYiJjjDx980P+T/nY1nmYXRpl4TUtubuc8VqXSs37zU+3wb1SUGAfPiYRPa5747nY8PWg7i9Z3s0b2LuPnfx0mUs3LAHSdFB6Cuf8bK7mbjPZe86hD1HTmOY+pyLiAhDWal5+9ypUz9hxZbv0e3GFki5PtG77a62XUBAAGLj4nSB52ot2GsqPz8fk2esxHURfnjxmVG61DxTPvxcBXshnn+gB5KTk3WpOXJy9mFaWjZuaAw8N/EhXWqeP01dgONnL+D1cQPQrFkzXWqONesyMf+bQ+jWIhzjxtynS83z+pT5uHSpCH95ZaQuMc/iJV9hxc48PNC/Pfr37qpLzSF3YXxt2iIV7EV4+cnRutQ8b0+didzzYXh1ZE+0atVKl5rjyJEj+POnX6N7q3CMHW3+Pjf5nXlGwL/x4oO6xDxLl61F+tYT+P2AFPTu1UWXmuPcuXN4bXo6WsaU4vnHzf+Mf2vKTHxXEIbXxvRFYmKiLjVHbm4u3p23BT1bR2L0yHt1ad2zfIz9omrhOwMdiIiM1SXmio5vgkC/YhReNv+C/YXFQHCgP/xNPHqvzBkSDKc6opX3wHSOMmPd0powm7xe2e7O4EBL7kpYijK1/gA9Zy55vcFqm0fGxusSc/n7q+2utr0V+9zlwhLjffdTLSmzlapWYrDa34LUVFRUpEvNFaT2OWlBm03e6yD1GRcVZ90+F6w+a+Sg1mxFpX7GPmf2dvehk+dM6oKvrqzU2OilpTW/ZW1NOay+orCl4076iUWk692s7vfqHBa/87Juh9rvrWLNYawKV/f7bdEPUL56C8LVxcJ9Xr3mMrOGWX2JOqCz4lX7ULCTFWz4q+Yj7Lvl7fj5bndWHVC4WXUoZRUGu83ZbYcvZ1mryc22W944aZUsYtF+b10vhYvdjiUZ7DZn28aTxS0IttjJEhbt92yxm4vBbnNsPFnFvlueLXb7YYvdXAx2sifLu+KJLMD93hYY7ERERA0Ig93mbDvcyTF2y3CM3UIcY7cFBrvNsWPOKvbd8hxjtx+OsZuLwU5ERNRgAP8Flk5Zurn8LZEAAAAASUVORK5CYII=;imageBorder=#3E6DC9;fillColor=#5D7F99;strokeColor=#D0CEE2;fontColor=#1A1A1A;" vertex="1" parent="1">
          <mxGeometry x="440" y="279.49" width="103.3" height="103.3" as="geometry" />
        </mxCell>
        <mxCell id="oj4uOmL9cDN1MrVRwgIF-33" value="&lt;h5&gt;&lt;font style=&quot;font-size: 8px;&quot;&gt;Optimised Route&lt;/font&gt;&lt;/h5&gt;" style="text;html=1;align=center;verticalAlign=middle;resizable=0;points=[];autosize=1;strokeColor=none;fillColor=none;labelBackgroundColor=none;fontColor=#1A1A1A;" vertex="1" parent="1">
          <mxGeometry x="446.65" y="368.35" width="90" height="60" as="geometry" />
        </mxCell>
        <mxCell id="oj4uOmL9cDN1MrVRwgIF-35" value="" style="edgeStyle=orthogonalEdgeStyle;rounded=0;orthogonalLoop=1;jettySize=auto;html=1;strokeColor=#736CA8;entryX=0;entryY=0.25;entryDx=0;entryDy=0;labelBackgroundColor=none;fontColor=default;" edge="1" parent="1" source="oj4uOmL9cDN1MrVRwgIF-9" target="oj4uOmL9cDN1MrVRwgIF-1">
          <mxGeometry relative="1" as="geometry">
            <mxPoint x="125" y="257" as="sourcePoint" />
            <mxPoint x="200" y="310" as="targetPoint" />
            <Array as="points">
              <mxPoint x="170" y="257" />
              <mxPoint x="170" y="312" />
              <mxPoint x="260" y="312" />
            </Array>
          </mxGeometry>
        </mxCell>
        <mxCell id="oj4uOmL9cDN1MrVRwgIF-42" style="edgeStyle=orthogonalEdgeStyle;rounded=0;orthogonalLoop=1;jettySize=auto;html=1;strokeColor=#736CA8;fontColor=#1A1A1A;" edge="1" parent="1" source="oj4uOmL9cDN1MrVRwgIF-41" target="oj4uOmL9cDN1MrVRwgIF-1">
          <mxGeometry relative="1" as="geometry" />
        </mxCell>
        <mxCell id="oj4uOmL9cDN1MrVRwgIF-41" value="" style="rounded=0;whiteSpace=wrap;html=1;align=left;fillColor=none;strokeColor=#56517e;" vertex="1" parent="1">
          <mxGeometry x="225" y="181.7" width="190" height="80" as="geometry" />
        </mxCell>
        <mxCell id="oj4uOmL9cDN1MrVRwgIF-43" value="Realtime Data" style="text;html=1;align=center;verticalAlign=middle;resizable=0;points=[];autosize=1;strokeColor=none;fillColor=none;fontColor=#1A1A1A;" vertex="1" parent="1">
          <mxGeometry x="270" y="160" width="100" height="30" as="geometry" />
        </mxCell>
      </root>
    </mxGraphModel>
  </diagram>
</mxfile>
